<?xml version="1.0" encoding="utf-8"?>
<!-- Generator: Adobe Illustrator 28.0.0, SVG Export Plug-In . SVG Version: 6.00 Build 0)  -->
<svg version="1.1" id="Layer_1" xmlns="http://www.w3.org/2000/svg" xmlns:xlink="http://www.w3.org/1999/xlink" x="0px" y="0px"
	 viewBox="0 0 500 500" style="enable-background:new 0 0 500 500;" xml:space="preserve">
<style type="text/css">
	.st0{clip-path:url(#SVGID_00000046332611166042914370000001247460361729535114_);fill:#FFFFFF;}
	.st1{clip-path:url(#SVGID_00000046332611166042914370000001247460361729535114_);fill:none;stroke:#000000;stroke-miterlimit:10;}
	.st2{clip-path:url(#SVGID_00000046332611166042914370000001247460361729535114_);}
</style>
<g>
	<defs>
		<rect id="SVGID_1_" x="12.6" y="30.3" width="472.7" height="439"/>
	</defs>
	<clipPath id="SVGID_00000089575365246967322900000003443381921798581912_">
		<use xlink:href="#SVGID_1_"  style="overflow:visible;"/>
	</clipPath>
	<path style="clip-path:url(#SVGID_00000089575365246967322900000003443381921798581912_);fill:#FFFFFF;" d="M484.5,451
		c-1.6,0-3.1-0.1-4.7-0.1c-30.1,0-60.2,0-90.3,0c-26,0-52.1,0-78.1,0.1c-2.8,0-4.3-0.7-4.8-3.7c-0.4-2.3-1.3-4.5-2.3-6.5
		c-5.9-11.3-9.1-23.3-11-35.8c-0.5-3.1,0.1-5.7,1.9-8.4c6-8.8,11.5-17.9,12.3-28.9c1.1-13.7-1.8-25.9-13.2-35.1
		c-1.3-1-2.2-3.5-2.1-5.2c1.9-19.7,4.2-39.3,6.1-59c2.2-22.5,4.5-45.1,0.9-67.7c-1.8-10.9-4.4-21.8-12.5-30c1.2-3,2.7-5.7,3.3-8.7
		c0.5-2.5,1.6-2.8,3.7-2.5c8.3,1.3,16.4,0.5,24.3-2.2c5-1.7,9.7-4.3,14.7-6.2c8.5-3.2,13.6-12.2,11.7-21.1c-1.3-6-5-10.4-8.9-14.7
		c-2.9-3.1-5.9-6.2-8.4-9.7c-4.5-6.3-2.6-13.5-1.7-20.3c1-7.8,1-15.5-3.3-22.2c-4.7-7.4-10-14.5-15.6-21.3
		c-4.2-5.1-9.9-8.9-16.5-9.6c-9-0.9-18.1-0.7-27.2-0.8c-3.9-0.1-7.8,0.6-11.7,0.2c-7.2-0.8-14.1,0.2-20.7,2.8
		c-21.5,8.4-37.1,23.6-48.5,43c-5.2,8.8-4.2,17.7,2.5,25.5c2.9,3.3,6.3,6.1,9.2,9.5c3.3,3.8,6.4,7.8,9.2,11.9
		c0.6,0.8,0.2,3.1-0.6,3.9c-2.1,2.3-4.4,4.4-6.9,6.2c-11.3,8.4-17.2,19.7-18.6,33.5c-0.8,7.4-1.6,15-3.4,22.2
		c-5.8,23.5-9.2,47.2-8.6,71.4c0.4,14.6,1.6,29.2,2.8,43.7c0.4,4.9-0.2,8.4-4.7,11c-3.6,2.1-6.7,4.9-10.1,7.3
		c-18.2,12.5-20.7,34.7-14.5,50.5c2,5.1,6.3,9.3,9.8,13.7c3.2,4.1,2.9,6.9-2,8.6c-3.7,1.4-7.8,1.9-11.8,2.4
		c-6.3,0.8-10.9,4.1-14.1,9.3c-3.3,5.3-2.4,11.7,2.4,15.8c4.6,3.9,10,5.2,16,4.2c5.6-1,10.3-3.7,14.3-7.5c5-4.8,11-7.5,18.5-10.1
		c-1,4-1.9,7.3-2.7,10.6c-2.1,8.4-4.8,16.6-6.2,25.1c-0.6,3.9-1.5,4.8-5.2,4.8c-46.1-0.1-92.2-0.1-138.3-0.1c-1.6,0-3.3,0-4.9,0
		c-0.1,0.6-0.2,1.2-0.3,1.7c1.4,0.3,2.8,0.8,4.3,0.8c25,0.1,50,0,75,0c21.9,0,43.8,0,65.6,0c2.8,0,4.5,0.5,5.5,3.5
		c1.4,4.1,4.6,7.4,9,7.7c7.2,0.5,14.5,0.8,21.6-0.2c7.5-1,12.3-6.3,13.6-13.7c0.9-4.9,0.3-10,0.5-15c0-2,0.1-4,0.3-6.1
		c0.7-8.6,1.5-17.2,1.9-25.8c0.1-1.8-0.5-4.3-1.8-5.3c-2-1.7-4.8-3.3-7.3-3.2c-2.8,0.1-3.6,3.3-3.1,5.8c1.2,6.5,2.7,12.8,3.9,19.3
		c0.9,4.6,3.1,9.9,1.7,13.9c-4.4,12.5-11.9,19.4-26.9,17.7c-1.7-0.2-3.4-0.4-5-0.8c-2.6-0.6-6.6-0.5-7.4-2.1c-1.2-2.3-0.1-5.8,0-8.7
		c0-0.5,0.2-1,0.4-1.5c2-6.5,4.1-13.1,6-19.6c1.3-4.6,2-9.4,3.8-13.7c1.6-4,1.8-7.7,0.8-11.7c-0.5-2.1-1.1-4.3-1.3-6.4
		c-1-16.7-1.2-33.4-3-49.9c-1.1-10,2.1-17.9,7.3-25.6c1.7-2.5,3.1-5.2,5.2-7.3c4.3-4.5,8.6-9,13.5-12.8c4.6-3.5,8.3-1.6,8.5,4.3
		c0.2,5.1,0.4,10.5-0.8,15.4c-2.7,12-4.4,24.2-4.6,36.5c-0.1,11.1,0,22.2,0.9,33.3c0.7,9.2,7.7,15.4,16.8,16.6
		c6.8,0.9,13.7,1.7,20.5,2.8c1.8,0.3,3.4,1.5,5.1,2.3c-1.3,1.4-2.4,3.2-4,4.3c-1.7,1.1-3.9,1.4-5.8,2.1c-1.5,0.5-3,0.9-4.3,1.7
		c-4.8,2.8-7.5,7-7.8,12.6c-0.2,4.4,2.4,7.4,6,9.2c6.8,3.5,14.1,4.7,21.6,3.2c4.4-0.9,8.3-3.1,9.9-7.4c1.5-3.9,2.1-8.2,2.8-12.3
		c0.4-2.4,0.4-4.9,0.6-7.4c3.7,9,4.6,17.8,0.6,26.7c-1.7,3.8-3.4,7.5-4.8,11.4c-3,8.8,1,16,10,18.7c8.1,2.5,16.4,2.8,24.7,1.1
		c5.6-1.1,11-3.3,12.6-9.6c0.9-3.5,2.7-4,5.8-4c55.7,0.1,111.5,0.1,167.2,0.1c1.6,0,3.1-0.1,4.7-0.1"/>
	
		<path style="clip-path:url(#SVGID_00000089575365246967322900000003443381921798581912_);fill:none;stroke:#000000;stroke-miterlimit:10;" d="
		M484.5,451c-1.6,0-3.1-0.1-4.7-0.1c-30.1,0-60.2,0-90.3,0c-26,0-52.1,0-78.1,0.1c-2.8,0-4.3-0.7-4.8-3.7c-0.4-2.3-1.3-4.5-2.3-6.5
		c-5.9-11.3-9.1-23.3-11-35.8c-0.5-3.1,0.1-5.7,1.9-8.4c6-8.8,11.5-17.9,12.3-28.9c1.1-13.7-1.8-25.9-13.2-35.1
		c-1.3-1-2.2-3.5-2.1-5.2c1.9-19.7,4.2-39.3,6.1-59c2.2-22.5,4.5-45.1,0.9-67.7c-1.8-10.9-4.4-21.8-12.5-30c1.2-3,2.7-5.7,3.3-8.7
		c0.5-2.5,1.6-2.8,3.7-2.5c8.3,1.3,16.4,0.5,24.3-2.2c5-1.7,9.7-4.3,14.7-6.2c8.5-3.2,13.6-12.2,11.7-21.1c-1.3-6-5-10.4-8.9-14.7
		c-2.9-3.1-5.9-6.2-8.4-9.7c-4.5-6.3-2.6-13.5-1.7-20.3c1-7.8,1-15.5-3.3-22.2c-4.7-7.4-10-14.5-15.6-21.3
		c-4.2-5.1-9.9-8.9-16.5-9.6c-9-0.9-18.1-0.7-27.2-0.8c-3.9-0.1-7.8,0.6-11.7,0.2c-7.2-0.8-14.1,0.2-20.7,2.8
		c-21.5,8.4-37.1,23.6-48.5,43c-5.2,8.8-4.2,17.7,2.5,25.5c2.9,3.3,6.3,6.1,9.2,9.5c3.3,3.8,6.4,7.8,9.2,11.9
		c0.6,0.8,0.2,3.1-0.6,3.9c-2.1,2.3-4.4,4.4-6.9,6.2c-11.3,8.4-17.2,19.7-18.6,33.5c-0.8,7.4-1.6,15-3.4,22.2
		c-5.8,23.5-9.2,47.2-8.6,71.4c0.4,14.6,1.6,29.2,2.8,43.7c0.4,4.9-0.2,8.4-4.7,11c-3.6,2.1-6.7,4.9-10.1,7.3
		c-18.2,12.5-20.7,34.7-14.5,50.5c2,5.1,6.3,9.3,9.8,13.7c3.2,4.1,2.9,6.9-2,8.6c-3.7,1.4-7.8,1.9-11.8,2.4
		c-6.3,0.8-10.9,4.1-14.1,9.3c-3.3,5.3-2.4,11.7,2.4,15.8c4.6,3.9,10,5.2,16,4.2c5.6-1,10.3-3.7,14.3-7.5c5-4.8,11-7.5,18.5-10.1
		c-1,4-1.9,7.3-2.7,10.6c-2.1,8.4-4.8,16.6-6.2,25.1c-0.6,3.9-1.5,4.8-5.2,4.8c-46.1-0.1-92.2-0.1-138.3-0.1c-1.6,0-3.3,0-4.9,0
		c-0.1,0.6-0.2,1.2-0.3,1.7c1.4,0.3,2.8,0.8,4.3,0.8c25,0.1,50,0,75,0c21.9,0,43.8,0,65.6,0c2.8,0,4.5,0.5,5.5,3.5
		c1.4,4.1,4.6,7.4,9,7.7c7.2,0.5,14.5,0.8,21.6-0.2c7.5-1,12.3-6.3,13.6-13.7c0.9-4.9,0.3-10,0.5-15c0-2,0.1-4,0.3-6.1
		c0.7-8.6,1.5-17.2,1.9-25.8c0.1-1.8-0.5-4.3-1.8-5.3c-2-1.7-4.8-3.3-7.3-3.2c-2.8,0.1-3.6,3.3-3.1,5.8c1.2,6.5,2.7,12.8,3.9,19.3
		c0.9,4.6,3.1,9.9,1.7,13.9c-4.4,12.5-11.9,19.4-26.9,17.7c-1.7-0.2-3.4-0.4-5-0.8c-2.6-0.6-6.6-0.5-7.4-2.1c-1.2-2.3-0.1-5.8,0-8.7
		c0-0.5,0.2-1,0.4-1.5c2-6.5,4.1-13.1,6-19.6c1.3-4.6,2-9.4,3.8-13.7c1.6-4,1.8-7.7,0.8-11.7c-0.5-2.1-1.1-4.3-1.3-6.4
		c-1-16.7-1.2-33.4-3-49.9c-1.1-10,2.1-17.9,7.3-25.6c1.7-2.5,3.1-5.2,5.2-7.3c4.3-4.5,8.6-9,13.5-12.8c4.6-3.5,8.3-1.6,8.5,4.3
		c0.2,5.1,0.4,10.5-0.8,15.4c-2.7,12-4.4,24.2-4.6,36.5c-0.1,11.1,0,22.2,0.9,33.3c0.7,9.2,7.7,15.4,16.8,16.6
		c6.8,0.9,13.7,1.7,20.5,2.8c1.8,0.3,3.4,1.5,5.1,2.3c-1.3,1.4-2.4,3.2-4,4.3c-1.7,1.1-3.9,1.4-5.8,2.1c-1.5,0.5-3,0.9-4.3,1.7
		c-4.8,2.8-7.5,7-7.8,12.6c-0.2,4.4,2.4,7.4,6,9.2c6.8,3.5,14.1,4.7,21.6,3.2c4.4-0.9,8.3-3.1,9.9-7.4c1.5-3.9,2.1-8.2,2.8-12.3
		c0.4-2.4,0.4-4.9,0.6-7.4c3.7,9,4.6,17.8,0.6,26.7c-1.7,3.8-3.4,7.5-4.8,11.4c-3,8.8,1,16,10,18.7c8.1,2.5,16.4,2.8,24.7,1.1
		c5.6-1.1,11-3.3,12.6-9.6c0.9-3.5,2.7-4,5.8-4c55.7,0.1,111.5,0.1,167.2,0.1c1.6,0,3.1-0.1,4.7-0.1"/>
	<path style="clip-path:url(#SVGID_00000089575365246967322900000003443381921798581912_);" d="M249,77.5c3-4.8,6-9.2,8.6-13.8
		c0.6-1-0.2-2.8-0.3-4.2c-1.4,0.3-3.1,0.1-4.2,0.8C248.9,62.8,246.8,71.6,249,77.5 M260,341.7c-2.5,14.3-2.9,28.6,0.2,42.8
		c0.5,0,1,0,1.5,0C261.1,370.2,260.5,356,260,341.7 M206.4,424.5c0.7-0.1,1.4-0.2,2.1-0.3c0-7,0.1-14.1-0.1-21.1
		c0-1.2-0.6-2.7-1.4-3.5c-1-0.9-2.7-1.8-3.9-1.6c-0.7,0.1-1.9,2.3-1.7,3.3C202.9,409.1,204.7,416.8,206.4,424.5 M258.8,310.7
		c0.5,0,1,0.1,1.6,0.1c0.4-8.7,1-17.5,1-26.2c0-2.2-1.6-4.4-2.4-6.6c-0.7,0.2-1.4,0.3-2,0.5C254.1,289.4,257.6,300,258.8,310.7
		 M289,328.9c1.3-12.1,2.5-23.4,3.7-35.2c-2.9,6.5-5.3,12.3-8.1,18C281.3,318.7,282.1,323.1,289,328.9 M172.3,382.2
		c-0.9-15.6-1.8-31.2-2.8-46.7c-0.5,0-0.9,0.1-1.4,0.1C163.6,351.5,159.9,367.4,172.3,382.2 M296.9,451c3-0.1,5.2-0.2,8.4-0.4
		c-3.4-8.1-6.8-15-9.3-22.3c-2.5-7.3-4-14.8-6-22.9c-6.5,10.6-6.2,17.9,0.8,26.3C295.3,437.1,299.1,442.7,296.9,451 M340.5,137
		c-0.1-0.3-0.1-1-0.3-1.6c-1.3-3.7-6-6.6-10.3-6.3c-5.6,0.4-10.9,4.1-11.6,8.2c-0.2,1-0.1,2.1,0.1,3.1c0.9,3.8,8.1,8.9,11.6,8.4
		C334.3,148.2,340.6,141.3,340.5,137 M166.3,453.5c0.9,5.2,4.1,8.8,8.6,9.1c5.8,0.4,11.7,0.7,17.5,0c10.7-1.3,17.9-13.8,13.4-22.9
		c-0.4,0.6-0.8,1.1-1.1,1.6c-6.2,10.9-15.7,14.9-27.9,13.1C173.4,453.8,170,453.8,166.3,453.5 M296.5,252.9c0.4-0.5,0.6-0.7,0.6-0.9
		c0-15.8,0.6-31.5-0.2-47.3c-0.5-9.6-3.7-19-8.5-27.6c-0.6-1-1.7-1.8-2.6-2.7c-0.8,1.1-2,2-2.4,3.2c-2.4,7.2-0.7,14.3,1.3,21.3
		c2.2,8.1,5,16,6.8,24.2C293.6,232.8,294.8,242.7,296.5,252.9 M292.2,395c16.9-15,16.6-51.8-0.1-59.8
		C289.4,342.4,289.4,384.9,292.2,395 M208.7,137.3c0.1,10.2,2.8,19.5,10,26.7c12.8,12.8,28.7,16.6,46.2,13.8
		c5.2-0.8,10.4-3.1,15.2-5.5c3.5-1.8,5.9-5.1,6.7-10.2c-8,6.8-16.5,8.5-25.8,7.3c-11-1.4-21.1-5.3-30.6-10.9
		C221.5,153.3,213.8,146.7,208.7,137.3 M252.3,122.7c-1.1,5.8-1.4,11.6-3.3,16.8c-4,11.1-9.3,12.3-18.6,5c-3.4-2.6-6.6-5.4-10.2-7.7
		c-2.4-1.5-5.1-2.9-8.5-1.1c0.6,1.3,1.1,2.3,1.6,3.3c3.6,6.7,9.1,11.5,15.5,15.5c12.6,7.9,26,13.4,41.4,12.5
		c5.2-0.3,9.8-2.2,13.7-5.8c2.3-2.1,2.7-3.4-0.8-4.9c-11.8-5.2-20.7-13.6-26.7-25C254.8,128.5,253.6,125.6,252.3,122.7 M170.9,309.7
		c8.9-8.5,14.2-17.8,16.4-28.9c2.8-13.5,0.8-26.8-2.3-39.9c-4.1-17.1-6.6-34.3-5.3-51.8c1.6-20.4,8.4-38.5,23.7-52.8
		c1.2-1.1,1.4-3.3,2-5c-0.5-0.3-1-0.6-1.6-0.9c-5.3,4.9-11,9.4-15.6,14.8c-3.2,3.8-5.8,8.8-6.9,13.6c-3.8,17.7-7,35.5-10.1,53.2
		c-5.5,31.2-5.1,62.5-1.3,93.9C170,306.9,170.4,307.8,170.9,309.7 M167.8,315.7c-5.6,4.2-10.6,7.9-15.6,11.8
		c-7.3,5.6-12,12.8-13.4,22c-1.9,13.2-1,25.6,9.8,35.3c1,0.9,2,2.1,2.8,3.3c2.6,3.8,2.3,6.9-1.6,9.3c-3,1.8-6.7,2.8-10.2,3.3
		c-6.3,0.9-12.3,1.9-16.4,7.6c-4.3,6-2.5,13.1,4.3,16c6.6,2.9,13.3,2.3,18.9-1.9c7.3-5.5,14.4-10.9,23-14.4c1.3-0.5,2.7-2.3,2.9-3.7
		c1-7.4,1.1-14.5-3.6-21.2c-3.6-5.1-6.4-10.8-7-17.4c-1-12.3,1.2-24,5.8-35.2C169.4,325.7,168.8,321.2,167.8,315.7 M341.7,130.7
		c-0.1-0.6-0.1-1.3-0.5-1.7c-3.9-5.3-7.3-11-11.8-15.7c-6.5-6.9-9-14.3-7.4-23.7c1.2-7.2,2.4-14.9-0.9-21.8
		c-2.8-5.8-6.8-10.9-10.3-16.4C302,37.5,289.3,32,273,33.3c-8.5,0.7-17.2,0.3-25.7,0.8c-4.5,0.2-9.2,0.5-13.4,1.9
		c-22.6,7.8-38.5,23.4-50.2,43.6c-3.7,6.5-3.5,13.3,0.9,19.4c2.5,3.5,5.6,6.8,8.8,9.8c6.6,5.9,11.8,12.7,15,20.9
		c0.8,2,2,2.7,4.3,2.9c3.5,0.3,7.2,1.3,10.1,3.1c4.2,2.5,7.8,6.1,11.8,8.9c4.8,3.3,7.9,2.3,10.7-2.8c4.2-7.9,4.2-16.4,2.4-24.6
		c-3.3-15-1.8-30.1-2.4-45.2c0-1.3,0.2-2.6,0.5-3.8c1.2-4.5,2.5-9,7.6-11c5-2,8-0.2,6.9,5.1c-0.7,3.5-2.7,6.9-4.9,9.8
		c-4.1,5.5-7.3,11.3-6.9,18.1c0.9,14,3.6,27.6,10.1,40.3c9.7,18.8,33.4,33,56.9,24.9c3.3-1.2,6.6-2.4,10.8-3.9
		c-2.1-1.4-3.3-2.1-4.5-2.9c-3.6-2.5-6.9-5.6-6.4-10.4c0.5-4.9,3.8-8,8.2-10C330.2,125.3,335.9,126.4,341.7,130.7 M205.4,138.9
		c-0.6-0.1-1.2-0.2-1.8-0.2c-3.9,5.6-8.5,10.8-11.7,16.7c-12.7,23.5-11.6,48.5-7,73.7c2,11.2,4.6,22.3,5.7,33.6
		c1.9,18.9-3.5,35.5-17.8,48.7c-2.7,2.4-2.2,4.9-1.3,7.9c4.4-6.3,8.2-12.7,12.9-18.2c3.8-4.5,8.4-8.4,13.2-11.8
		c5-3.5,9.8-1.6,10.8,4.3c0.9,5,0.8,10.3,0.3,15.3c-0.7,6.4-3,12.7-3.4,19c-0.9,15.7-1.5,31.5-1.5,47.3c0,13,6.2,20.5,20.1,21.1
		c6.1,0.3,12.1,1.4,18.1,2.7c1.9,0.4,4.9,2.6,4.9,3.9c0,1.9-1.9,4.5-3.7,5.6c-2.9,1.8-6.4,2.8-9.6,4c-5.1,1.8-7.8,5.6-8.5,10.7
		c-0.6,3.8,1.8,6.7,5.2,7.8c4.7,1.6,9.7,3.2,14.6,3.4c9.3,0.3,14.7-5.3,15.2-14.6c0.3-6.1,0.6-12.1,0.8-18.2c0-1.8-0.1-3.7-0.6-5.3
		c-6-19.2-5.5-38.8-3.5-58.4c0.5-4.8,1.5-9.6,1.2-14.2c-0.5-6.9-2.3-13.8-3-20.7c-0.8-7.3-1.1-14.6-1.2-22c0-2.3,1.2-4.7,4.2-4.7
		c3,0,5,1.9,5.3,4.7c0.6,4.3,1.1,8.7,0.9,13.1c-0.4,6.8-1.4,13.6-2.1,20.4c-0.4,3.7-1.2,7.5-1,11.2c0.8,22.1,1.7,44.2,2.8,66.2
		c0.2,4.2,0.8,8.5,2.1,12.4c4.4,13,5.3,25.7-1.9,38.2c-1.3,2.3-2,5-2.6,7.7c-1.3,5.9,1.2,10.6,6.7,12.8c9.3,3.6,18.8,3.9,28.3,1
		c5.7-1.7,7.9-4.7,7.8-10.2c-2.5,0-5.1,0-7.6,0c-2.1,0-3.2-0.8-2.4-3.2c2.1-6.4-0.4-11.7-4.7-16.2c-7.9-8.3-8.7-17.5-3.4-27.4
		c0.9-1.7,2-3.4,2.7-5.1c0.5-1.3,0.8-2.7,0.8-4c-0.6-13.3-1.6-26.6-1.9-39.9c-0.2-7.5,0.8-15,1-22.5c0-1.5-0.6-3.4-1.6-4.4
		c-8-7.9-8.5-12.2-3.4-22.4c2.6-5.3,4.9-10.9,6.1-16.7c6.1-28.7,4.2-57-4.9-84.9c-2.3-7.1-3.7-14.5-4.9-21.9c-0.5-2.9,0.6-6,1.1-9.6
		c-16.1,7.7-32,7.8-47.9,1.3C216.1,169.9,207.7,156.6,205.4,138.9 M484.1,453.4c-1.6,0-3.1,0.1-4.7,0.1c-55.7,0-111.4,0-167.1-0.1
		c-3.1,0-5,0.5-5.8,4c-1.6,6.3-6.9,8.5-12.6,9.6c-8.3,1.7-16.5,1.4-24.7-1.1c-8.9-2.8-12.9-10-9.9-18.7c1.3-3.9,3.1-7.7,4.8-11.4
		c4-8.9,3.1-17.8-0.6-26.7c-0.2,2.5-0.1,5-0.6,7.4c-0.7,4.2-1.3,8.4-2.8,12.3c-1.6,4.3-5.6,6.5-9.9,7.4c-7.5,1.6-14.8,0.3-21.6-3.2
		c-3.6-1.9-6.2-4.8-6-9.2c0.2-5.6,2.9-9.8,7.8-12.6c1.3-0.8,2.9-1.1,4.3-1.7c1.9-0.7,4.1-1.1,5.8-2.2c1.6-1,2.7-2.8,4-4.3
		c-1.7-0.8-3.3-2-5.1-2.3c-6.8-1.1-13.6-1.9-20.5-2.8c-9.1-1.2-16.1-7.5-16.8-16.6c-0.9-11.1-1-22.2-0.8-33.3
		c0.1-12.3,1.8-24.4,4.6-36.5c1.1-5,1-10.3,0.8-15.4c-0.2-5.9-3.9-7.9-8.5-4.3c-4.9,3.7-9.2,8.3-13.5,12.8c-2,2.1-3.5,4.8-5.2,7.3
		c-5.3,7.7-8.4,15.7-7.3,25.6c1.8,16.6,2,33.3,3,49.9c0.1,2.2,0.7,4.3,1.2,6.4c1,4,0.8,7.7-0.8,11.7c-1.8,4.4-2.5,9.2-3.8,13.7
		c-1.9,6.6-4,13.1-6,19.6c-0.2,0.5-0.3,1-0.4,1.5c-0.1,3-1.2,6.4,0,8.7c0.8,1.6,4.8,1.5,7.4,2.1c1.6,0.4,3.3,0.6,5,0.8
		c14.9,1.7,22.5-5.2,26.8-17.7c1.4-4-0.9-9.3-1.7-13.9c-1.2-6.4-2.8-12.8-3.9-19.3c-0.5-2.5,0.3-5.7,3.1-5.8
		c2.4-0.1,5.3,1.6,7.2,3.2c1.2,1,1.9,3.5,1.8,5.3c-0.5,8.6-1.3,17.2-1.9,25.8c-0.2,2-0.2,4-0.3,6.1c-0.1,5,0.4,10.1-0.5,15
		c-1.3,7.4-6.1,12.7-13.6,13.7c-7.1,1-14.4,0.7-21.6,0.2c-4.4-0.3-7.6-3.6-9-7.7c-1-3-2.7-3.5-5.5-3.5c-21.9,0.1-43.7,0-65.6,0
		c-25,0-50,0-75,0c-1.4,0-2.8-0.6-4.3-0.8c0.1-0.6,0.2-1.2,0.3-1.7c1.6,0,3.2,0,4.9,0c46.1,0,92.1,0,138.2,0.1
		c3.8,0,4.6-0.9,5.2-4.8c1.3-8.5,4-16.8,6.2-25.1c0.8-3.3,1.7-6.6,2.7-10.6c-7.4,2.6-13.5,5.3-18.4,10.1c-4,3.8-8.7,6.6-14.2,7.5
		c-6,1.1-11.4-0.2-16-4.2c-4.7-4.1-5.7-10.5-2.4-15.8c3.2-5.2,7.8-8.5,14.1-9.2c4-0.5,8.1-1,11.8-2.4c4.9-1.8,5.2-4.6,2-8.6
		c-3.5-4.5-7.8-8.7-9.8-13.7c-6.3-15.8-3.7-37.9,14.5-50.5c3.4-2.4,6.5-5.2,10.1-7.3c4.6-2.6,5.2-6.1,4.7-11
		c-1.3-14.5-2.4-29.1-2.8-43.7c-0.7-24.2,2.8-47.9,8.5-71.4c1.8-7.3,2.6-14.8,3.4-22.2c1.4-13.9,7.4-25.1,18.6-33.5
		c2.5-1.9,4.9-3.9,6.9-6.2c0.8-0.9,1.1-3.1,0.6-3.9c-2.8-4.1-5.9-8.1-9.2-11.9c-2.9-3.3-6.4-6.1-9.2-9.5c-6.7-7.9-7.7-16.7-2.5-25.5
		c11.5-19.5,27-34.6,48.5-43c6.6-2.6,13.5-3.5,20.7-2.8c3.8,0.4,7.8-0.3,11.7-0.2c9.1,0.1,18.2-0.1,27.1,0.8
		c6.6,0.7,12.3,4.5,16.5,9.6c5.5,6.8,10.8,13.9,15.5,21.3c4.3,6.7,4.3,14.4,3.3,22.2c-0.9,6.9-2.8,14,1.7,20.3
		c2.4,3.5,5.5,6.5,8.4,9.7c4,4.3,7.7,8.8,8.9,14.7c1.9,8.9-3.2,17.9-11.7,21.1c-5,1.9-9.7,4.4-14.7,6.2c-7.8,2.7-16,3.5-24.2,2.2
		c-2.1-0.3-3.2,0-3.7,2.5c-0.6,3-2.2,5.7-3.3,8.7c8.1,8.2,10.7,19.1,12.5,30c3.7,22.6,1.3,45.2-0.9,67.7c-1.9,19.7-4.2,39.3-6.1,59
		c-0.2,1.7,0.8,4.2,2.1,5.2c11.4,9.2,14.3,21.4,13.2,35.1c-0.9,11-6.3,20.1-12.3,28.9c-1.8,2.6-2.4,5.2-1.9,8.4
		c2,12.4,5.2,24.5,11,35.8c1.1,2,1.9,4.3,2.3,6.5c0.5,2.9,2,3.7,4.8,3.7c26-0.1,52.1-0.1,78.1-0.1c30.1,0,60.1,0,90.2,0
		c1.6,0,3.1,0.1,4.7,0.1V453.4z"/>
	
		<path style="clip-path:url(#SVGID_00000089575365246967322900000003443381921798581912_);fill:none;stroke:#000000;stroke-miterlimit:10;" d="
		M249,77.5c3-4.8,6-9.2,8.6-13.8c0.6-1-0.2-2.8-0.3-4.2c-1.4,0.3-3.1,0.1-4.2,0.8C248.9,62.8,246.8,71.6,249,77.5z M260,341.7
		c-2.5,14.3-2.9,28.6,0.2,42.8c0.5,0,1,0,1.5,0C261.1,370.2,260.5,356,260,341.7z M206.4,424.5c0.7-0.1,1.4-0.2,2.1-0.3
		c0-7,0.1-14.1-0.1-21.1c0-1.2-0.6-2.7-1.4-3.5c-1-0.9-2.7-1.8-3.9-1.6c-0.7,0.1-1.9,2.3-1.7,3.3
		C202.9,409.1,204.7,416.8,206.4,424.5z M258.8,310.7c0.5,0,1,0.1,1.6,0.1c0.4-8.7,1-17.5,1-26.2c0-2.2-1.6-4.4-2.4-6.6
		c-0.7,0.2-1.4,0.3-2,0.5C254.1,289.4,257.6,300,258.8,310.7z M289,328.9c1.3-12.1,2.5-23.4,3.7-35.2c-2.9,6.5-5.3,12.3-8.1,18
		C281.3,318.7,282.1,323.1,289,328.9z M172.3,382.2c-0.9-15.6-1.8-31.2-2.8-46.7c-0.5,0-0.9,0.1-1.4,0.1
		C163.6,351.5,159.9,367.4,172.3,382.2z M296.9,451c3-0.1,5.2-0.2,8.4-0.4c-3.4-8.1-6.8-15-9.3-22.3c-2.5-7.3-4-14.8-6-22.9
		c-6.5,10.6-6.2,17.9,0.8,26.3C295.3,437.1,299.1,442.7,296.9,451z M340.5,137c-0.1-0.3-0.1-1-0.3-1.6c-1.3-3.7-6-6.6-10.3-6.3
		c-5.6,0.4-10.9,4.1-11.6,8.2c-0.2,1-0.1,2.1,0.1,3.1c0.9,3.8,8.1,8.9,11.6,8.4C334.3,148.2,340.6,141.3,340.5,137z M166.3,453.5
		c0.9,5.2,4.1,8.8,8.6,9.1c5.8,0.4,11.7,0.7,17.5,0c10.7-1.3,17.9-13.8,13.4-22.9c-0.4,0.6-0.8,1.1-1.1,1.6
		c-6.2,10.9-15.7,14.9-27.9,13.1C173.4,453.8,170,453.8,166.3,453.5z M296.5,252.9c0.4-0.5,0.6-0.7,0.6-0.9
		c0-15.8,0.6-31.5-0.2-47.3c-0.5-9.6-3.7-19-8.5-27.6c-0.6-1-1.7-1.8-2.6-2.7c-0.8,1.1-2,2-2.4,3.2c-2.4,7.2-0.7,14.3,1.3,21.3
		c2.2,8.1,5,16,6.8,24.2C293.6,232.8,294.8,242.7,296.5,252.9z M292.2,395c16.9-15,16.6-51.8-0.1-59.8
		C289.4,342.4,289.4,384.9,292.2,395z M208.7,137.3c0.1,10.2,2.8,19.5,10,26.7c12.8,12.8,28.7,16.6,46.2,13.8
		c5.2-0.8,10.4-3.1,15.2-5.5c3.5-1.8,5.9-5.1,6.7-10.2c-8,6.8-16.5,8.5-25.8,7.3c-11-1.4-21.1-5.3-30.6-10.9
		C221.5,153.3,213.8,146.7,208.7,137.3z M252.3,122.7c-1.1,5.8-1.4,11.6-3.3,16.8c-4,11.1-9.3,12.3-18.6,5
		c-3.4-2.6-6.6-5.4-10.2-7.7c-2.4-1.5-5.1-2.9-8.5-1.1c0.6,1.3,1.1,2.3,1.6,3.3c3.6,6.7,9.1,11.5,15.5,15.5
		c12.6,7.9,26,13.4,41.4,12.5c5.2-0.3,9.8-2.2,13.7-5.8c2.3-2.1,2.7-3.4-0.8-4.9c-11.8-5.2-20.7-13.6-26.7-25
		C254.8,128.5,253.6,125.6,252.3,122.7z M170.9,309.7c8.9-8.5,14.2-17.8,16.4-28.9c2.8-13.5,0.8-26.8-2.3-39.9
		c-4.1-17.1-6.6-34.3-5.3-51.8c1.6-20.4,8.4-38.5,23.7-52.8c1.2-1.1,1.4-3.3,2-5c-0.5-0.3-1-0.6-1.6-0.9c-5.3,4.9-11,9.4-15.6,14.8
		c-3.2,3.8-5.8,8.8-6.9,13.6c-3.8,17.7-7,35.5-10.1,53.2c-5.5,31.2-5.1,62.5-1.3,93.9C170,306.9,170.4,307.8,170.9,309.7z
		 M167.8,315.7c-5.6,4.2-10.6,7.9-15.6,11.8c-7.3,5.6-12,12.8-13.4,22c-1.9,13.2-1,25.6,9.8,35.3c1,0.9,2,2.1,2.8,3.3
		c2.6,3.8,2.3,6.9-1.6,9.3c-3,1.8-6.7,2.8-10.2,3.3c-6.3,0.9-12.3,1.9-16.4,7.6c-4.3,6-2.5,13.1,4.3,16c6.6,2.9,13.3,2.3,18.9-1.9
		c7.3-5.5,14.4-10.9,23-14.4c1.3-0.5,2.7-2.3,2.9-3.7c1-7.4,1.1-14.5-3.6-21.2c-3.6-5.1-6.4-10.8-7-17.4c-1-12.3,1.2-24,5.8-35.2
		C169.4,325.7,168.8,321.2,167.8,315.7z M341.7,130.7c-0.1-0.6-0.1-1.3-0.5-1.7c-3.9-5.3-7.3-11-11.8-15.7c-6.5-6.9-9-14.3-7.4-23.7
		c1.2-7.2,2.4-14.9-0.9-21.8c-2.8-5.8-6.8-10.9-10.3-16.4C302,37.5,289.3,32,273,33.3c-8.5,0.7-17.2,0.3-25.7,0.8
		c-4.5,0.2-9.2,0.5-13.4,1.9c-22.6,7.8-38.5,23.4-50.2,43.6c-3.7,6.5-3.5,13.3,0.9,19.4c2.5,3.5,5.6,6.8,8.8,9.8
		c6.6,5.9,11.8,12.7,15,20.9c0.8,2,2,2.7,4.3,2.9c3.5,0.3,7.2,1.3,10.1,3.1c4.2,2.5,7.8,6.1,11.8,8.9c4.8,3.3,7.9,2.3,10.7-2.8
		c4.2-7.9,4.2-16.4,2.4-24.6c-3.3-15-1.8-30.1-2.4-45.2c0-1.3,0.2-2.6,0.5-3.8c1.2-4.5,2.5-9,7.6-11c5-2,8-0.2,6.9,5.1
		c-0.7,3.5-2.7,6.9-4.9,9.8c-4.1,5.5-7.3,11.3-6.9,18.1c0.9,14,3.6,27.6,10.1,40.3c9.7,18.8,33.4,33,56.9,24.9
		c3.3-1.2,6.6-2.4,10.8-3.9c-2.1-1.4-3.3-2.1-4.5-2.9c-3.6-2.5-6.9-5.6-6.4-10.4c0.5-4.9,3.8-8,8.2-10
		C330.2,125.3,335.9,126.4,341.7,130.7z M205.4,138.9c-0.6-0.1-1.2-0.2-1.8-0.2c-3.9,5.6-8.5,10.8-11.7,16.7
		c-12.7,23.5-11.6,48.5-7,73.7c2,11.2,4.6,22.3,5.7,33.6c1.9,18.9-3.5,35.5-17.8,48.7c-2.7,2.4-2.2,4.9-1.3,7.9
		c4.4-6.3,8.2-12.7,12.9-18.2c3.8-4.5,8.4-8.4,13.2-11.8c5-3.5,9.8-1.6,10.8,4.3c0.9,5,0.8,10.3,0.3,15.3c-0.7,6.4-3,12.7-3.4,19
		c-0.9,15.7-1.5,31.5-1.5,47.3c0,13,6.2,20.5,20.1,21.1c6.1,0.3,12.1,1.4,18.1,2.7c1.9,0.4,4.9,2.6,4.9,3.9c0,1.9-1.9,4.5-3.7,5.6
		c-2.9,1.8-6.4,2.8-9.6,4c-5.1,1.8-7.8,5.6-8.5,10.7c-0.6,3.8,1.8,6.7,5.2,7.8c4.7,1.6,9.7,3.2,14.6,3.4c9.3,0.3,14.7-5.3,15.2-14.6
		c0.3-6.1,0.6-12.1,0.8-18.2c0-1.8-0.1-3.7-0.6-5.3c-6-19.2-5.5-38.8-3.5-58.4c0.5-4.8,1.5-9.6,1.2-14.2c-0.5-6.9-2.3-13.8-3-20.7
		c-0.8-7.3-1.1-14.6-1.2-22c0-2.3,1.2-4.7,4.2-4.7c3,0,5,1.9,5.3,4.7c0.6,4.3,1.1,8.7,0.9,13.1c-0.4,6.8-1.4,13.6-2.1,20.4
		c-0.4,3.7-1.2,7.5-1,11.2c0.8,22.1,1.7,44.2,2.8,66.2c0.2,4.2,0.8,8.5,2.1,12.4c4.4,13,5.3,25.7-1.9,38.2c-1.3,2.3-2,5-2.6,7.7
		c-1.3,5.9,1.2,10.6,6.7,12.8c9.3,3.6,18.8,3.9,28.3,1c5.7-1.7,7.9-4.7,7.8-10.2c-2.5,0-5.1,0-7.6,0c-2.1,0-3.2-0.8-2.4-3.2
		c2.1-6.4-0.4-11.7-4.7-16.2c-7.9-8.3-8.7-17.5-3.4-27.4c0.9-1.7,2-3.4,2.7-5.1c0.5-1.3,0.8-2.7,0.8-4c-0.6-13.3-1.6-26.6-1.9-39.9
		c-0.2-7.5,0.8-15,1-22.5c0-1.5-0.6-3.4-1.6-4.4c-8-7.9-8.5-12.2-3.4-22.4c2.6-5.3,4.9-10.9,6.1-16.7c6.1-28.7,4.2-57-4.9-84.9
		c-2.3-7.1-3.7-14.5-4.9-21.9c-0.5-2.9,0.6-6,1.1-9.6c-16.1,7.7-32,7.8-47.9,1.3C216.1,169.9,207.7,156.6,205.4,138.9z M484.1,453.4
		c-1.6,0-3.1,0.1-4.7,0.1c-55.7,0-111.4,0-167.1-0.1c-3.1,0-5,0.5-5.8,4c-1.6,6.3-6.9,8.5-12.6,9.6c-8.3,1.7-16.5,1.4-24.7-1.1
		c-8.9-2.8-12.9-10-9.9-18.7c1.3-3.9,3.1-7.7,4.8-11.4c4-8.9,3.1-17.8-0.6-26.7c-0.2,2.5-0.1,5-0.6,7.4c-0.7,4.2-1.3,8.4-2.8,12.3
		c-1.6,4.3-5.6,6.5-9.9,7.4c-7.5,1.6-14.8,0.3-21.6-3.2c-3.6-1.9-6.2-4.8-6-9.2c0.2-5.6,2.9-9.8,7.8-12.6c1.3-0.8,2.9-1.1,4.3-1.7
		c1.9-0.7,4.1-1.1,5.8-2.2c1.6-1,2.7-2.8,4-4.3c-1.7-0.8-3.3-2-5.1-2.3c-6.8-1.1-13.6-1.9-20.5-2.8c-9.1-1.2-16.1-7.5-16.8-16.6
		c-0.9-11.1-1-22.2-0.8-33.3c0.1-12.3,1.8-24.4,4.6-36.5c1.1-5,1-10.3,0.8-15.4c-0.2-5.9-3.9-7.9-8.5-4.3
		c-4.9,3.7-9.2,8.3-13.5,12.8c-2,2.1-3.5,4.8-5.2,7.3c-5.3,7.7-8.4,15.7-7.3,25.6c1.8,16.6,2,33.3,3,49.9c0.1,2.2,0.7,4.3,1.2,6.4
		c1,4,0.8,7.7-0.8,11.7c-1.8,4.4-2.5,9.2-3.8,13.7c-1.9,6.6-4,13.1-6,19.6c-0.2,0.5-0.3,1-0.4,1.5c-0.1,3-1.2,6.4,0,8.7
		c0.8,1.6,4.8,1.5,7.4,2.1c1.6,0.4,3.3,0.6,5,0.8c14.9,1.7,22.5-5.2,26.8-17.7c1.4-4-0.9-9.3-1.7-13.9c-1.2-6.4-2.8-12.8-3.9-19.3
		c-0.5-2.5,0.3-5.7,3.1-5.8c2.4-0.1,5.3,1.6,7.2,3.2c1.2,1,1.9,3.5,1.8,5.3c-0.5,8.6-1.3,17.2-1.9,25.8c-0.2,2-0.2,4-0.3,6.1
		c-0.1,5,0.4,10.1-0.5,15c-1.3,7.4-6.1,12.7-13.6,13.7c-7.1,1-14.4,0.7-21.6,0.2c-4.4-0.3-7.6-3.6-9-7.7c-1-3-2.7-3.5-5.5-3.5
		c-21.9,0.1-43.7,0-65.6,0c-25,0-50,0-75,0c-1.4,0-2.8-0.6-4.3-0.8c0.1-0.6,0.2-1.2,0.3-1.7c1.6,0,3.2,0,4.9,0
		c46.1,0,92.1,0,138.2,0.1c3.8,0,4.6-0.9,5.2-4.8c1.3-8.5,4-16.8,6.2-25.1c0.8-3.3,1.7-6.6,2.7-10.6c-7.4,2.6-13.5,5.3-18.4,10.1
		c-4,3.8-8.7,6.6-14.2,7.5c-6,1.1-11.4-0.2-16-4.2c-4.7-4.1-5.7-10.5-2.4-15.8c3.2-5.2,7.8-8.5,14.1-9.2c4-0.5,8.1-1,11.8-2.4
		c4.9-1.8,5.2-4.6,2-8.6c-3.5-4.5-7.8-8.7-9.8-13.7c-6.3-15.8-3.7-37.9,14.5-50.5c3.4-2.4,6.5-5.2,10.1-7.3c4.6-2.6,5.2-6.1,4.7-11
		c-1.3-14.5-2.4-29.1-2.8-43.7c-0.7-24.2,2.8-47.9,8.5-71.4c1.8-7.3,2.6-14.8,3.4-22.2c1.4-13.9,7.4-25.1,18.6-33.5
		c2.5-1.9,4.9-3.9,6.9-6.2c0.8-0.9,1.1-3.1,0.6-3.9c-2.8-4.1-5.9-8.1-9.2-11.9c-2.9-3.3-6.4-6.1-9.2-9.5c-6.7-7.9-7.7-16.7-2.5-25.5
		c11.5-19.5,27-34.6,48.5-43c6.6-2.6,13.5-3.5,20.7-2.8c3.8,0.4,7.8-0.3,11.7-0.2c9.1,0.1,18.2-0.1,27.1,0.8
		c6.6,0.7,12.3,4.5,16.5,9.6c5.5,6.8,10.8,13.9,15.5,21.3c4.3,6.7,4.3,14.4,3.3,22.2c-0.9,6.9-2.8,14,1.7,20.3
		c2.4,3.5,5.5,6.5,8.4,9.7c4,4.3,7.7,8.8,8.9,14.7c1.9,8.9-3.2,17.9-11.7,21.1c-5,1.9-9.7,4.4-14.7,6.2c-7.8,2.7-16,3.5-24.2,2.2
		c-2.1-0.3-3.2,0-3.7,2.5c-0.6,3-2.2,5.7-3.3,8.7c8.1,8.2,10.7,19.1,12.5,30c3.7,22.6,1.3,45.2-0.9,67.7c-1.9,19.7-4.2,39.3-6.1,59
		c-0.2,1.7,0.8,4.2,2.1,5.2c11.4,9.2,14.3,21.4,13.2,35.1c-0.9,11-6.3,20.1-12.3,28.9c-1.8,2.6-2.4,5.2-1.9,8.4
		c2,12.4,5.2,24.5,11,35.8c1.1,2,1.9,4.3,2.3,6.5c0.5,2.9,2,3.7,4.8,3.7c26-0.1,52.1-0.1,78.1-0.1c30.1,0,60.1,0,90.2,0
		c1.6,0,3.1,0.1,4.7,0.1V453.4z"/>
	<path style="clip-path:url(#SVGID_00000089575365246967322900000003443381921798581912_);fill:#FFFFFF;" d="M205.5,139.1
		c2.3,17.8,10.7,31,27.6,37.9c15.9,6.4,31.7,6.4,47.7-1.3c-0.5,3.6-1.6,6.8-1.1,9.6c1.2,7.4,2.6,14.8,4.9,21.8
		c9,27.9,11,56.2,4.9,84.8c-1.2,5.7-3.5,11.4-6.1,16.6c-5,10.2-4.6,14.5,3.4,22.4c1,1,1.7,2.9,1.6,4.4c-0.2,7.5-1.1,15-0.9,22.5
		c0.3,13.3,1.3,26.5,1.9,39.8c0.1,1.3-0.2,2.8-0.8,4c-0.7,1.8-1.8,3.4-2.7,5.1c-5.3,9.9-4.5,19.1,3.4,27.4c4.3,4.6,6.7,9.8,4.7,16.2
		c-0.7,2.3,0.3,3.1,2.4,3.2c2.5,0,5.1,0,7.6,0c0.1,5.5-2.2,8.5-7.8,10.2c-9.5,2.9-18.9,2.6-28.2-1c-5.6-2.2-8-6.9-6.7-12.8
		c0.6-2.6,1.3-5.4,2.6-7.7c7.1-12.5,6.2-25.1,1.9-38.2c-1.3-3.9-1.9-8.2-2.1-12.4c-1.1-22.1-2-44.1-2.8-66.2
		c-0.1-3.7,0.6-7.4,1-11.2c0.7-6.8,1.7-13.6,2.1-20.4c0.2-4.3-0.3-8.7-0.8-13.1c-0.4-2.8-2.3-4.7-5.3-4.7c-3,0-4.2,2.4-4.2,4.7
		c0.2,7.3,0.5,14.7,1.2,21.9c0.7,6.9,2.5,13.8,3,20.7c0.3,4.7-0.7,9.5-1.2,14.2c-2,19.6-2.5,39.2,3.5,58.4c0.5,1.7,0.6,3.6,0.6,5.3
		c-0.2,6.1-0.4,12.1-0.8,18.2c-0.5,9.3-5.9,14.9-15.1,14.6c-4.9-0.2-9.9-1.8-14.6-3.4c-3.3-1.1-5.7-4-5.2-7.8
		c0.7-5,3.4-8.8,8.5-10.6c3.3-1.2,6.7-2.1,9.6-4c1.8-1.1,3.7-3.7,3.7-5.6c0-1.4-3-3.5-4.9-3.9c-5.9-1.3-12-2.4-18-2.7
		c-13.8-0.6-20-8.1-20-21c0-15.7,0.6-31.5,1.5-47.2c0.4-6.4,2.7-12.6,3.4-19c0.5-5.1,0.6-10.3-0.3-15.3c-1.1-5.9-5.8-7.8-10.8-4.3
		c-4.8,3.4-9.4,7.3-13.2,11.8c-4.7,5.6-8.5,11.9-12.8,18.2c-0.9-2.9-1.4-5.4,1.3-7.9c14.3-13.2,19.7-29.8,17.8-48.7
		c-1.1-11.3-3.7-22.4-5.7-33.5c-4.6-25.2-5.7-50.2,6.9-73.7c3.2-5.9,7.7-11.2,11.6-16.7C204.3,138.9,204.9,139,205.5,139.1"/>
	
		<path style="clip-path:url(#SVGID_00000089575365246967322900000003443381921798581912_);fill:none;stroke:#000000;stroke-miterlimit:10;" d="
		M205.5,139.1c2.3,17.8,10.7,31,27.6,37.9c15.9,6.4,31.7,6.4,47.7-1.3c-0.5,3.6-1.6,6.8-1.1,9.6c1.2,7.4,2.6,14.8,4.9,21.8
		c9,27.9,11,56.2,4.9,84.8c-1.2,5.7-3.5,11.4-6.1,16.6c-5,10.2-4.6,14.5,3.4,22.4c1,1,1.7,2.9,1.6,4.4c-0.2,7.5-1.1,15-0.9,22.5
		c0.3,13.3,1.3,26.5,1.9,39.8c0.1,1.3-0.2,2.8-0.8,4c-0.7,1.8-1.8,3.4-2.7,5.1c-5.3,9.9-4.5,19.1,3.4,27.4c4.3,4.6,6.7,9.8,4.7,16.2
		c-0.7,2.3,0.3,3.1,2.4,3.2c2.5,0,5.1,0,7.6,0c0.1,5.5-2.2,8.5-7.8,10.2c-9.5,2.9-18.9,2.6-28.2-1c-5.6-2.2-8-6.9-6.7-12.8
		c0.6-2.6,1.3-5.4,2.6-7.7c7.1-12.5,6.2-25.1,1.9-38.2c-1.3-3.9-1.9-8.2-2.1-12.4c-1.1-22.1-2-44.1-2.8-66.2
		c-0.1-3.7,0.6-7.4,1-11.2c0.7-6.8,1.7-13.6,2.1-20.4c0.2-4.3-0.3-8.7-0.8-13.1c-0.4-2.8-2.3-4.7-5.3-4.7c-3,0-4.2,2.4-4.2,4.7
		c0.2,7.3,0.5,14.7,1.2,21.9c0.7,6.9,2.5,13.8,3,20.7c0.3,4.7-0.7,9.5-1.2,14.2c-2,19.6-2.5,39.2,3.5,58.4c0.5,1.7,0.6,3.6,0.6,5.3
		c-0.2,6.1-0.4,12.1-0.8,18.2c-0.5,9.3-5.9,14.9-15.1,14.6c-4.9-0.2-9.9-1.8-14.6-3.4c-3.3-1.1-5.7-4-5.2-7.8
		c0.7-5,3.4-8.8,8.5-10.6c3.3-1.2,6.7-2.1,9.6-4c1.8-1.1,3.7-3.7,3.7-5.6c0-1.4-3-3.5-4.9-3.9c-5.9-1.3-12-2.4-18-2.7
		c-13.8-0.6-20-8.1-20-21c0-15.7,0.6-31.5,1.5-47.2c0.4-6.4,2.7-12.6,3.4-19c0.5-5.1,0.6-10.3-0.3-15.3c-1.1-5.9-5.8-7.8-10.8-4.3
		c-4.8,3.4-9.4,7.3-13.2,11.8c-4.7,5.6-8.5,11.9-12.8,18.2c-0.9-2.9-1.4-5.4,1.3-7.9c14.3-13.2,19.7-29.8,17.8-48.7
		c-1.1-11.3-3.7-22.4-5.7-33.5c-4.6-25.2-5.7-50.2,6.9-73.7c3.2-5.9,7.7-11.2,11.6-16.7C204.3,138.9,204.9,139,205.5,139.1z"/>
	<path style="clip-path:url(#SVGID_00000089575365246967322900000003443381921798581912_);fill:#FFFFFF;" d="M341.1,130.2
		c-5.7-4.3-11.4-5.3-17.8-2.5c-4.4,2-7.7,5.1-8.2,10c-0.4,4.7,2.8,7.8,6.4,10.3c1.1,0.8,2.3,1.5,4.4,2.9c-4.1,1.5-7.4,2.7-10.8,3.9
		c-23.4,8.1-47-6-56.6-24.8c-6.5-12.6-9.2-26.2-10.1-40.1c-0.5-6.8,2.8-12.6,6.9-18c2.2-2.9,4.2-6.3,4.9-9.8c1-5.3-1.9-7.1-6.9-5.1
		c-5,2-6.3,6.5-7.5,11c-0.3,1.2-0.6,2.5-0.5,3.8c0.6,15-0.9,30,2.4,45c1.8,8.2,1.8,16.6-2.4,24.5c-2.7,5.1-5.9,6.1-10.6,2.8
		c-4-2.8-7.5-6.4-11.7-8.8c-3-1.7-6.6-2.7-10.1-3.1c-2.4-0.2-3.6-0.9-4.3-2.9c-3.2-8.2-8.4-14.9-14.9-20.8c-3.2-2.9-6.3-6.2-8.8-9.7
		c-4.4-6.1-4.6-12.9-0.9-19.3c11.6-20.2,27.5-35.7,49.9-43.4c4.2-1.4,8.9-1.7,13.4-1.9c8.5-0.4,17.1-0.1,25.6-0.8
		c16.2-1.3,28.9,4.2,37.6,18c3.4,5.4,7.5,10.5,10.2,16.3c3.3,6.9,2.1,14.5,0.9,21.7c-1.6,9.3,0.9,16.8,7.4,23.6
		c4.4,4.7,7.9,10.3,11.7,15.6C341,128.9,341,129.6,341.1,130.2"/>
	
		<path style="clip-path:url(#SVGID_00000089575365246967322900000003443381921798581912_);fill:none;stroke:#000000;stroke-miterlimit:10;" d="
		M341.1,130.2c-5.7-4.3-11.4-5.3-17.8-2.5c-4.4,2-7.7,5.1-8.2,10c-0.4,4.7,2.8,7.8,6.4,10.3c1.1,0.8,2.3,1.5,4.4,2.9
		c-4.1,1.5-7.4,2.7-10.8,3.9c-23.4,8.1-47-6-56.6-24.8c-6.5-12.6-9.2-26.2-10.1-40.1c-0.5-6.8,2.8-12.6,6.9-18
		c2.2-2.9,4.2-6.3,4.9-9.8c1-5.3-1.9-7.1-6.9-5.1c-5,2-6.3,6.5-7.5,11c-0.3,1.2-0.6,2.5-0.5,3.8c0.6,15-0.9,30,2.4,45
		c1.8,8.2,1.8,16.6-2.4,24.5c-2.7,5.1-5.9,6.1-10.6,2.8c-4-2.8-7.5-6.4-11.7-8.8c-3-1.7-6.6-2.7-10.1-3.1c-2.4-0.2-3.6-0.9-4.3-2.9
		c-3.2-8.2-8.4-14.9-14.9-20.8c-3.2-2.9-6.3-6.2-8.8-9.7c-4.4-6.1-4.6-12.9-0.9-19.3c11.6-20.2,27.5-35.7,49.9-43.4
		c4.2-1.4,8.9-1.7,13.4-1.9c8.5-0.4,17.1-0.1,25.6-0.8c16.2-1.3,28.9,4.2,37.6,18c3.4,5.4,7.5,10.5,10.2,16.3
		c3.3,6.9,2.1,14.5,0.9,21.7c-1.6,9.3,0.9,16.8,7.4,23.6c4.4,4.7,7.9,10.3,11.7,15.6C341,128.9,341,129.6,341.1,130.2z"/>
	<path style="clip-path:url(#SVGID_00000089575365246967322900000003443381921798581912_);fill:#FFFFFF;" d="M167.3,316.6
		c0.9,5.4,1.6,9.9-0.4,14.6c-4.5,11.2-6.7,22.8-5.7,34.9c0.5,6.5,3.3,12.2,6.9,17.3c4.6,6.6,4.5,13.7,3.5,21
		c-0.2,1.4-1.6,3.2-2.8,3.7c-8.4,3.4-15.5,8.8-22.6,14.2c-5.5,4.2-12.1,4.8-18.6,1.9c-6.7-3-8.4-9.9-4.2-15.9
		c4-5.6,9.9-6.6,16.1-7.5c3.4-0.5,7.1-1.5,10-3.2c3.9-2.3,4.1-5.4,1.6-9.2c-0.8-1.2-1.7-2.3-2.7-3.2c-10.7-9.6-11.5-21.9-9.6-35
		c1.3-9.1,6-16.2,13.2-21.8C156.8,324.5,161.8,320.8,167.3,316.6"/>
	
		<path style="clip-path:url(#SVGID_00000089575365246967322900000003443381921798581912_);fill:none;stroke:#000000;stroke-miterlimit:10;" d="
		M167.3,316.6c0.9,5.4,1.6,9.9-0.4,14.6c-4.5,11.2-6.7,22.8-5.7,34.9c0.5,6.5,3.3,12.2,6.9,17.3c4.6,6.6,4.5,13.7,3.5,21
		c-0.2,1.4-1.6,3.2-2.8,3.7c-8.4,3.4-15.5,8.8-22.6,14.2c-5.5,4.2-12.1,4.8-18.6,1.9c-6.7-3-8.4-9.9-4.2-15.9
		c4-5.6,9.9-6.6,16.1-7.5c3.4-0.5,7.1-1.5,10-3.2c3.9-2.3,4.1-5.4,1.6-9.2c-0.8-1.2-1.7-2.3-2.7-3.2c-10.7-9.6-11.5-21.9-9.6-35
		c1.3-9.1,6-16.2,13.2-21.8C156.8,324.5,161.8,320.8,167.3,316.6z"/>
	<path style="clip-path:url(#SVGID_00000089575365246967322900000003443381921798581912_);fill:#FFFFFF;" d="M171,309.1
		c-0.5-1.9-0.8-2.9-0.9-3.8c-3.6-31.2-4.1-62.3,1.3-93.4c3.1-17.7,6.2-35.4,9.9-53c1-4.8,3.6-9.7,6.7-13.5
		c4.5-5.4,10.1-9.9,15.2-14.7c0.5,0.3,1,0.6,1.5,0.9c-0.6,1.7-0.8,3.8-2,4.9c-15,14.3-21.6,32.3-23.2,52.6
		c-1.3,17.5,1.1,34.6,5.1,51.6c3.1,13,5,26.3,2.3,39.7C184.9,291.4,179.8,300.7,171,309.1"/>
	
		<path style="clip-path:url(#SVGID_00000089575365246967322900000003443381921798581912_);fill:none;stroke:#000000;stroke-miterlimit:10;" d="
		M171,309.1c-0.5-1.9-0.8-2.9-0.9-3.8c-3.6-31.2-4.1-62.3,1.3-93.4c3.1-17.7,6.2-35.4,9.9-53c1-4.8,3.6-9.7,6.7-13.5
		c4.5-5.4,10.1-9.9,15.2-14.7c0.5,0.3,1,0.6,1.5,0.9c-0.6,1.7-0.8,3.8-2,4.9c-15,14.3-21.6,32.3-23.2,52.6
		c-1.3,17.5,1.1,34.6,5.1,51.6c3.1,13,5,26.3,2.3,39.7C184.9,291.4,179.8,300.7,171,309.1z"/>
	<path style="clip-path:url(#SVGID_00000089575365246967322900000003443381921798581912_);fill:#FFFFFF;" d="M252.3,123.7
		c1.3,2.7,2.5,5.6,4,8.3c5.9,11,14.7,19.1,26.4,24.1c3.4,1.5,3,2.7,0.8,4.7c-3.8,3.4-8.4,5.3-13.5,5.6c-15.2,0.9-28.4-4.4-40.9-12
		c-6.3-3.8-11.8-8.4-15.3-14.9c-0.5-1-1-2-1.6-3.2c3.3-1.7,6-0.3,8.4,1.1c3.6,2.2,6.8,4.9,10.1,7.4c9.2,7.1,14.5,5.9,18.4-4.8
		C250.9,134.9,251.2,129.3,252.3,123.7"/>
	
		<path style="clip-path:url(#SVGID_00000089575365246967322900000003443381921798581912_);fill:none;stroke:#000000;stroke-miterlimit:10;" d="
		M252.3,123.7c1.3,2.7,2.5,5.6,4,8.3c5.9,11,14.7,19.1,26.4,24.1c3.4,1.5,3,2.7,0.8,4.7c-3.8,3.4-8.4,5.3-13.5,5.6
		c-15.2,0.9-28.4-4.4-40.9-12c-6.3-3.8-11.8-8.4-15.3-14.9c-0.5-1-1-2-1.6-3.2c3.3-1.7,6-0.3,8.4,1.1c3.6,2.2,6.8,4.9,10.1,7.4
		c9.2,7.1,14.5,5.9,18.4-4.8C250.9,134.9,251.2,129.3,252.3,123.7z"/>
	<path style="clip-path:url(#SVGID_00000089575365246967322900000003443381921798581912_);fill:#FFFFFF;" d="M209,138.6
		c5.1,9,12.6,15.3,21.5,20.3c9.4,5.3,19.4,9,30.2,10.4c9.2,1.2,17.6-0.5,25.5-7c-0.8,4.9-3.2,8-6.7,9.7c-4.7,2.3-9.8,4.5-15,5.3
		c-17.3,2.7-33.1-0.9-45.7-13.2C211.8,157.3,209.1,148.3,209,138.6"/>
	
		<path style="clip-path:url(#SVGID_00000089575365246967322900000003443381921798581912_);fill:none;stroke:#000000;stroke-miterlimit:10;" d="
		M209,138.6c5.1,9,12.6,15.3,21.5,20.3c9.4,5.3,19.4,9,30.2,10.4c9.2,1.2,17.6-0.5,25.5-7c-0.8,4.9-3.2,8-6.7,9.7
		c-4.7,2.3-9.8,4.5-15,5.3c-17.3,2.7-33.1-0.9-45.7-13.2C211.8,157.3,209.1,148.3,209,138.6z"/>
	<path style="clip-path:url(#SVGID_00000089575365246967322900000003443381921798581912_);fill:#FFFFFF;" d="M292.5,394.5
		c-2.6-9.8-2.6-51.4-0.1-58.6C308.3,343.7,308.5,379.8,292.5,394.5"/>
	
		<path style="clip-path:url(#SVGID_00000089575365246967322900000003443381921798581912_);fill:none;stroke:#000000;stroke-miterlimit:10;" d="
		M292.5,394.5c-2.6-9.8-2.6-51.4-0.1-58.6C308.3,343.7,308.5,379.8,292.5,394.5z"/>
	<path style="clip-path:url(#SVGID_00000089575365246967322900000003443381921798581912_);fill:#FFFFFF;" d="M296.2,251.8
		c-1.5-10-2.7-19.6-4.6-29.1c-1.6-8-4.3-15.8-6.4-23.7c-1.8-6.9-3.5-13.8-1.2-20.8c0.4-1.2,1.5-2.1,2.3-3.1c0.8,0.9,1.9,1.6,2.4,2.6
		c4.6,8.4,7.6,17.6,8,27c0.7,15.4,0.2,30.8,0.1,46.3C296.8,251,296.5,251.2,296.2,251.8"/>
	
		<path style="clip-path:url(#SVGID_00000089575365246967322900000003443381921798581912_);fill:none;stroke:#000000;stroke-miterlimit:10;" d="
		M296.2,251.8c-1.5-10-2.7-19.6-4.6-29.1c-1.6-8-4.3-15.8-6.4-23.7c-1.8-6.9-3.5-13.8-1.2-20.8c0.4-1.2,1.5-2.1,2.3-3.1
		c0.8,0.9,1.9,1.6,2.4,2.6c4.6,8.4,7.6,17.6,8,27c0.7,15.4,0.2,30.8,0.1,46.3C296.8,251,296.5,251.2,296.2,251.8z"/>
	<path style="clip-path:url(#SVGID_00000089575365246967322900000003443381921798581912_);fill:#FFFFFF;" d="M166.6,453.9
		c3.7,0.3,6.9,0.3,10.2,0.8c12,1.7,21.3-2.1,27.4-12.5c0.3-0.5,0.7-1,1.1-1.6c4.4,8.7-2.6,20.6-13.1,21.8c-5.6,0.7-11.4,0.4-17.1,0
		C170.6,462.3,167.5,458.9,166.6,453.9"/>
	
		<path style="clip-path:url(#SVGID_00000089575365246967322900000003443381921798581912_);fill:none;stroke:#000000;stroke-miterlimit:10;" d="
		M166.6,453.9c3.7,0.3,6.9,0.3,10.2,0.8c12,1.7,21.3-2.1,27.4-12.5c0.3-0.5,0.7-1,1.1-1.6c4.4,8.7-2.6,20.6-13.1,21.8
		c-5.6,0.7-11.4,0.4-17.1,0C170.6,462.3,167.5,458.9,166.6,453.9z"/>
	<path style="clip-path:url(#SVGID_00000089575365246967322900000003443381921798581912_);fill:#FFFFFF;" d="M340.2,136.9
		c0.1,4.1-6,10.8-10,11.4c-3.5,0.5-10.4-4.4-11.2-8.1c-0.2-0.9-0.2-2-0.1-3c0.6-4,5.7-7.5,11.2-7.9c4.1-0.3,8.7,2.4,9.9,6
		C340.1,136,340.2,136.6,340.2,136.9"/>
	
		<path style="clip-path:url(#SVGID_00000089575365246967322900000003443381921798581912_);fill:none;stroke:#000000;stroke-miterlimit:10;" d="
		M340.2,136.9c0.1,4.1-6,10.8-10,11.4c-3.5,0.5-10.4-4.4-11.2-8.1c-0.2-0.9-0.2-2-0.1-3c0.6-4,5.7-7.5,11.2-7.9
		c4.1-0.3,8.7,2.4,9.9,6C340.1,136,340.2,136.6,340.2,136.9z"/>
	<path style="clip-path:url(#SVGID_00000089575365246967322900000003443381921798581912_);fill:#FFFFFF;" d="M296.8,450.9
		c2.1-8-1.5-13.4-5.8-18.7c-6.7-8.2-7-15.2-0.8-25.5c2,7.8,3.4,15.2,5.7,22.2c2.3,7.1,5.6,13.8,8.8,21.6
		C301.7,450.7,299.7,450.8,296.8,450.9"/>
	
		<path style="clip-path:url(#SVGID_00000089575365246967322900000003443381921798581912_);fill:none;stroke:#000000;stroke-miterlimit:10;" d="
		M296.8,450.9c2.1-8-1.5-13.4-5.8-18.7c-6.7-8.2-7-15.2-0.8-25.5c2,7.8,3.4,15.2,5.7,22.2c2.3,7.1,5.6,13.8,8.8,21.6
		C301.7,450.7,299.7,450.8,296.8,450.9z"/>
	<path style="clip-path:url(#SVGID_00000089575365246967322900000003443381921798581912_);fill:#FFFFFF;" d="M171.7,381
		c-11.2-14.3-7.9-29.6-3.7-44.9c0.4,0,0.8-0.1,1.2-0.1C170,351,170.9,366,171.7,381"/>
	
		<path style="clip-path:url(#SVGID_00000089575365246967322900000003443381921798581912_);fill:none;stroke:#000000;stroke-miterlimit:10;" d="
		M171.7,381c-11.2-14.3-7.9-29.6-3.7-44.9c0.4,0,0.8-0.1,1.2-0.1C170,351,170.9,366,171.7,381z"/>
	<path style="clip-path:url(#SVGID_00000089575365246967322900000003443381921798581912_);fill:#FFFFFF;" d="M288.8,328.2
		c-6.2-5.3-6.9-9.3-3.9-15.6c2.4-5.1,4.6-10.4,7.2-16.3C291,307.1,290,317.3,288.8,328.2"/>
	
		<path style="clip-path:url(#SVGID_00000089575365246967322900000003443381921798581912_);fill:none;stroke:#000000;stroke-miterlimit:10;" d="
		M288.8,328.2c-6.2-5.3-6.9-9.3-3.9-15.6c2.4-5.1,4.6-10.4,7.2-16.3C291,307.1,290,317.3,288.8,328.2z"/>
	<path style="clip-path:url(#SVGID_00000089575365246967322900000003443381921798581912_);fill:#FFFFFF;" d="M258.8,310.4
		c-1-10.4-4-20.7-1.6-31.3c0.6-0.2,1.2-0.3,1.7-0.5c0.7,2.1,2.1,4.3,2.1,6.4c-0.1,8.5-0.6,17-0.9,25.5
		C259.7,310.5,259.2,310.4,258.8,310.4"/>
	
		<path style="clip-path:url(#SVGID_00000089575365246967322900000003443381921798581912_);fill:none;stroke:#000000;stroke-miterlimit:10;" d="
		M258.8,310.4c-1-10.4-4-20.7-1.6-31.3c0.6-0.2,1.2-0.3,1.7-0.5c0.7,2.1,2.1,4.3,2.1,6.4c-0.1,8.5-0.6,17-0.9,25.5
		C259.7,310.5,259.2,310.4,258.8,310.4z"/>
	<path style="clip-path:url(#SVGID_00000089575365246967322900000003443381921798581912_);fill:#FFFFFF;" d="M206.1,424.3
		c-1.5-7.5-3.1-14.9-4.4-22.4c-0.2-1,0.9-3.2,1.5-3.2c1.1-0.1,2.6,0.7,3.5,1.6c0.7,0.8,1.2,2.2,1.2,3.4c0.1,6.8,0.1,13.6,0.1,20.4
		C207.3,424.1,206.7,424.2,206.1,424.3"/>
	
		<path style="clip-path:url(#SVGID_00000089575365246967322900000003443381921798581912_);fill:none;stroke:#000000;stroke-miterlimit:10;" d="
		M206.1,424.3c-1.5-7.5-3.1-14.9-4.4-22.4c-0.2-1,0.9-3.2,1.5-3.2c1.1-0.1,2.6,0.7,3.5,1.6c0.7,0.8,1.2,2.2,1.2,3.4
		c0.1,6.8,0.1,13.6,0.1,20.4C207.3,424.1,206.7,424.2,206.1,424.3z"/>
	<path style="clip-path:url(#SVGID_00000089575365246967322900000003443381921798581912_);fill:#FFFFFF;" d="M259.9,334.7
		c0.4,16.5,0.8,33,1.3,49.5c-0.4,0-0.8,0-1.1,0.1C257.7,367.9,258,351.3,259.9,334.7"/>
	
		<path style="clip-path:url(#SVGID_00000089575365246967322900000003443381921798581912_);fill:none;stroke:#000000;stroke-miterlimit:10;" d="
		M259.9,334.7c0.4,16.5,0.8,33,1.3,49.5c-0.4,0-0.8,0-1.1,0.1C257.7,367.9,258,351.3,259.9,334.7z"/>
	<path style="clip-path:url(#SVGID_00000089575365246967322900000003443381921798581912_);fill:#FFFFFF;" d="M249.3,76.2
		c-2-5.4-0.1-13.5,3.7-15.9c1-0.7,2.6-0.5,3.9-0.8c0.1,1.3,0.8,3,0.3,3.9C254.8,67.7,252.1,71.8,249.3,76.2"/>
	
		<path style="clip-path:url(#SVGID_00000089575365246967322900000003443381921798581912_);fill:none;stroke:#000000;stroke-miterlimit:10;" d="
		M249.3,76.2c-2-5.4-0.1-13.5,3.7-15.9c1-0.7,2.6-0.5,3.9-0.8c0.1,1.3,0.8,3,0.3,3.9C254.8,67.7,252.1,71.8,249.3,76.2z"/>
</g>
</svg>
