<?xml version="1.0" encoding="UTF-8"?>
<svg xmlns="http://www.w3.org/2000/svg" version="1.1" viewBox="0 0 400 400">
  <defs>
    <style>
      .cls-1, .cls-2, .cls-3 {
        stroke: #153448;
        stroke-miterlimit: 10;
      }

      .cls-1, .cls-4 {
        fill: #fcfafc;
      }

      .cls-5 {
        fill: #153448;
      }

      .cls-6 {
        fill: #020202;
      }

      .cls-2 {
        stroke-width: 3px;
      }

      .cls-2, .cls-3 {
        fill: #050606;
      }

      .cls-3 {
        stroke-width: 2px;
      }
    </style>
  </defs>
  <!-- Generator: Adobe Illustrator 28.6.0, SVG Export Plug-In . SVG Version: 1.2.0 Build 709)  -->
  <g>
    <g id="Layer_1">
      <path class="cls-5" d="M185.2,86.8c1-9.5,4.7-35.9,17.4-35.2,14.9,5.3,25.4,19.6,31.3,33.8,6.1,14.7,8,30.8,8,46.5-1.6.9-4.6,2.7-6.2,3.6-.4-2.8-.9-5.8-1.6-8.6-.5-1.6-.8-3.3-1.8-4.5,0,0,0,0,.3,0l1.4-1.3c-.5,6.2-1.4,12.6-.9,18.7,0,0-1,2.1-1,2.1-.5.1-1.1.4-1.7.6-2.8,1.1-4.9,3.8-6.7,6.1-.7-5-1-10.3-2.4-15.2,0,.1.4.4.6.5,0,0,1.9-1.1,1.9-1.1-1.2,6.3-2.8,13-3.4,19.1,0,0-2.9.7-2.9.7-.5-2.2-1.6-4.3-2.6-6.6v-.3c-.1,0-.1-.4-.1-.4,0-5.5.3-11.5-1.6-16.8-.1-.3-.3-.4-.3-.4,0,0,.2,0,.2,0,0,0,.1,0,0,0l.8-1.2c-.6,6.3-1.4,12.5-2.8,18.7-.4,1.6-.8,3.2-1.6,4.8-.5.8-.9,1.5-2.2,1.8-1.1,0-3.7.1-4.8.2,0-3,0-6.1-.1-9.1-.1-2.4-.2-5-.6-7.3,0,0,3-.4,3-.4.5,7.5-2.1,14.9-11,13.9,3-19.6,4-39.5,6-59.3.8-6.4,1.1-12.9,3-19.1-.9,3.1-.9,6.4-1.2,9.6-.7,11.2-.9,22.5-1.1,33.8-.3,11.3-2.1,22.6-3.5,33.8,0,0-1.4-1.7-1.4-1.7,1.2,0,2.3-.2,3.1-.8,3-2.1,3.3-6.6,3.1-9.9,0,0,3-.4,3-.4.2,1.4.4,2.6.5,3.9.3,3.8.3,7.7.4,11.5,0,0-1.5-1.5-1.5-1.5h3.1c0-.1-.1,0-.1,0-.3,0-.3.2-.3,0,.9-1.3,1.2-2.9,1.6-4.4,1.4-6.2,2.2-12.7,2.8-19.1.6-.3,1.1-.7,2-.7,5.4-.2,4.6,16.3,4.7,20.2,0,0-.1-.7-.1-.7,1,2.2,2.2,4.5,2.8,7.1,0,0-2.9.7-2.9.7-.2-1.9.3-3.7.5-5.6.9-5.5,2.1-11.1,3.2-16.6.3.1,1.8.6,2,.8.3.2.6.6.7.9,1.4,4.1,1.7,8.5,2.3,12.7,0,0-2.6-.8-2.6-.8,2.1-2.5,4.7-4.2,7.8-5.1,0,0-1,2.1-1,2.1-.2-.5-.3-1.2-.4-1.7-.3-6.2.4-12.4,1-18.6,0,0,.1-1.3.1-1.3h1.3c4.3-.2,5.4,10.2,6,13.4,0,0-2.2-1.1-2.2-1.1l3.5-2s-.7,1.3-.7,1.3c0-15.1-2-30.5-7.7-44.5-5.6-13.7-15.5-26.4-29.3-32.4-10,.5-14.8,23.5-16.6,32.7h0Z"/>
      <path class="cls-5" d="M186.7,78.3c-2.5-.9-5-1.1-7.6-1.3-4.2-.2-8.5,0-12.7.2-6.2.3-14.7,1.2-20.9,1.1,10.4-5,32.1-8.5,41.2,0h0Z"/>
      <path class="cls-5" d="M148.4,76.7c-1.4-3.5-5-14.4-9.7-13.4-3.8.2-8.3.2-11.7,1.9,0,0,.9-1.6.9-1.6,0,5.7.2,11.5.7,17.2.6,5.7,1.2,11.5,4.1,16.6-7.7-7.5-8.8-24.6-8.7-35,4.5-2.9,9.8-2.6,14.8-2.5,6.9-.3,9.4,10.6,9.6,16.8h0Z"/>
      <path class="cls-5" d="M136.1,72.7c2.4,3.5,4.6,7.2,6.8,10.8-2.6,5.1-5.5,10.3-7.5,15.7-.3,1-.8,2.2-.8,3.1,0,0,0,0,0-.1,0,0,0,0,0,0,1.2,3.9-5.2,9.2-7.8,11.5-8.8,7.2-19.3,12-30.1,15.3-2.7.9-5.4,1.5-8.1,2.3-4.6.8-9.4.7-14.1.6,4.5-1.4,8.7-3.1,13.1-4.5,2.7-.5,5.3-1.3,7.9-2.1,10.3-3.2,20.4-7.8,28.7-14.6,2.4-2.1,5.2-4.5,6.5-7.4,0,0,0-.2,0,0,0,.1,0,.3,0,.4-.4-.8-.2-2.2,0-2.8,1.7-6.5,5-12.3,8.2-18.2,0,0,0,1.7,0,1.7-1-3.9-2-7.7-2.8-11.6h0Z"/>
      <path class="cls-5" d="M58.8,133.9c-3.9.8-1.6,6.5-.6,8.9,1.3,3.2,3.1,6.2,4.9,9.2,0,0-.4-.4-.4-.4,7.8,3.5,10.2-4,10.2-10.4,0-3.4-.1-6.8-.8-10-.5-2.1-1-4.6-2.5-6-.5-.5-.9-.1-1.5-.2-13.2-1.5-27.6-1.1-39.6,5.2-1.6.9-3.2,2-4.6,3.2,0,0,.5-.8.5-.8-2.2,6.9-2.9,17,4.6,20.8,2.3,1.2,5,1.7,7.7,1.9h-.3c6.3-1.9,6.7-7,3-12-1-1.5-2.2-2.8-3.5-4.2,2.8,2.4,5.6,5,6.7,8.7,1,2.9-.5,6.1-3.1,7.7-.8.6-1.7,1-2.7,1.4,0,0-.2,0-.2,0-15.6.5-19.5-12.6-15.7-25.6,0,0,.1-.4.1-.4,0,0,.4-.3.4-.3,9.5-8.3,22.7-10.4,34.9-10.4,4.1,0,8.1.3,12.2.9,0,0-.6,0-.6,0,1.3-.3,3,.2,4,1.2,4.2,4.3,4.3,13.4,4,19-.3,5.4-2.2,13-8.8,13.4-2.1,0-4.1-.5-5.9-1.5-.8-1.7-1.7-3.3-2.4-5-1.3-3-5.8-13.6-.2-14.3h0Z"/>
      <path class="cls-5" d="M61.7,153.6c-3.5,8.1-15.8,8.9-21.3,2.4,3.1,0,5.9.5,9,.4,4.3-.2,8.1-1.2,12.3-2.9h0Z"/>
      <path class="cls-5" d="M33.4,158.4c2.7,8.6,7.6,16.6,16.2,19.9,2.7,1.1,5.7,1.9,8.9,2.7-14.3,4.1-27.6-7.9-25.1-22.5h0Z"/>
      <path class="cls-5" d="M49.6,161.2c5,35.4,39.7,17.8,59.1,5.6,12.8-6.8,34.8-19.9,35.1-36.1,1.6,13.6-11.7,25-21.7,32.3-3.4,2.4-8.3,5.4-11.4,7-8.2,5.3-16.9,10.1-26.3,13.1-9.3,3-21.4,4.1-28.8-3.6-4.7-4.9-6.4-11.8-6.1-18.3h0Z"/>
      <path class="cls-5" d="M152.3,136.8c-3.8-3.2-8.3-4.6-13-6-.7-.2-1.4-.4-2.2-.7,1.4-.6,3-.9,4.5-1,4.6,0,10,2.8,10.6,7.7h0Z"/>
      <path class="cls-5" d="M114.1,168.7c8.7,3.3,24.5-10.2,31.5-15.3,3.3-2.5,6.5-5.1,10-7.4-2.4,3.5-5,6.8-8,9.8-6.7,6.7-14.7,12.9-24.2,14.8-3.1.4-7,.5-9.4-1.9h0Z"/>
      <path class="cls-5" d="M192.6,147.4c-2.3,14.7-2.7,37.1,14,43.2,1.3.5,3,.8,4.4,1.1,6.9,1.5,13.4,4.7,19.4,8.2,16.6,9.8,30.4,23.2,45.2,35.3,2.3,1.7,4.3,3.5,6.9,4,3.5,1.1,6.6,3,9.6,4.9,12.1,8,30.5,23.8,30.4,39.4-1.2-14.9-20-29.4-32-36.8-3.1-1.8-6.1-3.6-9.6-4.4-4.9-1.6-8.6-5.3-12.6-8.3-13-10.7-25.6-22.1-39.9-30.9-5.3-3.2-10.8-6.1-16.8-7.9-2-.6-4.2-1-6.2-1.8-17.9-7.1-17.2-30.5-13-46.1h0Z"/>
      <path class="cls-5" d="M295.5,301.3c5.8,5.3,12.1,10.3,19.5,13.1,8.6,4.9,8.4,11.8-1.2,15.1-13.7,1-27.4,1.6-41.1,1.7-4.6,0-9.1,0-13.7-.4,0,0,.7-.1.7-.1-1.4.9-1.9,3.1-2,4.9,0,1,0,2,0,3-2.1.7-4.2,1.2-6.4,1.4-4.1.5-9.1-.7-8.4-5.9.3-1.9,1-3.7,1.8-5.4-.6,1.8-1.2,3.6-1.2,5.4-.2,6.9,8.8,4.4,12.8,2.8,0,0-.6,1-.6,1-.4-2.5-.5-5.1.6-7.5.5-1,1.3-2,2.4-2.5,0,0,.4,0,.4,0,12.9,0,27.6-1.2,40.6-1.6,4.5-.2,9.1-.4,13.6-.5,0,0-.5.1-.5.1,3.2-1.1,7.4-2.9,3.9-6.6-.8-1-2-1.9-3-2.6h.2c-7.5-3.4-13.4-9.1-18.4-15.4h0Z"/>
      <path class="cls-5" d="M238.4,327.2c-1.7,3.5-4.3,7.3.8,8.9,1.2.5,2.6.8,4,1.3-1.4.4-2.9.5-4.4.2-6.8-1-5.2-7.7-.5-10.4h0Z"/>
      <path class="cls-5" d="M298.9,279.8c-7.3-9.8-20-17.3-31.9-13-13.6,6.9-16.5,22.5-12.9,36.2,0,0-.5-.9-.5-.9,5,4.8,11.6,7.7,18.1,10.2,5.1,1.8,10.7,3.2,16.1,4.2,0,0-.7,3.7-.7,3.7-10.5-2.2-21.4-3.7-32.2-3.3-10.1.3-23.8,3.1-24.4,15.3-.9,2.3,1.5,3.8,3.6,4-1.1-.1-2.2-.3-3.1-1-1-.6-1.3-2.4-1-3.1,0-2.8.6-5.7,2.2-8.1,7.7-11.1,27.2-10.5,39.3-9.8,5.5.5,11,1.2,16.5,2.3l-.7,3.7c-12.9-2.3-27.2-6.5-36.7-15.9-4.1-15.5-.2-33.2,15.6-40.2,13.2-4,26.1,4.4,32.8,15.6h0Z"/>
      <path class="cls-5" d="M192.9,280.5c18.8,6.7,37.6,15.2,56.8,20.8-18.9.3-41.8-9.7-56.8-20.8h0Z"/>
      <path class="cls-5" d="M229.1,298.9c-4.1,11.1,2.6,15.3,13,14.6,0,0-.1,1.7-.1,1.7-7.2-.9-26.5-2.8-23.6,9.1,0,0-.1-.3-.1-.3.4.6,1.1,1.2,1.4,1.1.4,0,1-.5,1.4-1.3.9-1.5,1.4-3.4,1.9-5.1,0,0,1.5.5,1.5.5-.8,2.1-1.6,4.3-1.6,6.5,0,.4.2.7.3.7.5.2,1.5-.4,2-.7,1.7-1,3.3-2.4,4.2-4.2,0,0,.4.2.4.2-1.1,1.6-3.9,6.3.3,5.3-.3,0-.6.2-1,.2-1.4.2-1.7-1-1.4-2.1.3-1.3,1-2.5,1.6-3.7l.4.2c-.8,2-2.5,3.6-4.1,4.8-4.7,3.4-4.5-1.8-3.5-5.1.2-.9.5-1.8.8-2.7l1.5.5c-.6,2.4-1.1,5.1-2.9,7-1.6,1.7-4,.5-5-1.2-2.1-7.1,3.2-11,9.5-11.9,5.4-.8,10.8-.4,16.2.5,0,0-.1,1.7-.1,1.7-11,.4-18.6-5-13.1-16.3h0Z"/>
      <path class="cls-5" d="M186.8,248.6c2.8,2.5,5.4,5.1,7.9,7.9,2.5,3,5,5.8,6.2,9.7,0,0,.7,2.2.7,2.2,0,0-2.3-.9-2.3-.9-2-.8-4.2-1.3-6.4-1.8,0,0,1.5-2,1.5-2,1.4,2.7,2.8,5.3,3.5,8.3.2.8.1,1.6-.3,2.5-.4.3-.8.6-1.3.7-1.3.4-2.8.2-4.1-.1,0,0,2.1-1.3,2.1-1.3-1.3,8.3-1.4,17-.8,25.5.7,8.5,2.2,16.9,4.8,25.1,0,0,0-.2,0-.2.4,1,.5,1.7.6,2.7-.2,12.3-17.3,15.2-26.7,16.4,0,0-.3,0-.3,0-1.1-.4-2.1-1-3-1.6-5.3-3.9-2.7-9.7,1.4-13.3,1.4-1.3,3-2.5,4.6-3.7-1.5,1.3-2.9,2.6-4.2,4.1-4.3,4.6-5.5,10.2,1.6,12.7,0,0-.4,0-.4,0,2.7-.5,5.5-1.2,8.1-1.9,6.4-1.8,17.4-6.4,14.9-13.9-2.9-8.4-4.6-17.1-5.2-25.9-.6-9.5-.2-18.9,1.8-28.2,1.2.3,2.9,1,4.1.8,0,0,0,0-.1,0,0,0-.5.7-.5.7,0,.2,0,.1,0,0,0,0,0-.2,0-.4-.7-3.5-2.6-7-4.1-10.3,3.2.9,6.5,1.7,9.5,3.2,0,0-1.6,1.3-1.6,1.3-2.2-6.9-7.5-12.6-12-18.2h0Z"/>
      <path class="cls-5" d="M170.4,320.3c-3.5,2-10,4.5-10,9,.4,2.8,2.7,4.9,4.6,7.1-1.9-.8-3.7-2-5.1-3.7-5.3-6.8,4.5-12.1,10.4-12.3h0Z"/>
      <path class="cls-5" d="M155.7,253.5c2.3,12.2,3.8,24.8,4.6,37.2.3,4.5.4,9.1.1,13.6-3.3-.5-7.8-.9-10,2-.6.8-.8,1.8-.7,2.9l-.7-.7,6.8.2v1c-4.8.4-9.3,3-5.8,8.2-4.3-5.2.7-8.5,5.7-9.2,0,0,0,1,0,1l-6.8.2h-.7c-.2-1.5-.1-3.1.8-4.5,2.3-3.4,6.9-3.5,10.6-3.2,0,0-1.1.9-1.1.9.2-16.1-1.9-33.6-2.8-49.7h0Z"/>
      <path class="cls-5" d="M157.8,313c-3.9,2.6-11.4,8.6-4.8,11.5,1.9,0,6.6.3,7-2.1,0,0,.4.8.4.8-4.8-5.3,8.1-10.2,11.7-11.6,0,0-.8.8-.8.8,1.1-3.7,1.8-7.8,2.2-11.8.8-8,.7-16.1-.5-24.1-.6-4-1.3-7.9-2.4-11.8l.8,1.1c-6.5-4.5-12.5-9.5-18-15.1-5.5-5.6-10.7-11.8-14.1-19-1.7-3.6-2.9-7.6-3.1-11.8,0-4.1.7-7.9,1.5-11.8,1.5-7.4,4.8-15.8,8.1-21.8,1.8-7,1.5-14.6,1.1-21.8-.1-1.8-.4-5.6-.6-7.4.4,1.8,1,5.5,1.3,7.3.9,7.5,1.7,15.1.2,22.5-3.3,6.9-5.7,14.3-7.1,21.8-.6,3.6-1.2,7.4-1.1,11.1.2,3.5,1.3,7.1,3,10.4,6.9,13.3,19,23.7,30.9,32.5,0,0,.6.4.6.4,1.1,4.3,2,8.6,2.5,13,1.5,12.7.9,25.7-3.1,37.9-2.9,1-12.3,3.8-12.3,7.3,0,0,0,.2.1.3,0,0,.1.2.1.2,0,0,.4.8.4.8-.7,4-6,3.5-9,3.3-8.4-4,0-10.5,4.9-12.9h0Z"/>
      <g>
        <circle class="cls-4" cx="149.6" cy="110.9" r="10.3"/>
        <path class="cls-5" d="M139.5,110.9c-.3,5.4,5,9.8,10.1,9.3,7.7-.2,11.8-10,5.9-15.2-5.2-5-15.9-1.9-16,5.9h0ZM139.1,110.9c-.4-10.7,11.5-16.6,19.2-8.7,4.4,4.7,4.3,12.6-.5,16.9-7.5,6.8-18.5,1.5-18.8-8.2h0Z"/>
      </g>
      <g>
        <circle class="cls-6" cx="153.5" cy="116" r="3.4"/>
        <path class="cls-5" d="M150.3,116c-.2,3.4,5.4,3.1,5,0-.2-.9-1.1-1.1-1.8-1.4-1.1-.5-3-.4-3.2,1.4h0ZM149.9,116c-.3-2.2.8-5.2,3.6-5.4,4.6-.4,6.7,6,3.3,8.7-3.2,2.5-6.7.4-6.9-3.3h0Z"/>
      </g>
      <g>
        <circle class="cls-4" cx="129.7" cy="110" r="7.5"/>
        <path class="cls-5" d="M122.4,110c-.3,3.9,3.7,6.9,7.3,6.5,7.8-.8,7.9-11.3,0-12-3.2-.4-7.2,1.7-7.3,5.5h0ZM122,110c-.5-8.1,8.4-12.9,14.4-6.7,3.3,3.6,3.2,9.7-.5,12.9-5.7,5.1-13.7,1-13.9-6.2h0Z"/>
      </g>
      <g>
        <circle class="cls-6" cx="132.5" cy="113.7" r="2.5"/>
        <path class="cls-5" d="M130.9,115.3c1.4,1.8,4-1.2,2.2-2.2-.2-.1-.5,0-.6.1-.1.1-.1.2-.3.2-.9-.2-2,.9-1.3,1.9h0ZM130.6,115.6c-5-3.6.9-9.1,4.7-4.7,2.8,3.6-1.1,7.9-4.7,4.7h0Z"/>
      </g>
      <ellipse class="cls-2" cx="62.5" cy="136.5" rx="6" ry="3.6"/>
      <ellipse class="cls-3" cx="30.7" cy="142.7" rx="6" ry="3.6"/>
      <circle class="cls-1" cx="154.6" cy="117.1" r="1.1"/>
      <circle class="cls-1" cx="133.3" cy="114.6" r=".8"/>
      <g>
        <path class="cls-4" d="M153.8,100.6s-7.6-1.7-8.5-10.3"/>
        <path class="cls-5" d="M153.5,102.1c-5-1.7-8.3-6.6-8.2-11.8.8,3.9,3.5,7.4,7.4,8.6.5.2,1.1.3,1.5.3l-.6,2.9h0Z"/>
      </g>
      <g>
        <path class="cls-4" d="M132.5,102.3s-13.4.2-15.1-6.1"/>
        <path class="cls-5" d="M132.5,104.3c-5-.7-13.9-2.3-15.1-8.1,2.3,5,10.4,4.5,15,4.1,0,0,0,4,0,4h0Z"/>
      </g>
      <path class="cls-5" d="M324.7,282c16.8-11.5,10.5-40.6,5.1-57-1.3-4.7-5-8.4-9-11-8.6-5.3-19.5-4-28.6-.8-5.2,1.8-10.3,4.2-15.1,6.9-.4-.7-4.1-7.9-4.6-8.8,0,0-.5-.9-.5-.9,3.4-4.1,8-6.7,12.9-8.3,4.6-1.5,9.4-2,14.1-1.7l-.6,2.4c-11.2-4-24-.2-34.6,4.4,0-1,.1-5.2.2-6.3,1.6-1.5,3.3-2.7,5.2-3.8,5.3-3,11.4-4.5,17.4-4.2-7.9.1-15.9,3.1-21.5,8.6,0,0,.2-.4.2-.4v4.8c.1,0-.9-.7-.9-.7,5.4-2.6,11.1-4.6,17-5.7,6-1,12.4-1.3,18.2.9,0,0,6.2,2.7,6.2,2.7,0,0-6.9-.3-6.9-.3-6.7-.3-13.4,1-19.1,4.5-1.8,1.1-3.6,2.5-5,4,0,0,.2-1.6.2-1.6l4,7.5-2-.6c6.8-3.8,14.2-7,21.9-8.5,7.8-1.6,16.4-1.1,23.4,3.4,4.5,2.9,8.6,7.2,9.9,12.5,4.3,14.7,7.7,31.1,2.2,46-1.9,4.8-5,9.4-9.6,11.8h0Z"/>
      <path class="cls-5" d="M289.3,193.1c-5.8-1.9-12-3.6-18.1-2.8,0,0,0-.6,0-.6,0,0-.1-4.1-.1-4.1,0,0,0-.4,0-.4,1.1-.4,2.2-.7,3.3-.9,6.8-1.2,13.8-.2,20.4,1.6,0,0-1.4,1-1.4,1,0-8.1-3.8-16.9-13.1-16.2,0,0-2.7,0-2.7,0l1.6-2.2c2.3-3.1,6.5-4.2,10.2-3.9,10.4,1.2,18.8,8.1,26.3,14.6,0,0-2.4.6-2.4.6,2.5-9.2-4.1-14.4-12.1-16.9,1.2-1,6.3-5.5,7.6-6.7,0,0,.3-.3.3-.3,0,0,.4,0,.4,0,7.9,0,12.8,8,15.7,14.3,0,0-2,.8-2,.8l-4.2-14.1-.2-.6s.5-.3.5-.3l3.9-2.3s.5-.3.5-.3c4,5.1,7.4,11.1,8.1,17.6.2,2.1,0,4.2-.7,6.2,1.5-6.2-1.2-12.4-4.4-17.6-1.1-1.7-2.4-3.4-3.7-4.9h.9c0,.1-3.8,2.6-3.8,2.6,0,0,.3-.9.3-.9l4.7,14-2,.8c-2.7-5.3-6.9-12.2-13.4-12.5,0,0,.7-.3.7-.3,0,0-5.8,5.2-5.8,5.2,0,0-.4-2.3-.4-2.3,1.9.7,3.8,1.6,5.5,2.7,6.6,4.3,8.5,11.9,5.6,19.1,0,0-1.7-1.5-1.7-1.5-7.3-6.2-18.7-16-28.8-13.6-1.2.4-2.5,1.1-3.3,2.1,0,0-1.2-2.1-1.2-2.1,2.3,0,4.7.3,6.9,1.3,6.6,3.1,8.7,11,8.5,17.7,0,0,0,1.4,0,1.4,0,0-1.3-.4-1.3-.4-5.4-1.6-11.1-2.8-16.8-2.5-1.9.1-3.8.3-5.5.8,0,0,.4-.6.4-.6v4.1c-.1,0-.7-.5-.7-.5,6.2-.3,12.1,1.6,17.6,4h0Z"/>
      <path class="cls-5" d="M356.7,185.6c1.3-7.7-1.1-15.8-6.2-21.8,0,0,2.1-.6,2.1-.6-1.1,6.1-3,13.1-9,16.2,0,0-2.1,1-2.1,1,0-5.2.2-24.3-6.4-25.1,0,0,1.2-1.2,1.2-1.2-.1,7.8.1,15.8-2.4,23.2.2-.9.3-1.9.4-2.9.4-7.1,0-14.3-.5-21.5,8.7-1.1,9.8,12.1,10.4,18.2.2,2.3.2,4.6.2,6.9,0,0-2.1-1.4-2.1-1.4,5.5-3,7.1-10.8,8.4-16.5,0,0,1.5,2.1,1.5,2.1,4.9,6.5,7,15.4,4.3,23.2h0Z"/>
      <path class="cls-5" d="M316.5,313c5.5-5.4,5.7-12.6,2.2-19.2,3.7,0,7.4-.2,11.1-.5,6.1-.3,12.2-.8,18.2-1.8,2.9-.5,5.9-1.1,8.6-2.3,0,0,1,1.9,1,1.9-2.8,1.1-6,.9-8.7-.2-2.7-1.1-4.8-3-6.5-5.1,3.9,3.4,9.4,5.7,14.3,3.4,0,0,1,1.9,1,1.9-5.7,3.1-12.1,3.8-18.4,4.5-6.2.6-12.4.8-18.7.6,0,0,1.2-1.7,1.2-1.7,2.7,6.5.8,14.7-5.3,18.5h0Z"/>
      <path class="cls-5" d="M360.5,264.4c6.6-6.4,12.6-13.7,16.7-21.9,1.7-3.3,2.8-6.9,3.6-10.6,0,0,1.5,1.5,1.5,1.5,3.2,3,4.2,7.4,3.7,11.4-1.9,11.7-12.3,19.8-21.2,26.5,0,0-1.2-2.6-1.2-2.6,3.7-1,7.4-2,11.1-3l1-.3c1.2,1.8,2.1,3.7,2.2,5.9.5,5.9-5.9,8.9-10.9,9.6,0,0,.3-.1.3-.1-2,1.2-4,2.1-6.2,2.9-6.3,2.3-13.6,2.8-19.6-.3,6.2,2.4,13.1,1.4,19.1-1.1,2-.9,4-1.9,5.8-3.1,2.8-.7,6.1-1.7,7.9-4,1.7-2.1,1.1-5.3-.3-7.4,0,0,1.5.5,1.5.5-3.7,1.1-7.4,2.2-11.1,3.3l-7.8,2.2,6.5-4.8c8.1-6.2,18.1-13.9,20.1-24.5.5-3.3-.4-6.9-2.6-9.2,0,0,2-.6,2-.6-3.5,12.2-12.5,22-22.2,29.8h0Z"/>
      <path class="cls-5" d="M355.7,188c1.3-4.3,3.5-10.4,5.1-14.7,0,0,.4-1.3.4-1.3,5.6,6.3,10.4,13.2,14.1,20.8,2.6,5.4,4.6,11.3,5,17.4.2,6.1-1.1,11.9-2.2,17.8-2.4,10.6-6,24.8-14.8,31.7,9.4-9.5,12.2-30.8,13.9-43.7,1.8-14.9-7.9-30.2-16.2-41.9,0,0,1.4-.2,1.4-.2-1.9,4.2-4.6,10-6.5,14.1h0Z"/>
    </g>
  </g>
</svg>