<?xml version="1.0" encoding="UTF-8"?>
<svg xmlns="http://www.w3.org/2000/svg" version="1.1" viewBox="0 0 500 500">
  <defs>
    <style>
      .cls-1, .cls-2 {
        fill: none;
      }

      .cls-3 {
        fill: #dfd0b8;
      }

      .cls-2 {
        stroke: #dfd0b8;
        stroke-miterlimit: 10;
        stroke-width: 3px;
      }
    </style>
  </defs>
  <!-- Generator: Adobe Illustrator 28.6.0, SVG Export Plug-In . SVG Version: 1.2.0 Build 709)  -->
  <g>
    <g id="Layer_1">
      <path class="cls-3" d="M165.1,76.4c-12.5-3.7-25.1,2.6-32.1,13-7.1,10.2-10.5,22.5-12.8,34.6-.8,3.9-1.4,8.3-1.9,12.3-.6,4.1-.9,8.3-1.2,12.4l-1.6-1.5c15.4-3.2,27.5-19.2,34.3-32.5,3.6-6.6,6.2-13.8,8.8-20.9-1.9,7.3-4.2,14.7-7.4,21.6-5.6,12.5-14.1,24.6-26.3,31.4-3.3,1.9-6.9,3.2-10.7,3.6.6-9,1.5-18,3.3-26.9,2.5-12.4,6.3-25,14-35.3,7.5-10.5,21.5-16.6,33.8-11.8h0Z"/>
      <path class="cls-3" d="M169.8,91.7c-2.6,16.5-11.5,34.8-26.1,43.7-2.2,1.2-4.5,2.3-6.9,2.9,2.1-1.3,4.1-2.6,6-4.2,13.2-10.9,20.5-27,26.9-42.5h0Z"/>
      <path class="cls-3" d="M161.3,141.1c-10.9-4.9-25.5-6.1-33,4.9-2.9,4.2-4.4,9.2-5.4,14.2-1.1,6.2-1.3,12.5-1.1,18.8,0,0-2.2-.8-2.2-.8,0,0,8.7-9.2,8.7-9.2l3.5-3.8s-1.2,5.1-1.2,5.1c-1.7,7.5-5.7,28.1,3.8,31.2,0,0-.7,0-.7,0,1.1-.3,2.5-.9,2.8-2.1,0,0,1.2-4.5,1.2-4.5,1.9,5.1,4.2,10.5,7.7,14.8,8.6,11.2,20.2,11.8,31.5,4,0,0,.9-.6.9-.6s.7.8.7.8c10.6,11.6,28.8,26,44.8,16.2,1.2-.7,2.5-1.7,3.4-2.6,0,0,1.6-1.5,1.6-1.5l1.4-1.6c1.9-2.2,3.5-4.7,5-7.2-2.6,5.2-6.1,10.2-11,13.7-16.4,11.1-35.8-3.2-47.2-15.2,0,0,1.7.2,1.7.2-3.5,2.4-7.5,4.5-11.9,5.4-4.4.9-9.1.5-13.2-1.4-8.1-3.9-13.3-11.6-16.7-19.7,0,0,2.9-.2,2.9-.2-.5,2.6-3.1,4.1-5.5,4.6-3.6-.8-6.2-4-7.2-7.4-2.6-9.1-.8-18.5,1.2-27.5,0,0,2.3,1.3,2.3,1.3l-8.8,9.1s-2.2,2.2-2.2,2.2c0,0,0-3.1,0-3.1,0-11.2.6-23.5,7-33.1,7.8-12.1,23.7-11,35-4.9h0Z"/>
      <path class="cls-3" d="M191.7,165.2c-3.8-2.8-7.4,20.7-8.2,23.5-1.8,8.7-3.5,17.4-5.9,26,.3-13.4,2.2-26.8,6.5-39.6.7-2.1,4.7-12.7,7.7-9.9h0Z"/>
      <path class="cls-3" d="M228,181.9c7.3-6.1,18.4-7.4,27.3-4.5-9.2,1.3-18.2,2.2-27.3,4.5h0Z"/>
      <path class="cls-3" d="M244.9,179.5c13.3,14.6,10.4,33.7-5,45.3-4.5,3.5-9.5,6.2-14.8,8.1,4.7-3.1,9.2-6.2,13.3-9.9,13.8-12.3,15.9-27.7,6.5-43.6h0Z"/>
      <path class="cls-3" d="M160.6,223.3c3.1,4.4,7,8.8,12,10.9,1.6.6,3.3.8,4.8.5,0,0-1,.6-1,.6l2.8-3.1,1.3-1.4c1.1,2.9,3.2,6.3,6.8,5.4,2.8-.6,5.1-3,6.9-5.1-1.7,2.5-3.7,5.2-6.6,6.3-3.3,1.3-6.9-1-8.6-3.9,0,0,2,.2,2,.2-.2.3-2.6,3.8-2.7,3.9-8.4,1-14.4-7.9-17.8-14.3h0Z"/>
      <path class="cls-3" d="M267.8,125.8c-.2,8.7-.4,17.5,1.3,26,.4,1.9,1.2,3.8,1.8,5.7,3.5,11.9,7,29.3,23.1,20.8,11.9-7.3,9.8-23.5,8.3-35.4-1.4-11.1-4.4-19-14.9-24.1-4.3-2.2-9.1-3.2-13.9-3.8,7.4.2,14.9,2,20.8,6.5,9,6.5,10.3,18.6,11.5,29.2,2,14.2-1.7,31.1-18.7,32.8-14.6.7-16-18.9-19.3-29.2-.3-1.3-.6-2.8-.8-4.1-.9-8.1-.3-16.3.7-24.3h0Z"/>
      <path class="cls-3" d="M269.2,164.8c1.8,12-.6,35.8-14,40.4,10-7.2,11.6-28.8,14-40.4h0Z"/>
      <path class="cls-3" d="M279.8,111.9c-6.7-14.8-20.7-24.7-36-28.9-5.1-1.5-10.4-2.5-15.8-3.3,6.1-.5,12.4,0,18.4,1.5,15.3,3.6,30,14.8,33.4,30.7h0Z"/>
      <path class="cls-3" d="M229.6,77.3c-6.3-9.2-24-11.7-34.5-12.9-4-.4-9.1-.7-12.5-.9-3.6.4-7.4,1.3-10.5,3.2-3.3,1.9-5.2,5.5-4.9,9.4-1.9-6.6,3.5-11.7,9.3-13.7,1.9-.7,3.9-1.2,6-1.5,4.3,0,8.7.2,13,.6,8.6.9,17.3,2.6,25,6.8,3.7,2.1,7.6,4.9,9.1,9h0Z"/>
      <path class="cls-3" d="M198.4,85.6c6.1-2.5,13.2-1,18.9,1.9,5.9,2.8,10.8,7.4,15.1,12.2,0,0-2.3,2-2.3,2-4.1-4.8-8.4-9.4-12.7-14.1-3.3-3.4-6.6-6.8-10.2-9.8-1.2-1-2.5-1.9-3.9-2.7.7.3,1.5.5,2.3.8,5,2.5,9.4,6.3,13.5,10,4.7,4.3,9.1,9,13.4,13.8,0,0-2.3,2-2.3,2l-3.1-3.4c-7.4-7.5-17.6-14.6-28.6-12.6h0Z"/>
      <path class="cls-3" d="M247.8,103.7c-8.8-8.9-23.7-24.9-36-27.2,0,0,.6-2.9.6-2.9,15.8,5.4,30.2,14.7,41.5,27-6.4-5.2-13.1-9.9-20.2-14-7-4-14.5-7.6-22.1-10.2,0,0,.6-2.9.6-2.9,13.5,2.4,27.9,19.3,35.6,30.1h0Z"/>
      <path class="cls-3" d="M281.7,137.1c6.4,6.1,18.9,23.2,19.3,31.9-1-2.5-3.5-5.5-5-7.8-5.3-7.7-10.5-15.5-14.4-24h0Z"/>
      <path class="cls-3" d="M283.3,131.2c4.6,4.1,8.3,8.9,11.8,14,3.4,5.1,6.6,10.4,8.2,16.4-7.3-9.7-14.6-19.4-20-30.4h0Z"/>
      <path class="cls-3" d="M228,112.9c13.5,9.7,18.9,28.4,15.5,44.3-.4-3.5-.7-7.1-1.2-10.5-1.9-12.2-6.6-24-14.4-33.8h0Z"/>
      <path class="cls-3" d="M226.3,115c8.3,11.9,19,35.4,14.4,49.8.3-8.8-2.7-17-5.3-25.2-2.8-8.3-6.1-16.3-9-24.6h0Z"/>
      <path class="cls-3" d="M232.9,144.4c2.1,6.6,2.1,13.8,0,20.3-2.1-6.6-2.1-13.8,0-20.3h0Z"/>
      <path class="cls-3" d="M216.9,120.6c1.5,6,1.2,12.3-.2,18.3-.4,1.5-.9,3-1.7,4.4-.3.4-.6,1-1.2,1.1.6-.8.4-1.9.5-2.9,0,0,0-3,0-3,.2-6.1.6-12.1,2.5-17.9h0Z"/>
      <path class="cls-3" d="M208.2,116.6c.8,4.1-.7,8.5-3.8,11.3-.8-4.1.7-8.5,3.8-11.3h0Z"/>
      <path class="cls-3" d="M201.6,111.9c-1.6,7.3-8.9,21-17,22,3.8-2.7,5.9-6.9,8.6-10.6,2.7-3.9,5.2-7.8,8.3-11.4h0Z"/>
      <path class="cls-3" d="M195.2,100.6c-15,9.4-25,24.7-31.3,40.9-1.6,3.7-2.8,7.8-4.2,11.5.5-3.9,1.2-8.3,2.4-12.1,4.7-16.8,16.3-34.1,33.2-40.2h0Z"/>
      <path class="cls-3" d="M178.8,103.7c-9.1,9.9-15.1,21.1-16,34.6-3.6-13.3,4.1-28.2,16-34.6h0Z"/>
      <path class="cls-3" d="M189.4,149.6c-1.2,6.2-.7,10.7,5.7,13.2,1.7.7,3.7,1.3,5.6,2-5.1,1.4-12.3-.1-13.9-6-.8-3.3.4-6.9,2.6-9.2h0Z"/>
      <path class="cls-3" d="M209.4,159.5c-4.8-3.1-7.6-3.2-5.7,3.4,1.2,1.6,4,5,6.4,6.2,2.6,1.5,5.3,1.1,7.3-1,0,0-.3.4-.3.4,1.4-3.6,2.9-7.9,2.3-11.8-.3-1.3-.9-2-1.9-2.3-2-1.9-4.2-3.7-6.5-5.3-4.4-3.1-9.2-5.7-14.4-7.1-2.6-.6-5.2-.9-7.9-.9,0,0,.3,0,.3,0-5.3,1.9-13.9,7-8.8,13.4,1,1.9,3.3,2.6,5.4,2.8-2.1.1-5-.7-6-2.3-6.5-6.9,2.6-13.6,8.7-16.1,11.8-1,22.7,5.5,31,13.2,0,0-.5-.3-.5-.3,5.3,2.4,3.6,9.3,2.2,13.6-.5,1.5-1.1,3-1.7,4.4-4.7,4.7-10.5,2.3-14.1-2.2-1.1-1.3-2.1-2.7-2.9-4.2-1.5-7.1,1.9-8.4,7-3.8h0Z"/>
      <path class="cls-1" d="M208.6,131.7"/>
      <path class="cls-3" d="M225,148.3c-5.7,0-10.5-5.7-9.8-11.5.4-6.1,6.6-10.9,12.7-9.9,9.9,1.3,13.4,14.4,5,20-2.4,1.6-5.3,2.1-7.9,1.4,8,.3,13.3-8.9,8.2-15.2-2.8-3.7-8.4-4.4-12.1-1.6-6.6,4.8-3.9,15,3.9,16.8h0Z"/>
      <path class="cls-3" d="M234.4,143.2c-1.8,5-9.2,2.8-7.7-2.5,1.9-5.2,9.2-2.6,7.7,2.5h0ZM234.4,143.2c1-3.4-3.8-4.8-4.8-1.6-1,3.3,3.6,4.9,4.8,1.6h0Z"/>
      <path class="cls-3" d="M195.6,119.9c.7,6.7-7.3,11.4-12.8,7.2-3.8-2.7-4.3-8.8-1-12.1,4.7-5.1,13.4-1.8,13.8,5h0ZM195.6,119.9c-.2-3.8-4.2-6.8-7.8-5.9-7.5,1.7-6.6,12.7,1.1,13.1,3.7.3,7.2-3.3,6.7-7.1h0Z"/>
      <path class="cls-3" d="M193.3,118.4c4.1.8,3.2,6.8-1.1,6.2-4.3-.9-3-6.8,1.1-6.2h0ZM193.3,118.4c-2.4-.3-2.9,2.9-.6,3.2,2.3.5,2.9-2.7.6-3.2h0Z"/>
      <circle class="cls-2" cx="232.4" cy="143.2" r="1.1"/>
      <circle class="cls-2" cx="194" cy="120.9" r=".8"/>
      <path class="cls-1" d="M225.1,115.1"/>
      <path class="cls-1" d="M207.2,102.7"/>
      <path class="cls-1" d="M180.2,114"/>
      <path class="cls-1" d="M197.5,107.2"/>
      <path class="cls-3" d="M123.9,190.8c-2.6,4.7-5.4,9.4-8,14.1-1.2,2.4-2.9,5-3.5,7.6,0,0,0,0,0-.1,0,0,0,0,0-.2,0,0-.2-.2-.1-.2,2.3,1.5,5.9,1.1,8.6,1.2,0,0-2.2,2.4-2.2,2.4-6.7,7.8-17.7,20.7-18,31.2,0,0-.3-.3-.3-.3,1.4.7,2.8,1.3,4.3,1.7-1.6-.1-3.3-.5-4.8-1,0,0,0-.3,0-.3-1.4-11.4,9.4-25.2,16.7-33.3,0,0,1.1,2.5,1.1,2.5-2.3-.1-4.6-.3-6.6-1.6-.3-.3-.5-.4-.9-.8-.5-.8-.2-1.9,0-2.5,3.4-7.5,8.8-14,13.9-20.3h0Z"/>
      <path class="cls-3" d="M103.6,250.4c-8.1,13.3-16.8,30.6-16.1,46.6,0,0-.8-1.1-.8-1.1l6.2,2.5,1.7.7c-6.7,7.9-11.4,17.5-14.5,27.4-1,3.1-1.7,6.3-2.4,9.5l-.4-1.3c.3.3,5.6,5.7,5.7,5.8-5.3,17.9-3.6,40.3,13.3,51.5-8.5-4.7-14.6-13.2-16.8-22.6-2.3-9.5-1.8-19.5.6-28.9,0,0,.3,1.4.3,1.4,0,0-5.2-5.1-5.2-5.1l-.5-.5v-.7c2-10,5.5-19.6,10.7-28.3,1.7-2.9,3.6-5.7,5.9-8.4l.5,2.2c-.4-.2-6.8-2.9-6.9-3-.6-17.1,8.9-34.1,18.7-47.5h0Z"/>
      <path class="cls-3" d="M122,394.6c-.2,5.3-.7,12.9-.9,18.2,0,0,0,.7,0,.7h-.7c-9.1-.4-23.9-4.1-21.6-16.1,0-2.3,1.2-6.7,2.9-9.3,5.3-9.5,17.6-11,26.2-9.3,12.8-.2,26.4,6.1,26.8,20.5,0,.2,0,.2,0,.4-2.4,5.5-7.8,11.4-14.3,9.3,0,0-.4-.1-.4-.1,0,0,0-.4,0-.4,0-4,0-9.7,0-13.7.4,3.9.7,9.6,1,13.6,0,0-.4-.5-.4-.5,5.9,1.4,10.2-4.2,12.1-9,0,0,0,.4,0,.4-.4-5.7-3.3-10.9-8.2-13.7-4.9-2.9-10.9-4-16.5-3.9-5.9-.9-12.2-.9-17.5,1.9-5.2,2.8-8.5,8.5-8.9,14.3-2.1,10.2,11.4,13.2,19.1,14.1,0,0-.7.6-.7.6.7-5.3,1.6-12.8,2.4-18.1h0Z"/>
      <path class="cls-3" d="M120.4,412.7c2.7.2,6.9.7,9.6.5,3.2-.2,5.7-1.4,8.3-3.5-1.7,8-13,8.1-17.9,3.1h0Z"/>
      <path class="cls-3" d="M168.2,275.9c-3,16.2-2.9,32.8-3.3,49.2-.1,11.9,0,25.1,0,37.1,0,0,.2,12.4.2,12.4v.5s-.3.4-.3.4c-5.2,7.7-14.8,24.3-5.1,31.5,1.2,1.4,2.9,2.7,4.7,2.9,5.8,0,8.3-9.1,9.8-13.6-1.2,6.1-4.6,18.5-13.1,14-1-.6-1.8-1.3-2.6-2.1l.2.2c-8.9-6.1-4.7-18.5-.9-26.4,1.4-2.8,2.9-5.5,4.7-8.1l-.3.9c-.2-8.3-.5-16.5-.4-24.8,0-16.5.4-33.1,2.1-49.5.9-8.2,1.9-16.5,4.3-24.4h0Z"/>
      <path class="cls-3" d="M170.3,410.5c3.7.7,7.2,1.7,10.8,2.5,3.6.7,6.9,1.4,10.4-.3-4.4,7-16.6,2.6-21.2-2.2h0Z"/>
      <path class="cls-3" d="M191.5,396.2c-3.2,10.3-1.1,19.7,11.8,17.4,5-1.1,6.5-4.9,4.6-9.4-1.7-4.3-4.7-8.1-7.7-11.7-1.8-9.1-3.2-18.3-4.6-27.4-2.5-18.1-4.4-36.4-4.1-54.8.2-9.1.8-18.5,3.6-27.2-3.6,17.9-1.4,36.4.1,54.4,1.9,18.1,4.5,36.2,7.6,54.1,0,0-.3-.6-.3-.6,4.4,5.6,13.6,17.4,4.8,23.1-3.4,1.9-7.4,1.9-11.1,1-8.4-2.2-7.5-12.5-4.7-18.8h0Z"/>
      <path class="cls-3" d="M215.7,282.9c1.6,30.8,1.4,63.5,3.8,94.2.1,1.8.5,4.3.8,6.1,0,0,0,.5,0,.5l-.2.4c-2.9,6.7-13.9,32-1.1,33.1,3.9,2.1,8.8,3.4,13,1.7-3.9,2.3-10.3.9-13.2-.6-14.7-.8-4.5-27.4-1.2-35.3,0,0,0,.9,0,.9-.4-1.9-.8-4.5-1-6.4-1.5-14.7-1.7-29.4-1.9-44.1-.1-16.8.1-33.6.9-50.4h0Z"/>
      <path class="cls-3" d="M233.4,403.7c-1.2,7.8-.3,18.8,8.8,21,5.2,1.3,15.7.7,19.2-3.8,3.5-5.6-2.8-14.1-6.2-18.8,2.3,1.9,4.3,4.2,6,6.6,4.4,6.1,5.7,14-2.5,17.5-6.7,2.5-15.5,3.3-21.7-1-6.6-5-6.2-14.6-3.6-21.5h0Z"/>
      <path class="cls-3" d="M265.9,418.1c7.9.6,9.3-3.7,5.5-10.1-1.9-2.7-4.3-5.9-6.5-8.5-2.4-2.6-5-6-8.3-6.9,0,0,0-.8,0-.8-3-27.1-6-56.9-10.2-83.7-.7-4.6-1.6-9.2-2.5-13.8-1.1-4.5-1.8-9.3-4.7-13.1,3.3,3.5,4.3,8.4,5.8,12.8,3.9,13.6,6,27.6,8.1,41.5,2,14,3.5,28,4.8,42,.4,4.7.8,9.4,1.1,14l-.8-1c3.6,1.5,6,4.8,8.4,7.7,2.2,2.9,4.3,5.9,6.2,9.1,3.5,6.8,1.9,12.2-6.7,10.7h0Z"/>
      <path class="cls-3" d="M244,269c3.3,8.7,5.1,17.9,6.5,27.1,1.2,9.2,1.8,18.5.8,27.8-2.5-18-5.2-36.8-7.3-54.9h0Z"/>
      <path class="cls-3" d="M263.6,392c10.5-7.7,24.8-10.8,37.5-7.4,10,2.6,19.3,9.3,19.8,20.5.2,3.3-.4,6.9-1.7,9.8-1.1,2.6-4.2,3.2-6.6,2.6,0,0-1-.3-1-.3,2.4.4,5.7,0,6.5-2.7,5.9-22.4-18.3-30.7-36.3-28.2-6.2.9-12.4,2.8-18.2,5.7h0Z"/>
      <path class="cls-3" d="M300,396.2c5.6,4.1,16.1,15.7,10,22.7-3.2,3.1-8.1,2.8-12.1,2-.9-.3-1.8-.6-2.5-1.1,1.8.3,3.5.2,5.3,0,2.7-.5,5.6-.8,7.3-2.8,3.7-4.9-5.2-16.2-7.9-20.8h0Z"/>
      <path class="cls-3" d="M288.7,400c6.3,5.6,13.8,20.9.1,22,0,0,.6-.2.6-.2-4,1.8-8.7.1-11.4-3-.4-.4-.7-.9-1-1.3,1.4.8,2.7,1.7,4.3,2.2,2.2.8,4.8.9,6.8-.2,0,0,.2-.1.2-.1,1-.2,2.2-.4,3.1-.8,5.9-2.7-.9-14.3-2.6-18.5h0Z"/>
      <path class="cls-3" d="M267.2,193.2c16,9.2,29,23.3,38.1,39.3,9.1,15.6,14.4,35.9,15.3,52.6,7.4,25.8,14.4,51.9,18.6,78.5.5,4.1,1.1,8.7,1.2,12.8.2,11.4-3.4,23.2-11.3,31.6-1.5,1.5-3.1,2.9-5.1,3.9-.6.3-1.3.6-2,.4.7.2,1.4-.2,2-.5,1.8-1,3.4-2.5,4.7-4.1,6.4-7.4,9.4-17.3,9.8-27,0-9.7-2.1-19.6-4-29.1-4.7-22.2-10.8-44.1-16.9-65.9-1.8-36.2-19.8-72.2-50.4-92.4h0Z"/>
      <path class="cls-3" d="M353.5,229.5c12.3.5,24.7,6.8,31.2,17.5,6.5,10.8,7,24.2,5.1,36.4-1.2,13.4-8.1,27.6-17.7,37.8-7.2,7.7-16.1,13.7-25.8,17.8-3.2,1.4-6.5,2.5-9.8,3.5,4.8-2,9.5-4.1,14-6.8,7.4-4.3,14.2-9.7,19.8-16.2,7.8-8.9,13.4-19.9,15.8-31.5,1.3-7.6,2.2-15.3,1.5-22.9-1.4-19.5-14.9-32.9-34.2-35.6h0Z"/>
      <path class="cls-3" d="M355.9,227.8c16.4-9,47.1-17.3,60.7,0,1.8,2.6,3.1,5.4,3.9,8.4-1.4-2.7-3-5.3-5-7.4-14.1-14.6-42.4-6.1-59.5-1h0Z"/>
      <path class="cls-3" d="M402.7,237.7c18.1-3,31.8,7.9,28.6,26.8-.8,5.1-2.5,9.9-4.8,14.4,1.1-4.9,2.1-9.8,2.5-14.7,1.5-18-9.4-25.4-26.2-26.6h0Z"/>
      <path class="cls-3" d="M412.4,267.6c13.6,6.5,20.4,21.7,15,36-1.9,5.2-4.9,10-8.7,13.9,2.3-4.3,4.4-8.5,5.8-13,4.9-14.4-.7-27.6-12.1-36.9h0Z"/>
      <path class="cls-3" d="M412.4,299.9c5.5,13.7,5.3,34-9.4,41.8-3.8,2.1-8.2,2.9-12.5,2.9,2.3-.7,4.6-1.3,6.8-2.3,17-6.8,17.2-26.9,15.1-42.4h0Z"/>
      <path class="cls-3" d="M400.1,322.2c-4.6,15.2-16.1,30.9-31.9,35.4-2.3.6-4.6.9-7,.9,2.2-.6,4.4-1.3,6.5-2.3,14.7-6.7,24.2-20.6,32.4-34h0Z"/>
      <path class="cls-3" d="M375.9,338.7c-6,12.1-21.6,29.3-36.4,26.4,14.3-1.5,26.7-16.7,36.4-26.4h0Z"/>
      <path class="cls-3" d="M354.2,351.9c-3.6,5.1-8.8,8.9-14.8,10.6,3.5-5.1,8.8-8.8,14.8-10.6h0Z"/>
    </g>
  </g>
</svg>