<?xml version="1.0" encoding="UTF-8"?>
<svg xmlns="http://www.w3.org/2000/svg" version="1.1" viewBox="0 0 400 400">
  <defs>
    <style>
      .cls-1, .cls-2 {
        fill: none;
      }

      .cls-2 {
        stroke: #dfd0b9;
        stroke-miterlimit: 10;
      }

      .cls-3 {
        fill: #020202;
      }

      .cls-4 {
        fill: #dfd0b9;
      }

      .cls-5 {
        fill: #fcfafc;
      }
    </style>
  </defs>
  <!-- Generator: Adobe Illustrator 28.6.0, SVG Export Plug-In . SVG Version: 1.2.0 Build 709)  -->
  <g>
    <g id="Layer_1">
      <path class="cls-4" d="M177.6,82.2c5.4-11.7,13.7-25.7,25.4-31.8,5.5-2.8,11.4-2.3,16.9.2,20.9,9.9,39.2,36.9,37.2,60.4,0,0,0,.2,0,.2h-.2s-4.3-.2-4.3-.2l4.3-.2-.2.2c0-5.4-1-10.7-2.7-15.8-5.3-15.1-15.4-28.6-28.4-37.9-6.1-4.3-14.1-8.2-21.4-4.5-11.4,5.6-20,18.8-26.5,29.5h0Z"/>
      <path class="cls-4" d="M229.1,112.8c2.7,4,4.5,8.5,5.7,13.1,0,0-1.6-.5-1.6-.5,1.9-3,1.7-7.2,1.9-10.7.2-5.6-.1-12-.4-17.6,0,0,3.1,5.2,3.1,5.2,3.1,5.5,4.8,11.3,6.5,17.3,0,0-1.6-.9-1.6-.9,2.2-.4,4.4-.9,6.6-1.3l-.6.4c1.7-2.4,1.5-5.8,1.5-8.7,0-3.2-.3-6.5-.7-9.7,1.4,5.2,4.3,15.6.7,20.1-2.7.7-5.4,1.4-8.1,2,0,0-.4-1.2-.4-1.2-1.9-5.6-3.7-11.3-6.5-16.5,0,0,2.7-.8,2.7-.8.1,7,.3,14-1.8,20.8-.4,1-.8,2-1.7,2.9l-1.3,1.3c-.8-5.2-2.1-10.4-4.2-15.2h0Z"/>
      <path class="cls-4" d="M203.2,91.1c-1.3,1.3-1.6,3.3-1.9,5.1-.8,5.5-.5,11.1-.1,16.6,0,0-.7-1-.7-1,5.2,1.3,9-3.3,10.9-7.6,1.3-2.9,2.7-8.1,3.7-11.2,1.3,9.1,3.2,18.6,1.7,27.7-.2,1-.5,2.1-1.3,3.2l-.4-1.6c2.7,1.4,6.1,2.8,9.1,2,.1,0,.5-.3.7-.5,1.9-2.2,2.5-5.2,3.2-8-.2,3-.4,6.3-2.2,8.8-.3.4-.6.8-1.2,1-3.6,1.2-7.3.1-10.6-1.4,0,0-1-.5-1-.5,0,0,.7-1.1.7-1.1,1.5-3.3.9-7.4.8-11.1-.3-3.9-.7-7.9-1.4-11.7,0,0,2.9.2,2.9.2-1,3.2-2.2,6.5-4.2,9.2-2.8,4.1-8.1,6.7-13,4.5,0-5.8-.1-18.6,4.4-22.6h0Z"/>
      <path class="cls-4" d="M180.5,73.5c-15.8-1.3-32.2-2.6-47.8,0,14.2-6.7,33.4-5.3,47.8,0h0Z"/>
      <path class="cls-4" d="M136.3,70.5c-12.3-2.4-25.4-1.2-36.8,4,0,0-5,2.1-5,2.1,0,0,3.9-3.8,3.9-3.8l4.8-4.7c2.5-4.9,4.6-13.2-2.8-17-13.2-3.4-30.9-6.9-45.4-2.6-2.1.6-4,1.5-5.9,2.5l.7-1.2v4.1s-1.9-1.2-1.9-1.2c4.3-1.8,8.7-2.6,13.3-2.8,3-.2,10.5.4,13.6.5,0,0-8.9,1.8-8.9,1.8-9.1,1.8-17.9,8.4-18.1,18.4,0,0-.7-.4-.7-.4,2-1,4.1-1.7,6.3-2.3,2.1-.5,4.5-.8,6.5.1-2.1-.8-4.3-.2-6.4.4-2.3.7-4.5,1.7-6.6,2.9-.7-11.2,8.4-18.9,18.6-21.3,0,0,.2,2.2.2,2.2-5.6-.1-11.4.8-16.5,3,0,0-1.9.8-1.9.8,0-1.3,0-4.8,0-6.2,0,0,0-.8,0-.8,0,0,.7-.4.7-.4,12.3-7,27.2-5.6,40.5-3.4,4.6.9,9.1,1.8,13.5,3.3,8.2,4.4,7.4,14,3.1,21,0,0-.1,0-.1,0,0,0-4.9,4.6-4.9,4.6l-1.1-1.7c11.8-4.8,25.3-5.5,37.6-2h0Z"/>
      <path class="cls-4" d="M57.5,69.1c-2.2,4.3-6.4,11.4-4.7,16.2,0,0-.7-.6-.7-.6,1.6.5,3.1,1,4.6,1.6l-1.3.2c2.9-2.6,6.6-5.6,9.6-8.1,0,0-1.8,5.1-1.8,5.1l-1.7,4.6-.8-1.9,5.5,2.5-2,1.4c0-.2,0-.3,0-.5,1-4.7,6.8-4.6,10.5-4.5,3.5,0,7.1-.2,10.5-.7,2.2-.5,4.7-.8,6.3-2.7-3.1,5.1-14.8,5.5-20.3,6-1.6.3-3.7.6-4.2,2.2,0,0,0,0,0,0,0,0-2,1.4-2,1.4-1-.4-6-2.6-6.9-2.9,0,0,.5-1.3.5-1.3l1.7-4.6,2.3,1.6c-2.1,1.7-4.2,3.4-6.3,5,0,0-.7-.3-.7-.3-1.7-.7-3.4-1.3-5.1-2-2.3-5.9,3.1-13.3,6.7-17.6h0Z"/>
      <path class="cls-4" d="M79.5,88.4c-3.3,4.2-7.6,9.7-5.8,15.3-12.3,13.1-19.5,30.9-18.8,48.9,0,0-.9-.4-.9-.4,1.9-1.5,3.8-3,5.7-4.4-1.6,1.8-3.3,3.5-4.9,5.3l-.8.8-.2-1.2c-3-18.3,4.5-37.6,18-50.1,0,0-.3,1.1-.3,1.1-1.2-6.3,3.6-11.6,8-15.3h0Z"/>
      <path class="cls-4" d="M95.5,185.6c-4.4.3-8.5-2.1-11.8-4.9-1.1-1-2.1-2-3.1-3.1h1.7c-.9,1.2-1.9,2.8-1.6,4.1,0,0-1.5,1.8-1.5,1.8-6-1.4-9-7.5-10.7-12.8-.5-1.8-1-3.5-1.3-5.4,0,0,2.8.3,2.8.3-.4.8-1.1,1.4-1.8,1.9-1.9,1.5-4,2.8-6.1,4.1-3.6-6.5-3.3-14.2-2.4-21.3.6,6.4.9,13.3,4,18.9,0,0-1.8-.4-1.8-.4,1.8-1.3,4.1-2.9,5.4-4.3,0,0,2.8.3,2.8.3.6,3.3,1.7,6.7,3.2,9.7,1.4,2.8,3.5,5.6,6.5,6.4,0,0-1.5,1.8-1.5,1.8-1-3,1.3-5.7,3.3-7.6,3.3,4.8,7.9,9.5,13.9,10.5h0Z"/>
      <path class="cls-4" d="M111.6,187.5c-4.8.7-3.4-10.8-3-13.7,0,0,0,.3,0,.3-.4-1.3-1.3-1.5-2.6-.8-1.3.8-2.4,2-3.4,3.1,0,0,.1-.2.1-.2-1.3,2.2-2.6,4.5-3.2,7-.1.5-.2,1-.2,1.5,0,.2.2.7.2.9.3,4.9,5.7,6.6,9.9,6.5,7.2.2,14.8-1.7,16.8-9.6,0,0,.4,1.1.4,1.1-2.7-2.1-5.4-4.4-7.8-6.9-2.3-2.5-4-6.7-7.3-2.3.8-1.7,2.5-3.1,4.4-2.1,1.6.8,2.4,2.4,3.9,3.5,2.7,2.3,5.7,4.4,8.7,6.5-1.3,8.7-9.3,12.7-16.8,12.7-6.6.6-14.7-1.6-15.1-9.5,0,0,.1.7.1.7-.9-2.3.3-4.4,1.1-6.4.9-1.8,1.8-3.4,2.9-5,1.9-1.8,4.6-4.7,7.5-3.7,1.2.5,1.8,1.6,2,2.8,0,0,0,.2,0,.2-.5,2.6-3.1,13.5,1.3,13.4h0Z"/>
      <path class="cls-4" d="M196,143.1c-.2,2.5.2,5.7,3,6.3,0,0,.8.2.8.2-.4,1.9-.8,3.7-1.4,5.5-1.6,4.6-3.2,9.4-7,12.8,0,0-.4-2.5-.4-2.5,4.4,1.9,4.8,5.9.5,8.1-.9.5-1.8.9-2.7,1.2-3.1.7-6.3,1.4-9.5,1.7,2.9-1.3,5.9-2.5,8.9-3.6,0,0-.1,0-.1,0,.7-.4,1.5-.8,2.1-1.3.7-.6,1.4-1.1,1.6-1.7,0,0,0-.1,0-.2-.5-1.3-3-1.8-4.2-2.4,1.8-1.4,3.3-2.7,4.5-4.8,2.3-3.8,4-8.1,5.7-12.3,0,0,.6,1.2.6,1.2-3.3-1.2-3.7-5.3-2.4-8.2h0Z"/>
      <path class="cls-4" d="M182.2,176.4c2.8,3.4-.2,6-3.6,6.8-3.9,1-8.2.5-12.2.9,0,0,1.2-1.2,1.2-1.2,0,.6,0,1.4.3,2,.2.4.2.5.6.5,0,0,3.6.3,3.6.3l-2.7,2.2c-2.2,1.7-4.7,2.5-7.4,2.5-2.7,0-5.2-1-7.3-2.4,0,0,2.2-.7,2.2-.7-1.5,3.2-4.6,4.1-7.2,4.3-4,.1-7.5-1.3-10.9-2.9-3.3-1.6-6.3-3.7-9.1-5.9,5.6,2.5,20.1,10.4,24.5,3.6,0,0,.5-1.7.5-1.7l1.7.9c3.3,2.3,8,2.6,11.3.1,0,0,.9,2.5.9,2.5-.7,0-1.5-.3-2.1-.8-1.6-1.6-1.4-3.8-1.3-5.9,1.1,0,2.4,0,3.5,0,3.8,0,17.1,2.3,13.7-5.1h0Z"/>
      <path class="cls-4" d="M106.6,140.9c-1.8,9.9-2.1,21.4,4.1,29.9-1.8-2-3.2-4.2-4.3-6.7-3.1-7.5-3.6-15.7-2.8-23.8,0,0,3,.5,3,.5h0Z"/>
      <path class="cls-4" d="M81.4,133.4c2.6-4.7,8.1-2,11,.9,3.4,2.6,7.7,4.9,11.9,4.8,5.6.7,11.7-.3,16.2-4,0,0-.3.5-.3.5,1.4-3,3.9-8,7.8-7.7.6,0,1.1.3,1.5.6-3.3-1.2-5.1,2.5-6.2,5-.4,1-.8,2.1-1.1,3.1,0,0-.2.2-.2.2-4.6,4.6-11.5,6.3-17.9,5.3,0,0,.3,0,.3,0-2.5,0-4.9-.6-7-1.7-2.5-1.2-4.6-2.8-6.6-4.6-2.3-2.8-6.3-5.9-9.5-2.5h0Z"/>
      <path class="cls-4" d="M224.5,124.9c5,8.3,9.7,17.6,9.7,27.6,0,0-.5-.5-.5-.5,7.2,0,9.8,6.6,9.5,12.9,0,0-.2-.6-.2-.6l17.8,15.8s-.5-.2-.5-.2c4,1,7.1,3.6,10,6.3,9.6,9.9,14.9,23.1,19.1,36,0,0-1.5-.9-1.5-.9,1.2-.1,2.1,0,3.2,0,7.9,1.5,9.7,9.9,9.5,16.7,0,0-1.7-1.4-1.7-1.4,8.4-1.5,14.3,6.1,16.6,13.3,6.1,16.6,12.4,33.4,15,51,.3,3.6,1.2,9.3-2.8,11.3,0,0,.8-1.6.8-1.6,1.5,5.7,2.7,11.5,3.5,17.3.8,6.2,1.3,12.5-.5,18.7-3,.6-5.9-1.1-7.5-3.6,0,0,2-1.1,2-1.1.9,2.2,1.7,4.4,2.3,6.7.6,2.2,1.2,5.6.8,7,.1,2.6-1.8,4.2-4.5,3.2,0,0,1.3-.8,1.3-.8,0,0-1,5.8-1,5.8,0,0,0,.5,0,.5l-.4.2c-12.5,4.2-27.6,1.6-40.1-1.5-7.5-1.9-15.6-4.9-22.8-7.8,9.8,3.5,20.6,6.9,30.9,8.5,7.8,1.3,15.9,1.9,23.8.9,2.4-.4,5.3-.8,7.5-1.8,0,0-.5.7-.5.7s.9-5.8.9-5.8l.2-1.1,1.1.3c.4.1,1.1.3,1.4,0,.3-.2.4-.9.4-1.3.3-4.4-1.6-8.9-3.2-12.9,0,0-4.1-9.6-4.1-9.6,0,0,6.1,8.5,6.1,8.5,1,1.5,2.6,2.7,4.4,2.6,0,0-1,.9-1,.9.7-2.6.8-5.5.7-8.3-.3-9-2.2-18-4.5-26.6.8-.4,1.6-.4,2-1.7,1.3-5.7-.7-11.9-1.8-17.5-1.7-6.8-3.8-13.5-6-20.2-2.2-6.7-4.6-13.3-7-19.9-2.2-6.6-7.1-13.5-14.9-11.3,0,0,0-1.7,0-1.7.2-6.4-1.5-14.6-9.5-14.1,0,0-1.1.1-1.1.1,0,0-.3-1-.3-1-4.1-12.5-9.1-25.5-18.1-35.3-2.6-2.5-5.5-5.2-9.1-6,0,0-.2-.2-.2-.2l-17.5-16.1s-.3-.2-.3-.2,0-.4,0-.4c.5-5.8-1.7-11.9-8.5-11.8.5-10-4-19.5-8.6-28h0Z"/>
      <path class="cls-4" d="M120.3,139.4c4.8,1.4,10.7,2,14.8-1.3,1.3-1.1,2.2-2.6,2.9-4.2,2.7-4,3.7-9.9-1.6-12.3-1.2-.7-3.7-1.3-4.6-1.5-9.7-.7-19.6-.8-29.4-.2-9.5.7-19.6,1.8-28.1,6.4,0,0,.4-.4.4-.4-1.8,3.3-1.8,7.6-.3,11.1.5,1.3,1.3,2.4,2.1,3.6,1.4,2.8,5.2,2.9,8.1,2.7,3.3-.3,6.4-1.3,9.6-2.3-5.1,2.3-15.4,6.6-19.1.3,0,0,.1.3.1.3-.4-.6-.9-1.1-1.3-1.7-3-4.3-3.6-10.1-1.3-14.9,0,0,.1-.2.1-.2,0,0,.3-.2.3-.2,12.7-7.3,29.8-7.7,44.1-7.6,5,0,10,.4,15.1.9,6.1,1.2,11.9,5.4,9.8,12.3-.6,1.9-1.4,3.5-2.6,5.1v-.2c-3.1,7.7-12.5,7.5-19,4.6h0Z"/>
      <path class="cls-4" d="M254.9,344.8c5.8,5.5,10.1,16.2,2.6,22.2-.7.4-1.4.7-2,.9-11,2.9-13.4-10.8-12.2-18.7,1.3,5.6,2.4,16.7,10,16.1.8,0,1.8-.4,2.5-.7,0,0-.2.1-.2.1.7-.6,1.3-1.1,1.7-1.8,3.7-5.6.2-12.7-2.5-18.1h0Z"/>
      <path class="cls-4" d="M245.3,364.8c-3.7,5.9-12,4-17.6,2.2-.7-1.7-.8-3.6-1-5.3-.4-4.4-.6-9.5,2.2-13.1-2.6,5.3-.4,11.6,1.4,16.7,0,0-.8-.9-.8-.9,4.7,2.4,11.8,5.1,15.8.4h0Z"/>
      <path class="cls-4" d="M225.7,362.2c-5.2,1.5-9.1-.8-8.1-6.6.2-4.8,1.5-10.6,3.7-15.3,2.3-5,6.3-9.6,11.8-11.2,2.6-.4,5.2-.7,7.9-.9,7.7-.6,15.8-1.2,23.4.7-7.7-.3-15.4,1-23.1,2-2.2.3-6,1-7.4,1.1-2.2.7-4.2,2-5.9,3.7-5.1,5.4-7.4,13.1-8.7,20.3-1.3,5,1.9,6.5,6.4,6.2h0Z"/>
      <path class="cls-4" d="M279.8,246.2c-5.7.4-11.5,1.5-16.4,4.6,0,0,0-.9,0-.9.7.5,3.2,2.5,3.8,3-8.7,4.4-16,11.7-21.1,19.9-3,4.8-5.2,10-6.9,15.4,0,0-1.4-1.8-1.4-1.8,1.2,0,3.9,0,5,0-.3,1.9-.7,4-.9,5.9-.3,3.9-.9,8.4.5,12,0,0-1.6-.8-1.6-.8,2.5-.5,4.5-3.6,6.2-5.3-.3,3.3-.7,7.3-.5,10.6,0,1.5.3,4,1.2,4.9,0,0-1.2-.3-1.2-.3,1-.2,2.4-.8,2.8-1.8,0,0,1.2-2.5,1.2-2.5,2,3.9,4.7,7.5,7.8,10.7,9.6,9.7,22.2,15.9,35.2,19.8,2.5.8,5.9,1.5,8.4,2.2,0,0,8.6,1.6,8.6,1.6-4.1-.4-8.9-.9-13-1.8-15.1-2.8-29.9-9.2-41.1-19.9-2.6-2.7-5.1-5.4-7.1-8.8,0,0,2.6,0,2.6,0-1.1,2.3-3.3,3.3-5.7,3.6-.4-.4-1-.9-1.2-1.4-.5-.8-.8-1.8-1.1-2.7-.7-3.3-.6-6.6-.4-10,0,0,2.6,1.1,2.6,1.1-1.5,1.8-3.6,2.7-5.9,3.2-1-1.8-1.5-4-1.6-5.8-.3-4.5.3-8.9,1-13.3,0,0,1.4,1.7,1.4,1.7-1.2,0-4.1,0-5.3,0,1.6-4.3,3-8.7,5.2-12.7,5.4-10.4,13.9-19.4,24.6-24.4,0,0-.2,1.2-.2,1.2-.4-.3-3.1-2.8-3.4-3,5.3-3.2,11.6-4.1,17.7-4h0Z"/>
      <path class="cls-4" d="M197.5,306.4c1.8,2,3.7,4,5.7,5.8,1.8,1.5,4.1,3.2,6.4,3.3,0,0-1.1.4-1.1.4.7-.9,1.7-2.1,2-3.2,0,0,.4-5.8.4-5.8l2.4,5.5c.9,1.9,2.4,3.6,3.9,5.1,4,4,9.2,6.9,14.3,9.4,1.1.5,2.1,1,3.2,1.5-2.4-.4-4.7-.9-7-1.6-6.9-2.4-13.9-6.5-17.1-13.3,0,0,2.8-.3,2.8-.3-.5,2.1-1.9,3.5-3.3,5-6.1-.4-10.2-6.8-12.6-11.8h0Z"/>
      <path class="cls-4" d="M214.6,319.4c-13.3,4.2-21.3,11.4-18.7,25.5,0,0,0-.2,0-.1.8.9,2.2,1.1,3.4,1.5,1.4.4,3.6.7,5.1.9-2.4.4-11,1.3-10.6-2.7,0,0,0,.6,0,.6-.9-3.1-1.3-6.4-.9-9.7,1.4-10.2,12.2-16.1,21.7-15.9h0Z"/>
      <path class="cls-4" d="M207.8,331.5c-2.7,4.7-7.2,13.6.5,15.8,0,0,.2,0,.2,0l.3.2c4.9,3.6,7.4-7.8,8.3-11,0,0,2.3.7,2.3.7-1,2-1.9,4.1-2.5,6.2-.5,1.8-1.4,5.2,1.4,5.1-5.4,1.1-2.1-9.8-1.1-12.3,0,0,2.3.7,2.3.7-.5,3.2-1.2,6.6-2.7,9.6-1.8,4-6.1,6.3-9.9,3.1,0,0,.5.3.5.3-9.4-3.5-5-13.5.5-18.5h0Z"/>
      <path class="cls-4" d="M186.1,230.3c5.8,14.8,11,30,12.8,46,0,0-1.8-.7-1.8-.7,0,0-5.7-2.3-5.7-2.3l1.7-1.5c1,3.4,1.6,6.6,2.2,10,3.5,20,3.3,40.5,1.3,60.7-.4,3.4-.8,6.7-1.2,10.1,0,0,0-.4,0-.4,1.7,10.5-2.4,20.5-14.6,18.5-12.2.8-18.1-5.9-11.5-18-5,11.2-1,17.6,11.5,16.3,4.1.5,8.8-.3,10.9-4.2,2-3.6,1.9-8.3,1.2-12.3.3-3.4.7-6.8,1-10.2,1.8-23.2,2.1-47-3.2-69.7,0,0-.7-2.5-.7-2.5,1.5.7,6.4,2.8,8,3.5,0,0-1.6,1.2-1.6,1.2-1.5-15.1-5.8-29.8-10.3-44.3h0Z"/>
      <path class="cls-4" d="M152.7,349.8c-2.7,4.2-5.9,8.4-7,13.2-.7,3.2,1.6,4.7,4.6,5.2,1.4.3,3.5.4,4.9.6,3.2,0,6.9.4,9.6-1.9-2.4,4.3-10.5,4.6-14.9,4.1-14-2.4-4.2-16.4,2.9-21.1h0Z"/>
      <path class="cls-4" d="M151,251.1c5.9,6.8,5.6,17.8,4.5,26.3.5,3.6,1.1,10.2,1.5,14.8.8,10.1,1.4,20.2,1.3,30.4-.2,5.3,0,10.3-1.7,15.5,0,0-.1.4-.1.4,0,0-.4.2-.4.2-7.2,4.7-14.9,9.6-20.2,16.5-1.7,2.2-2.6,5.3.3,7,1.4.2,4.2.8,6.1.3-2.1.6-4.3.6-6.4.3-6.8-3.8,1.3-11.9,4.7-15.2,4.4-4.1,9.1-7.7,14.1-11,0,0-.5.6-.5.6,1.8-7,1.2-14.8,1.2-22.1-.1-7-.6-15.6-1-22.6-.3-5.1-.6-10.3-.9-15.4,1.4-8.2,2.4-18.7-2.4-25.9h0Z"/>
      <path class="cls-4" d="M139.9,262.4c.9,11.9,1.2,23.9,1.4,35.8-2.4,5.4-5,11.2-5.7,17.1-.1,1.4-.1,3.3,1.1,4,0,0,1.3.7,1.3.7-1.7,3.2-3.8,6.6-4.6,10.2-.1.7,0,1.3,0,1.9-4.7,3.4-9.6,6.9-13,11.7-.8,1.3-1.5,3-.3,4.2,1.3.9,3,1.9,4.6,1.8-.6.2-1.2.1-1.7,0-6.6-1-4.8-5.7-1.7-9.6,3-3.7,6.5-6.8,10.2-9.7,0,0-.5,1.3-.5,1.3-.4-2.3.5-4.4,1.3-6.5.8-1.9,1.6-3.7,2.5-5.4l.6,2c-2.5-1.2-3-4.4-2.8-6.8.7-6.4,3.3-12.1,6-17.8,0,0-.1.6-.1.6.2-11.9.5-23.7,1.4-35.5h0Z"/>
      <path class="cls-4" d="M131.9,339.5c-1.2,2.2-2.7,4.3-3.7,6.6-.6,1.4-1.2,2.6-.4,3.7.2.3.6.6,1,.8h-.2c1.5.4,3.1.8,4.7,1,.6,0,1.1.1,1.7.2-1,.7-2.2,1-3.4,1.2-1.2.2-2.4.2-3.7,0-7.9-2.9-1-11.7,4-13.6h0Z"/>
      <path class="cls-4" d="M116.8,195.7c-4.2,9.6-5,20.4-2.7,30.6,0,0-2.3-.8-2.3-.8,1.4-1,3.1-1.5,4.7-1.9,0,0,2.2-.5,2.2-.5l-.5,2.2c-1.2,6.7-1.3,14.5,2.7,20.4,0,0-.9-.2-.9-.2,2.4-1.2,5.1-2.9,5.8-5.7,0,.7-.2,1.5-.5,2.2-1.1,2.2-3,3.9-5.1,5.2-1.5-1.6-2.7-3.4-3.6-5.4-2.2-5.4-2.3-11.3-1.3-17.1,0,0,1.8,1.8,1.8,1.8-.7.2-1.3.4-2,.6-1.1.3-2.6,1.4-3.6,1.9-2.7-11.2-1.7-23.8,5.2-33.3h0Z"/>
      <path class="cls-4" d="M152.6,270.1c-5.8-1.5-10.4-6-13.8-10.8,0,0,2.6-.5,2.6-.5-.2.8-.3,1.3-1,2.1-4.4,4.1-7.1-6.7-7.9-9.5,0,0,2,.8,2,.8-1.7.9-3.3,1.9-5,2.7-.5-.2-1-.4-1.3-.8-2.2-2-2.6-5.1-2.6-7.9,0-1,.1-1.9.3-2.9.2.9.3,1.9.5,2.8.6,2.3,1.3,5,3.4,6.4,0,0,.2,0,0,0,0,0-1,.1-1,.1,1.4-1,2.8-1.9,4.2-2.9l1.4-.9c1.1,3.1,2,6.3,3.5,9.1.2.4.5.8.7.9,0,0,0,0-.2,0-.3,0-.4.2-.3.1,0,0,.3-.6.4-.9l.9-3c3.5,5.7,7.3,11.4,13.1,14.9h0Z"/>
      <path class="cls-4" d="M316.8,252.4c12.7-17.5,10-41.4,2.1-60.4-5.5-15.4-18.6-29-35.3-31.1.1-5,4.4-6.6,8.7-6.6,0,0-1.1,2.3-1.1,2.3,0,0-.2-.2-.4-.3-5.3-3.3-12.3-2.6-18.3-2.2-2.6.2-5.9.8-8.5,1.2.6-3.8,2.8-7.5,6.9-8,0,0-.8,1.6-.8,1.6-2-1.9-5.5-1.3-8-.7-1.3.3-2.6.8-3.8,1.2-.5-1.3-.6-2.7-.1-4,2.4-5.8,12.6-5.6,17.9-5.3,2.4,0,4.8.5,7.2.7-2.4,0-4.8-.3-7.2-.2-4.7,0-13.5.3-16.2,4.6-.5.8-.6,2-.3,2.8,0,0-1.1-.5-1.1-.5,3.2-1.2,6.5-2.3,10-1.8,1.3.2,2.7.8,3.5,2,0,0,.8,1.2.8,1.2,0,0-1.6.3-1.6.3-1.8.3-3.1,1.5-3.9,3.1-.3.5-.5,1.2-.6,1.6l-1.4-1.4c2.1-.4,4.8-.9,6.9-1.1,6.4-.6,13.5-1.2,19.4,1.8,1.3.5,2.7,2.6,3.6,3.6-2.6.2-6.1-.3-8,1.7-.3.3-.5.8-.6,1.1,0,0-1.2-1.6-1.2-1.6,16.6,2.5,29.7,15.9,35.4,31.2,4.6,11.7,7.5,24.2,6.2,36.8-.9,9.4-4,19-10.2,26.2h0Z"/>
      <path class="cls-4" d="M312.7,143.1c-4.9-12.6-16.3-21.5-29.6-23.6,0,0,1.1-2.5,1.1-2.5,4.4,3.4,8.3,8.1,8.7,13.9,0,0,.2,2.5.2,2.5-7.4-3.3-22.8-10.1-30.4-6.3,0,0,.5-1,.5-1,0,1.1,0,2.2,0,3.3,0,1.1,0,2.2-.3,3.3,0,0-1-1.1-1-1.1,6.8,0,13.6,2.3,19.1,6.4-2.9-1.7-6-2.9-9.2-3.6-3.5-.8-7.2-1.2-10.8-.8,0,0,0-1.1,0-1.1.2-2.2,0-4.6-.2-6.9,6.6-4.5,17-1.1,23.9,1.2,2.4.9,4.8,1.8,7.2,2.9l-2.1,1.4c-.3-4.8-3.9-8.8-7.4-11.8,0,0-4.9-3.9-4.9-3.9l6,1.5c3.3.8,6.8,1.7,9.9,3.2,9.3,4.4,16.7,13.1,19.2,23.1h0Z"/>
      <path class="cls-4" d="M323.3,277.2c2.5-3.5,6.4-8.6,9.1-12.1,0,0,.2-.3.2-.3h.4c7.3-.2,15.4-2.7,19.8-8.9,0,0,1.7-2.2,1.7-2.2l.7,2.6c.2.5,0,1.1-.4,1.5-.3.3-.8.5-1.1.5-3.6.6-7.2,0-10.8-.2,0,0-4.8-.4-4.8-.4,5.1-2.8,15.8-8,16.4-14.4,0,0,2.1,1.3,2.1,1.3-3.9,1.5-8.8,2.2-12.9,3.2,4.9-4,10.3-8.3,13.7-13.7.8-1.3,1.5-2.6,1.8-4l.4.9-4.7-3.8,1.2-.5c-.3,1.4-.9,2.5-1.6,3.6-1.8,2.7-4.6,4.4-7.6,5.2-.6.2-1.2.3-1.8.4.6-.2,1.2-.4,1.7-.6,3.7-1.5,7.2-4.7,7.8-8.8,0,0,.2-1.2.2-1.2.6.4,5.3,3.7,6,4.2,0,0,.5.3.5.3-.8,5.3-4.4,9.4-7.9,13.2-1.1,1.2-2.3,2.3-3.6,3.4l-1.2-2.4c3-.7,6.1-1.6,8.8-2.9,0,0,0,2.2,0,2.2-.4,6.9-8.3,11.6-13.7,14.7,0,0-.5-2.7-.5-2.7,3.3.3,6.7.8,10,.4-.1,0-.3.2-.3.3-.2.3-.3.7-.2,1.1,0,0,2.4.4,2.4.4-1.3,1.7-2.8,3.2-4.5,4.4-5.2,3.5-11.4,4.7-17.5,4.5,0,0,.6-.3.6-.3-3,3.3-7.2,8-10.2,11.1h0Z"/>
      <path class="cls-4" d="M345.9,234.1c6.5-9.2,11.2-20.3,10.5-31.8,0,0,2.4,1.1,2.4,1.1-1.8,1.4-4.2,3.3-6.1,4.5,0,0-5.3,3.4-5.3,3.4l3.3-5.3c2.8-5.1,3.7-11.1,4.2-16.8,0,0,1.2.4,1.2.4-1.8,1.8-3.7,3.6-6.2,4.3.6-.3,1.1-.6,1.5-1,1.8-1.5,3.3-3.6,4.7-5.5,0,0,.1,1.9.1,1.9.4,6.2-.2,12.6-3.1,18.3,0,0-2-1.9-2-1.9,1.7-1.2,4.2-3.2,5.8-4.5,0,0,2.3-1.8,2.3-1.8,0,1.9.2,4.4.2,6.3-.4,10.8-5.6,21.3-13.5,28.6h0Z"/>
      <path class="cls-4" d="M349.9,192.8c0-3.5.4-6.7.7-10.1.1-3.3.5-6.3-1.5-9.2,7.1,2.7,4.7,14.7.8,19.3h0Z"/>
      <path class="cls-4" d="M345.9,182.1c.7-3.3,4.1-18.6-1.2-18.7,0,0,.9-1,.9-1,.2,2.4,0,4.7-.5,7.1-.7,3.5-3,6.5-5.2,9.2,0-3.1,0-6.5-.4-9.6-.5-3.7-1.4-14.2-6.2-14.2,0,0,1.4-1.6,1.4-1.6.3,6.3.9,13-1.6,19,0,0-1.8,3.5-1.8,3.5-2.6-11.1-5.8-22.3-11.1-32.4-1.6-2.9-3.4-5.8-6-8l.7-.4c0,1.6-.1,3.1-.4,4.6-.3,1.5-.8,3-1.5,4.3,1.3-3.1,1.3-6.6.9-9.8,3.3,2.1,5.7,5.2,7.7,8.5,5.4,8.9,8.8,18.8,11.5,28.7,0,0-2.7-.3-2.7-.3,1.1-2.4,1.3-5.6,1.4-8.4,0-3.5,0-7-.4-10.5,0,0,1.5-.1,1.5-.1,1.4-.1,2.9.4,3.9,1.3,5.2,4.7,5.2,15.5,5.3,22.1,0,0-2.2-.8-2.2-.8,3.1-3.5,3.9-8.4,3.7-12.9.5,0,1.3.1,1.8.2.9.2,1.7.7,2.2,1.4,2.9,4.8-.2,14-1.8,19h0Z"/>
      <path class="cls-1" d="M122.9,75.7"/>
      <path class="cls-1" d="M125.7,109.4"/>
      <path class="cls-1" d="M91.7,100"/>
      <path class="cls-1" d="M91.7,100"/>
      <g>
        <circle class="cls-5" cx="129.5" cy="99.9" r="10.3"/>
        <path class="cls-4" d="M139.9,101.3c-1.5,9.5-13.1,13.1-19.4,5.4-4-4.7-3-12.4,1.8-16.2,8.4-6.5,19.2.7,17.5,10.8h0ZM139.6,101.3c1-8.1-9.3-12.9-15.4-8.4-6.7,4.6-3.9,15.3,4.1,16.5,5.1,1,10.9-2.7,11.4-8.1h0Z"/>
      </g>
      <g>
        <circle class="cls-3" cx="134.6" cy="103.9" r="3.4"/>
        <path class="cls-4" d="M138,105c-2,5.2-8.9,2.8-7.7-2.5,1.8-6.1,10.2-3.6,7.7,2.5h0ZM137.7,104.9c.7-2.8-4-3.9-5.1-1.7-1.4,3.2,4.2,5.2,5.1,1.7h0Z"/>
      </g>
      <g>
        <circle class="cls-5" cx="104.9" cy="97.9" r="7.5"/>
        <path class="cls-4" d="M112.5,97.3c.4,7.1-7.3,11.6-13.1,7.1-3.7-2.8-4.3-8.6-1.4-12.3,5.1-6.3,14.2-2.5,14.5,5.2h0ZM112.2,97.3c-.6-5.7-8.4-7.1-11.9-3.3-4,4-.4,11,5.1,10.6,3.7,0,7.3-3.4,6.8-7.3h0Z"/>
      </g>
      <g>
        <circle class="cls-3" cx="109.5" cy="98.2" r="2.5"/>
        <path class="cls-4" d="M110,95.6c4.2,1,3.1,6.5-1.1,6.2-5.1-.7-4.1-7.8,1.1-6.2h0ZM109.9,95.9c-1.3,0-1.6,1.2-1.3,2.1.1.5.1,1.2.7,1.4,2.1.8,3.1-3.3.6-3.5h0Z"/>
      </g>
      <g>
        <circle class="cls-5" cx="135.7" cy="105" r="1.1"/>
        <path class="cls-2" d="M135.7,103.9c1.4,0,1.4,2.2,0,2.2-1.4,0-1.4-2.2,0-2.2h0Z"/>
      </g>
      <g>
        <circle class="cls-5" cx="110.7" cy="98.3" r=".8"/>
        <path class="cls-2" d="M110.2,97.7c.9-.6,1.8.7.9,1.3-.9.6-1.8-.7-.9-1.3h0Z"/>
      </g>
      <path class="cls-4" d="M124.2,79.4c4.6-2,9.9-.2,13.6,3,3,2.3,4.8,6,5,9.8,0,0-.3.1-.3.1-.8-.7-1.5-1.5-2.1-2.3-2-2.1-3.4-4.7-5.5-6.8-2.8-2.7-6.7-4.3-10.6-3.5,0,0-.1-.3-.1-.3h0Z"/>
      <path class="cls-4" d="M114.2,84.3c-3-1.6-6.7-1.2-9.5.6-2,1.4-3.6,3.4-5.7,4.7-.7.6-1.4,1.1-2.3,1.5,0,0-.2-.2-.2-.2.7-3.8,3.5-7,7.2-8.3,1.8-.8,3.7-1.2,5.7-.9,1.9.2,3.7,1,5.1,2.2,0,0-.2.2-.2.2h0Z"/>
      <path class="cls-4" d="M127,114.6c3.2-6,12.6-7.2,17.2-2.3-3-.1-5.9-.4-8.8,0-2.9.4-5.6,1.2-8.5,2.2h0Z"/>
      <path class="cls-4" d="M90.1,102.9c6-3.4,15.2.8,15.3,8-1.7-1.8-3.1-3.2-5-4.4-3.2-2-6.6-2.8-10.3-3.6h0Z"/>
    </g>
  </g>
</svg>