<?xml version="1.0" encoding="UTF-8"?>
<svg xmlns="http://www.w3.org/2000/svg" version="1.1" viewBox="0 0 250 250">
  <defs>
    <style>
      .cls-1 {
        fill: #dfd0b8;
      }
    </style>
  </defs>
  <!-- Generator: Adobe Illustrator 28.6.0, SVG Export Plug-In . SVG Version: 1.2.0 Build 709)  -->
  <g>
    <g id="Layer_1">
      <g>
        <path class="cls-1" d="M124.2,141.3c24-23.1,47.8-46.1,71.8-69.1-2.2-1.5-4.5-1.7-6.8-1.7-43.3,0-86.5,0-129.8,0-.9,0-1.8,0-2.7.1-2.1.3-3.9,1.1-5.5,2.5,24.4,22.8,48.7,45.4,73.1,68.2ZM101.7,134.1c-15.8,15.2-31.5,30.3-47.1,45.4,0,.2,0,.3,0,.5,1.6.1,3.2.4,4.9.4,35.2,0,70.5,0,105.7,0,8.1,0,16.3,0,24.4,0,2.1,0,4.2-.2,6.2-1.5-16.2-15.2-32.4-30.3-48.7-45.5-.5.4-.8.7-1.2,1.1-5.8,5.6-11.6,11.2-17.5,16.8-2.8,2.7-5.3,2.7-8,.1-2.7-2.5-5.4-5.1-8.2-7.6-3.4-3.2-6.9-6.4-10.5-9.7ZM47.2,171.9c.2,0,.3,0,.5.1,15.5-14.9,31-29.8,46.5-44.8-15.7-14.7-31.4-29.2-47-43.8v88.4ZM154.1,126.4c15.6,14.6,31.2,29.1,46.9,43.8v-88.9c-15.7,15.2-31.2,30.1-46.9,45.2Z"/>
        <path class="cls-1" d="M124.2,141.3c-24.4-22.7-48.7-45.4-73.1-68.2,1.6-1.4,3.5-2.2,5.5-2.5.9-.1,1.8-.1,2.7-.1,43.3,0,86.5,0,129.8,0,2.3,0,4.6.2,6.8,1.7-23.9,23.1-47.8,46.1-71.8,69.1Z"/>
        <path class="cls-1" d="M101.7,134.1c3.6,3.3,7,6.5,10.5,9.7,2.7,2.5,5.4,5.1,8.2,7.6,2.8,2.6,5.3,2.6,8-.1,5.8-5.6,11.7-11.2,17.5-16.8.4-.3.7-.7,1.2-1.1,16.3,15.2,32.4,30.3,48.7,45.5-2,1.3-4,1.5-6.2,1.5-8.1,0-16.3,0-24.4,0-35.2,0-70.5,0-105.7,0-1.6,0-3.2-.3-4.9-.4,0-.2,0-.3,0-.5,15.7-15.1,31.3-30.2,47.1-45.4Z"/>
        <path class="cls-1" d="M47.2,171.9v-88.4c15.6,14.6,31.2,29.1,47,43.8-15.6,15-31,29.9-46.5,44.8-.2,0-.3,0-.5-.1Z"/>
        <path class="cls-1" d="M154.1,126.4c15.6-15,31.1-30,46.9-45.2v88.9c-15.7-14.6-31.2-29.1-46.9-43.8Z"/>
      </g>
    </g>
  </g>
</svg>