<?xml version="1.0" encoding="UTF-8"?>
<svg xmlns="http://www.w3.org/2000/svg" version="1.1" viewBox="0 0 250 250">
  <defs>
    <style>
      .cls-1 {
        fill: #3c5b6f;
      }

      .cls-2 {
        fill: #dfd0b8;
      }
    </style>
  </defs>
  <!-- Generator: Adobe Illustrator 28.6.0, SVG Export Plug-In . SVG Version: 1.2.0 Build 709)  -->
  <g>
    <g id="Layer_1">
      <g>
        <rect class="cls-2" x="67.2" y="115" width="30.8" height="60.9" rx="2.5" ry="2.5"/>
        <rect class="cls-2" x="107" y="115" width="89.6" height="60.9" rx="3" ry="3"/>
        <rect class="cls-2" x="115" y="61.4" width="68.3" height="45.5" rx="1.5" ry="1.5"/>
        <rect class="cls-1" x="131.1" y="130" width="12.1" height="9.3" rx=".2" ry=".2"/>
        <rect class="cls-1" x="145.8" y="130" width="12.1" height="9.3" rx=".2" ry=".2"/>
        <rect class="cls-1" x="160.4" y="130" width="12.1" height="9.3" rx=".2" ry=".2"/>
        <rect class="cls-1" x="131.2" y="141.6" width="12.1" height="9.3" rx=".2" ry=".2"/>
        <rect class="cls-1" x="145.8" y="141.6" width="12.1" height="9.3" rx=".2" ry=".2"/>
        <rect class="cls-1" x="160.4" y="141.6" width="12.1" height="9.3" rx=".2" ry=".2"/>
        <rect class="cls-1" x="131.2" y="153.2" width="12.1" height="9.3" rx=".2" ry=".2"/>
        <rect class="cls-1" x="145.9" y="153.2" width="12.1" height="9.3" rx=".2" ry=".2"/>
        <rect class="cls-1" x="160.5" y="153.2" width="12.1" height="9.3" rx=".2" ry=".2"/>
        <rect class="cls-1" x="123.4" y="94.7" width="53.3" height="4.6" rx=".2" ry=".2"/>
        <rect class="cls-1" x="123.4" y="81.8" width="25.7" height="4.6" rx=".2" ry=".2"/>
      </g>
    </g>
  </g>
</svg>