<?xml version="1.0" encoding="UTF-8"?>
<svg xmlns="http://www.w3.org/2000/svg" version="1.1" viewBox="0 0 250 250">
  <defs>
    <style>
      .cls-1 {
        fill: #3c5b6f;
      }

      .cls-2 {
        fill: #dfd0b8;
      }
    </style>
  </defs>
  <!-- Generator: Adobe Illustrator 28.6.0, SVG Export Plug-In . SVG Version: 1.2.0 Build 709)  -->
  <g>
    <g id="Layer_1">
      <g>
        <path class="cls-2" d="M120.1,239.9c62.3.3,113.4-50,114.5-112.2,1.2-64.7-50.7-115.6-112.3-116.7C57.6,9.8,5.5,62,5.6,125.2c0,63.6,51,114.7,114.5,114.7Z"/>
        <path class="cls-2" d="M120.1,239.9c-63.5,0-114.4-51.1-114.5-114.7,0-63.1,52-115.4,116.7-114.2,61.6,1.1,113.5,52,112.3,116.7-1.1,62.2-52.2,112.5-114.5,112.2ZM151.7,125.2c.7-8.4,1.4-16.3,2.2-24.7h-22.7c0-4.5,0-8.6,0-12.8,0-8.7.9-9.5,9.5-9.5,4.3,0,8.7,0,13.1,0v-25.6c-11.5.6-22.9-1.2-34,1.8-10,2.7-16.1,9.2-17.5,19.6-.6,4.6-.5,9.2-.6,13.8,0,4.2,0,8.5,0,13h-15.3v24.9h15.4v73.6c8.9,0,17.6,0,26.2,0,2.5,0,3.3-.6,3.3-3.2-.1-22.5,0-45,0-67.5v-3.5h20.5Z"/>
        <path class="cls-1" d="M153.9,125.2h-20.5v3.5c0,22.5,0,45,0,67.5,0,2.6-.8,3.3-3.3,3.2-8.6-.1-17.2,0-26.2,0v-73.6h-15.4v-24.9h15.3c0-4.6,0-8.8,0-13,0-4.6,0-9.3.6-13.8,1.4-10.3,7.4-16.8,17.5-19.6,11.2-3,22.6-1.2,34-1.8v25.6c-4.5,0-8.8,0-13.1,0-8.6,0-9.5.9-9.5,9.5,0,4.2,0,8.3,0,12.8h22.7c-.7,8.3-1.4,16.3-2.2,24.7Z"/>
      </g>
    </g>
  </g>
</svg>