<?xml version="1.0" encoding="UTF-8"?>
<svg xmlns="http://www.w3.org/2000/svg" version="1.1" viewBox="0 0 250 250">
  <defs>
    <style>
      .cls-1 {
        fill: #3c5b6f;
      }

      .cls-2 {
        fill: #dfd0b8;
      }
    </style>
  </defs>
  <!-- Generator: Adobe Illustrator 28.6.0, SVG Export Plug-In . SVG Version: 1.2.0 Build 709)  -->
  <g>
    <g id="Layer_1">
      <g>
        <path class="cls-2" d="M125.5,247.2c21,0,42,0,63,0,.9,0,1.7,0,2.6-.1,29-1.5,51.9-25,52.1-54,.2-42.2.2-84.5,0-126.7-.2-29-23.1-52.9-52.2-53.8-23.4-.7-46.9-.3-70.3-.3-20,0-40-.4-60,.2-29.2,1-52.1,25.4-52.2,54.6,0,41.7,0,83.5,0,125.2,0,3.5.4,7.1,1.1,10.5,5.5,26.4,27.3,44,54.8,44.2,20.4.1,40.8,0,61.1,0Z"/>
        <path class="cls-2" d="M125.5,247.2c-20.4,0-40.8.1-61.1,0-27.6-.2-49.4-17.8-54.8-44.2-.7-3.4-1.1-7-1.1-10.5,0-41.7,0-83.5,0-125.2,0-29.3,22.9-53.7,52.2-54.6,20-.7,40-.2,60-.2,23.4,0,46.9-.5,70.3.3,29.1.9,52,24.7,52.2,53.8.3,42.2.2,84.5,0,126.7-.2,29-23.1,52.5-52.1,54-.9,0-1.7.1-2.6.1-21,0-42,0-63,0ZM212,130.1c0-11.8,0-23.7,0-35.5,0-28.8-21.5-50.7-50.3-50.9-23.9-.2-47.8-.1-71.7,0-28.7.2-50.2,21.2-50.6,49.8-.4,24.3-.4,48.6,0,72.9.4,28.6,22.3,49.8,51,49.8,23.8,0,47.6,0,71.4,0,28.4-.1,50.2-22.2,50.2-50.6,0-11.8,0-23.7,0-35.5Z"/>
        <path class="cls-1" d="M212,130.1c0,11.8,0,23.7,0,35.5,0,28.4-21.9,50.5-50.2,50.6-23.8,0-47.6,0-71.4,0-28.7,0-50.6-21.2-51-49.8-.3-24.3-.4-48.6,0-72.9.4-28.6,22-49.6,50.6-49.8,23.9-.1,47.8-.2,71.7,0,28.7.2,50.2,22.1,50.3,50.9,0,11.8,0,23.7,0,35.5ZM125.6,200.5c12,0,23.9,0,35.9,0,20.2,0,34.3-14.2,34.3-34.4,0-23.9,0-47.9,0-71.8,0-19.7-14.2-34-33.9-34.1-24.2,0-48.3,0-72.5,0-19.7,0-33.9,14.3-33.9,34.1,0,24,0,48.1,0,72.1,0,19.8,14.2,34,33.9,34,12.1,0,24.2,0,36.2,0Z"/>
        <path class="cls-2" d="M125.6,200.5c-12.1,0-24.2,0-36.2,0-19.7,0-33.9-14.2-33.9-34,0-24,0-48.1,0-72.1,0-19.8,14.2-34,33.9-34.1,24.2,0,48.3,0,72.5,0,19.7,0,33.9,14.4,33.9,34.1,0,23.9,0,47.9,0,71.8,0,20.2-14.1,34.3-34.3,34.4-12,0-23.9,0-35.9,0ZM170.4,130.5c0-24.9-19.8-44.9-44.8-45-24.5-.1-44.7,20.1-44.7,44.7,0,24.8,19.8,44.9,44.5,45,24.9.1,45-19.9,45.1-44.7ZM171.4,94.5c5.6.3,10.6-4.3,10.9-10.1.3-5.8-4.1-10.6-9.9-11-5.7-.4-10.8,4.1-11.1,9.8-.3,6,4.2,11,10.1,11.3Z"/>
        <path class="cls-1" d="M170.4,130.5c0,24.8-20.2,44.9-45.1,44.7-24.6-.1-44.5-20.2-44.5-45,0-24.7,20.2-44.9,44.7-44.7,25,.1,44.9,20.1,44.8,45ZM96.8,130.4c0,15.9,13,28.8,29,28.7,15.8,0,28.6-12.8,28.7-28.7,0-15.9-12.8-28.9-28.8-28.9-15.9,0-28.8,12.9-28.8,28.8Z"/>
        <path class="cls-1" d="M171.4,94.5c-5.9-.3-10.4-5.3-10.1-11.3.3-5.7,5.3-10.2,11.1-9.8,5.8.4,10.2,5.2,9.9,11-.3,5.7-5.3,10.3-10.9,10.1Z"/>
        <path class="cls-2" d="M96.8,130.4c0-16,12.9-28.9,28.8-28.8,16,0,28.9,13,28.8,28.9,0,15.8-12.9,28.6-28.7,28.7-16,0-28.9-12.8-29-28.7Z"/>
      </g>
    </g>
  </g>
</svg>