<?xml version="1.0" encoding="UTF-8"?>
<svg xmlns="http://www.w3.org/2000/svg" version="1.1" viewBox="0 0 250 250">
  <defs>
    <style>
      .cls-1 {
        fill: #dfd0b8;
      }
    </style>
  </defs>
  <!-- Generator: Adobe Illustrator 28.6.0, SVG Export Plug-In . SVG Version: 1.2.0 Build 709)  -->
  <g>
    <g id="Layer_1">
      <path class="cls-1" d="M90.2,73.4s4.1-6.5,9.5-1.1l18.7,18.8s3.5,2.5-1.4,7.4l-11.1,11.4s-5.5,4.9,1.8,13.6c0,0,21.6,27.9,35.1,30.6,0,0,3.8,3.5,14.8-10.5,0,0,6.1-9.7,11.5-1.8l16.5,16.5s5.9,5.4-2.8,11.9c0,0-13.1,14.8-34.6,6.3,0,0-40-12.5-64-58.5,0,0-12.8-20.6-1.9-35.6l8-9Z"/>
    </g>
  </g>
</svg>