<?xml version="1.0" encoding="UTF-8"?>
<svg xmlns="http://www.w3.org/2000/svg" version="1.1" viewBox="0 0 250 200">
  <defs>
    <style>
      .cls-1 {
        fill: #e1cfb4;
      }

      .cls-2 {
        fill: #073b54;
      }
    </style>
  </defs>
  <!-- Generator: Adobe Illustrator 28.6.0, SVG Export Plug-In . SVG Version: 1.2.0 Build 709)  -->
  <g>
    <g id="Layer_1">
      <g id="Layer_1-2" data-name="Layer_1">
        <g id="Layer_1-2">
          <g>
            <path class="cls-2" d="M26.1,91.6c0,1.8.6,2.8,1.8,2.8s.5,0,.9,0h.9c.3,0,.6,0,.8.3.2.2.3.5.3.8,0,.8-.6,1.3-1.6,1.3h-.5l-1.8-.2c-.7,0-1.5,0-2.3,0s-1.7,0-2.4,0l-1.8.2h-.5c-1,0-1.6-.5-1.6-1.3s.3-1.2,1.2-1.2h1.8c1.3,0,1.8-.9,1.8-2.8v-14.9c0-1.7-.9-2.7-2.7-2.7h-1.2c-1.7,0-2.7.8-2.7,2.5s0,1,0,1.3v1.4c.1.2.2.6.2.9,0,1.5-.5,2.3-1.4,2.3s-1.4-.6-1.4-1.7v-5.8c0-1.3-.1-1.8-.1-1.6,0-1,.5-1.5,1.4-1.5h2.4c.1,0,1.2,0,3,0h12.8c1.3,0,1.8.5,1.8,1.5h0v1.4c0,.7,0,1.4-.2,2.1v2.1c0,1,0,1.6,0,2,0,1-.5,1.5-1.4,1.5s-1.4-.6-1.4-1.8v-3.9c0-1.7-.9-2.5-2.9-2.5h-1c-.9,0-1.5.2-2,.6-.3.3-.6,1-.7,1.8v2.5c-.1,0-.1,12.5-.1,12.5h.5Z"/>
            <path class="cls-2" d="M43.4,72.9v7.2c.8-.9,1.7-1.6,2.5-2,.8-.3,1.7-.6,2.9-.6,2.1,0,3.8.6,5.1,1.8,1.3,1.2,2,2.8,2,4.7v8.5c0,1.3.5,1.8.9,1.8s.5,0,.8-.2h.6c.9,0,1.4.5,1.4,1.3s-.6,1.3-1.7,1.3h-1.4c-1,0-1.8-.2-2.5-.2h-1.5c-1,0-1.6.2-2,.2s-.8,0-1.2-.3c-.3-.2-.5-.6-.5-.9s0-.6.3-.8.6-.3.9-.3.6,0,.9.2h.6c.7,0,1.2-.8,1.2-2.4v-5.3c0-2.5-.2-4.2-.7-5-.7-1.3-2-2-3.7-2s-3.3.7-4.3,2c-.6.9-.9,2.3-.9,4.4v2.7c0,0,0,.3,0,.7v3.1c0,1.2.5,1.8,1,1.8s.5,0,.8,0,.6,0,.8,0c.8,0,1.2.3,1.2,1.2s-.6,1.3-1.6,1.3h-1.5c-.9,0-1.7,0-2.4,0h-1.7c-1,0-1.6,0-1.8,0-1,0-1.5-.5-1.5-1.4s.5-1.2,1.4-1.2.6,0,.7,0c.5,0,.7,0,.9,0,.3,0,.7-.3.8-1.2,0-.7.2-2.3.2-4.6v-6.6c0-3.7,0-6-.2-6.9,0-.9-.5-1.5-1-1.5h-1.6c-.8,0-1.3-.3-1.3-1.2s0-.6.5-.9.7-.3,1-.3h4.5c.6,0,.8.5.8,1.3h0l.5.5h-.1Z"/>
            <path class="cls-2" d="M77.7,85.7c0,.9,0,1.5-.2,1.7,0,.2-.5.3-1,.3h-11.7c-.3,0-.6,0-.6,0,0,0,0,.2,0,.5,0,1.8.6,3.3,1.6,4.6,1.2,1.3,2.4,1.8,4.2,1.8s2.1-.3,3-.9,1.5-1.4,1.7-2.2l.3-1c0-.6.6-.9,1.2-.9.9,0,1.4.5,1.4,1.4,0,1.6-.8,3-2.4,4.3s-3.5,1.8-5.5,1.8-4.6-.8-6.1-2.5-2.3-4-2.3-6.9.8-5.4,2.4-7.3c1.6-1.8,3.7-2.8,6.3-2.8s4.2.8,5.7,2.3,2.2,3.5,2.2,5.9v-.2h0ZM64.5,84.8c0,.3.2.5.8.5h8.8c.5,0,.8,0,.8-.5,0-1.3-.5-2.4-1.5-3.3-.9-.9-2.1-1.4-3.5-1.4s-2.7.5-3.7,1.5-1.7,2.1-1.7,3.3h0Z"/>
            <path class="cls-2" d="M110.5,77.7c0,2.5-1.4,4.3-4.3,5.3,1,.3,1.8.7,2.5,1,2,1.2,3,2.9,3,5.2s-.9,4-2.7,5.3c-1.7,1.4-4,2-6.9,2s-2.4,0-4-.2-2.8-.2-3.6-.2h-1.8l-1.7.2h-.5c-1,0-1.6-.5-1.6-1.3s.3-1.2,1.2-1.2h1.8c1.3,0,1.8-.9,1.8-2.7v-14.8c0-1.8-.6-2.8-1.8-2.8s-.5,0-.8,0h-1c-.8,0-1.2-.3-1.2-1.2s.6-1.3,1.7-1.3h.5l1.8.2h2.1c.9,0,2.2,0,3.9-.2,1.2,0,2.4,0,3.7,0,2.4,0,4.4.5,5.8,1.5s2.1,2.5,2.1,4.4v.9ZM96.4,79.3c0,1.3,0,2.1.3,2.4s.9.5,2,.5h2.1c4.3,0,6.5-1.4,6.5-4.2s-1.7-3.8-5.3-3.8-4,0-4.6.5-.8,1.2-.8,2.4v2.3h-.2ZM96.4,86.7v4c0,1.6.2,2.5.8,2.9s2,.6,4.4.6c4.6,0,6.8-1.7,6.8-5.1s-2.2-4.7-6.6-4.7h-3c-1.3,0-2.1.3-2.3.9,0,.3,0,.8-.1,1.4Z"/>
            <path class="cls-2" d="M130.7,96.9c-2,0-3.2-.9-3.7-2.7-1.3,1.8-3.2,2.8-5.9,2.8s-3.6-.5-4.7-1.5c-1.2-.9-1.7-2.3-1.7-3.9s.9-3.5,2.7-4.5c.7-.3,1.3-.6,1.7-.7s1.4-.2,2.9-.5c2.1-.2,3.3-.6,4-.9.6-.3.9-1.2.9-2.2s-.3-1.8-1-2.3c-.7-.6-1.6-.8-2.9-.8s-2.1.3-3.1.9c-.3.2-.6.5-.6.8s0,.2.3.3c.3.2.5.7.5,1.3s-.2.9-.6,1.2c-.3.3-.8.5-1.4.5s-1.2-.2-1.6-.7-.7-.9-.7-1.6c0-1.4.7-2.5,2.1-3.5,1.4-.9,3-1.5,5-1.5,4.5,0,6.7,2.1,6.7,6.3v9.5c.1.8.6,1.3,1.3,1.3s1.3-.8,1.3-2.3v-1.7c0-.8.3-1.2,1.2-1.2s1.2.6,1.2,1.7v2.3c0,2.3-1.3,3.5-3.7,3.5h-.2ZM126.7,89.6v-2.7c-.6.5-1.2.8-1.7,1-.6.2-1.6.3-3.2.5-2.8.2-4.2,1.3-4.2,3.1s.3,1.6,1,2.2,1.6.8,2.8.8,2.9-.5,3.8-1.4,1.4-2.1,1.5-3.7h0v.2Z"/>
            <path class="cls-2" d="M141.2,79.2v1c1.3-1.7,3-2.7,5.1-2.7s3.1.5,4.2,1.5c1,.9,1.6,2.2,1.6,3.7s-.2,2-.8,2.7-1.3,1-2.1,1-1,0-1.4-.5-.6-.8-.6-1.3.1-.7.5-1c.3-.3.6-.5,1-.5h.5c.1-.3.2-.6.2-.8,0-.7-.3-1.3-.9-1.8-.6-.5-1.4-.7-2.3-.7-2,0-3.2.8-3.8,2.5-.3,1-.6,2.7-.6,4.7v5.2c.1,1.4.5,2.1,1.2,2.1s.7,0,1,0h.7c.8,0,1.2.3,1.2,1.2s-.5,1.3-1.5,1.3h-.1c-.3,0-.9,0-1.6,0-.7,0-1.3,0-1.6,0h-2.3l-2.1.2c-1,0-1.5-.5-1.5-1.3s.5-1.2,1.4-1.2.5,0,.6,0h.6l.5.2c.6,0,.9-.6,1-1.7v-10.2c-.2-1.4-.6-2.2-1.2-2.2h-1.6c-.8,0-1.2-.3-1.2-1.2s.6-1.3,1.6-1.3h3.9c.6,0,.9.3.9,1h-.5v.4Z"/>
            <path class="cls-2" d="M159.4,87.2l6.2-5.9c.2-.2.3-.5.3-.7s-.1-.3-.5-.3-.6,0-1,0c-.5,0-.8,0-1,0-.8,0-1.3-.3-1.3-1.2s.6-1.3,1.6-1.3h1c1.7.2,3,.3,3.8.3h1.3l1.5-.2h.8c1.2,0,1.8.5,1.8,1.3s-.5,1.2-1.3,1.2h-1.6c-.6,0-1.3.3-2,.9l-3.8,3.5c-.2.2-.3.5-.3.6s0,.3.3.6l4.7,6.1c1.2,1.5,2.1,2.3,2.5,2.3h1.3c.9,0,1.3.3,1.3,1.2s-.6,1.3-1.7,1.3-1,0-2,0c-.9,0-1.5,0-2,0s-.9,0-1.7,0c-.7,0-1.3,0-1.6,0-.9,0-1.4-.5-1.4-1.3s.5-1.2,1.3-1.2.5,0,.6,0c.5,0,.7.2.8.2.2,0,.3,0,.3-.2h0v-.2l-.3-.5-.5-.7-3.7-4.8c-.2-.3-.5-.5-.6-.5s-.2,0-.6.3l-2.7,2.4v2.8c.1.8.5,1.3,1,1.3h1.3c.8,0,1.3.3,1.3,1.2s-.5,1.2-1.4,1.2-1,0-1.8,0c-.8,0-1.5,0-2,0s-1.2,0-2,0c-.9,0-1.5.2-1.8.2-.9,0-1.4-.3-1.4-1.2s.5-1.2,1.4-1.2.5,0,.7,0h.8c.6,0,.9-.5,1-1.4v-16.2c0-1.3-.1-2.2-.2-2.5-.1-.3-.3-.6-.8-.6h-.7c-.3,0-.7.2-1,.2-.8,0-1.3-.3-1.3-1.2s.5-1.3,1.4-1.3h4.2c.8,0,1.2.5,1.2,1.5v14.1-.3h.3Z"/>
            <path class="cls-2" d="M192.4,85.7c0,.9,0,1.5-.2,1.7-.1.2-.5.3-1,.3h-11.7c-.3,0-.6,0-.6,0s-.1.2-.1.5c0,1.8.6,3.3,1.6,4.6,1.2,1.3,2.4,1.8,4.2,1.8s2.1-.3,3-.9,1.5-1.4,1.7-2.2l.3-1c.1-.6.6-.9,1.2-.9.9,0,1.4.5,1.4,1.4,0,1.6-.8,3-2.4,4.3-1.6,1.3-3.5,1.8-5.5,1.8s-4.6-.8-6.1-2.5-2.3-4-2.3-6.9.8-5.4,2.4-7.3c1.6-1.8,3.7-2.8,6.3-2.8s4.2.8,5.7,2.3,2.2,3.5,2.2,5.9v-.2h0ZM179.1,84.8c0,.3.2.5.8.5h8.8c.5,0,.8,0,.8-.5,0-1.3-.5-2.4-1.5-3.3-.9-.9-2.1-1.4-3.5-1.4s-2.7.5-3.7,1.5-1.7,2.1-1.7,3.3h0Z"/>
            <path class="cls-2" d="M200.6,79.2v1c1.3-1.7,3-2.7,5.1-2.7s3.1.5,4.2,1.5c1,.9,1.6,2.2,1.6,3.7s-.2,2-.8,2.7-1.3,1-2.1,1-1,0-1.4-.5-.6-.8-.6-1.3.1-.7.5-1c.3-.3.6-.5,1-.5h.5c.1-.3.2-.6.2-.8,0-.7-.3-1.3-.9-1.8-.6-.5-1.4-.7-2.3-.7-2,0-3.2.8-3.8,2.5-.3,1-.6,2.7-.6,4.7v5.2c.1,1.4.5,2.1,1.2,2.1s.7,0,1,0h.7c.8,0,1.2.3,1.2,1.2s-.5,1.3-1.5,1.3h-.1c-.3,0-.9,0-1.6,0-.7,0-1.3,0-1.6,0h-2.3l-2.1.2c-1,0-1.5-.5-1.5-1.3s.5-1.2,1.4-1.2.5,0,.6,0h.6l.5.2c.6,0,.9-.6,1-1.7v-10.2c-.2-1.4-.6-2.2-1.2-2.2h-1.6c-.8,0-1.2-.3-1.2-1.2s.6-1.3,1.6-1.3h3.9c.6,0,.9.3.9,1h-.5v.4Z"/>
            <path class="cls-2" d="M219.7,81.6l4.2,12.4,4.5-12.2c.1-.3.2-.6.2-.8,0-.5-.2-.6-.8-.6h-1.5c-.8,0-1.2-.3-1.2-1.2s.6-1.3,1.6-1.3.3,0,.7,0l1.3.2h1.2c.5,0,1,0,1.8,0,.8,0,1.4,0,1.8,0,1,0,1.6.5,1.6,1.3s-.3,1.2-1.2,1.2-.5,0-.6,0h-.7c-.5,0-.9.6-1.4,1.8l-5,12.5c-1.2,2.8-2.2,4.7-3.1,6-1.6,2.1-3.7,3.2-6.2,3.2s-2.8-.3-3.8-1.2c-1-.8-1.5-1.6-1.5-2.8s.2-1.4.7-1.8c.5-.5,1-.7,1.7-.7s1,0,1.4.5.6.7.6,1.3-.3,1.3-1,1.5c.3.6,1,.8,2.1.8s2.4-.5,3.5-1.5c1-.9,1.5-2.1,1.5-3.2s-.3-1.7-1-3.5l-4-10.2-.5-1.2c-.5-1.2-.9-1.6-1.4-1.6h-1.6c-.8,0-1.3-.3-1.3-1.2s.6-1.3,1.7-1.3.7,0,.8,0l1.5.2h.8c.9,0,1.8,0,2.8,0,.8,0,1.3,0,1.5,0,1,0,1.5.3,1.5,1.2s-.5,1.2-1.4,1.2-.3,0-.7,0h-.7c-.3,0-.5,0-.5.5s0,.5.1.7v.2h0Z"/>
          </g>
          <path class="cls-2" d="M222.7,43.1c.3-.6.7-1,.8-1.4,1.2-3.5,1.4-7,.2-10.5-.3-.9-.8-1.8-1.5-2.5-1.4-1.4-3.2-1.8-5.2-2-3.3,0-6.6.7-9.9,1.3-3.5.7-6.8,1.4-10.4,1.4s-1-.1-1.2-.8c-.2-.7-.5-1.4-.7-2.1-.8-2.4-1.5-4.8-2.9-6.9s-3.1-3.5-5.8-3.5c-8.2,0-16.3-.3-24.5-.3-12.6,0-25.2.3-37.8.5-8.8,0-17.7.1-26.4.1h-27.6c-3,0-6.1-.1-9,.7-1,.2-2.2.7-2.9,1.5-1.3,1.5-2.3,3.2-3.2,5.1-.7,1.6-1,3.3-1.6,5-.6,1.8-1.3,2.3-3.3,2.1s-1.2-.1-1.7-.2c-3.2-.7-6.5-1.4-9.7-2.1-2.8-.6-5.5-.8-8.4-.1-2,.5-3.6,1.5-4.3,3.5-1.5,4-1.3,8.2.8,12,1.4,2.5,3.6,3.9,6.6,3.7,1.3,0,2.5-.2,3.7-.6,2.9-.8,5.8-1.6,8.7-2.4,1.7-.5,3.5-.7,5.2-.3,1.3.2,2.2.8,2.3,2.2,0,.7.3,1.4.5,2.1.7,2.9,1.6,5.7,3.5,8.1,1.4,2,3.1,3.3,5.8,3.5,1,0,2.1.2,3.1.2h20c12.9,0,25.7-.2,38.7-.3,13.7,0,27.5-.2,41.1-.2s13.5,0,20.2,0c3,0,5.1-1.3,6.6-3.7.6-.9,1-1.8,1.3-2.9.7-2.4,1.4-4.8,2.1-7.3.6-2.1,1.2-2.5,3.3-2.5,3.5,0,6.7.7,10,1.6,2.1.6,4,1.3,6.1,1.5,3.1.3,6-.5,7.7-3.1h-.2v-.4Z"/>
          <g id="UQzOsc.tif">
            <g>
              <path class="cls-1" d="M134,46.2c.8-.5,1.6-1,2.2-1.7.7-.8,1-1.8.9-2.9,0-1.3-.7-2.2-1.7-3-.8-.7-1.8-1-2.9-1.2-.8,0-1.5-.3-2.2-.7s-.8-.6-1.3-.8c-.9-.6-2-.9-3-.9s-1.8.3-2.7.9c-.8.6-1.4,1.3-1.7,2.2-.2.6-.3,1.3-.3,1.8,0,1.3-.3,2.4-.9,3.6-.2.6-.5,1.3-.6,2,0,.9,0,2,.3,2.9.7,1.4,1.8,2.1,3.3,2.2,1.3,0,2.5-.3,3.7-.9.6-.3,1-.8,1.6-1.3.5-.3.8-.8,1.4-1,.5-.2.9-.3,1.5-.5.8,0,1.6-.3,2.4-.8h-.1.1ZM120.8,31.2c-.2-.5-.5-.8-.7-1.3-.5-.7-.9-1.4-1.5-2.1-.3-.3-.7-.7-1.2-.8-.5-.2-1-.2-1.5.1s-.8.8-1,1.3c-.6,1-.8,2.1-.9,3.2,0,1.6.2,3.1,1.4,4.3s1.4,1.3,2.4,1.5c.8.2,1.6,0,2.3-.3,1-.7,1.5-1.7,1.5-2.9s-.2-2.1-.7-3h-.1ZM122.5,30.3c0,.2.2.5.3.7.6.9,1.4,1.7,2.4,2.2.6.2,1.3.5,2,.2,1.3-.2,2-1,2.3-2.2.5-2,0-3.7-1.5-5.2s-2.2-1.6-3.6-1.8c-.6-.1-1.2-.2-1.7-.1-.9.1-1.4.7-1.5,1.5v1.4c.2,1.2.7,2.2,1.3,3.3h0ZM136.5,30.6c-.3-.7-.9-1.4-1.5-2-.5-.5-1-.8-1.6-1-.8-.2-1.5,0-2,.7-.1.2-.3.6-.3.8-.3.9-.3,1.8-.5,2.8,0,.8,0,1.7.3,2.5s.7,1.5,1.5,2c.8.6,1.7.7,2.7.2.7-.2,1-.8,1.4-1.4.8-1.5.8-3.1,0-4.7h0ZM119.3,40.7c0-.3-.5-.7-.8-1-.8-.8-1.6-1.4-2.7-1.8-.6-.3-1.3-.6-2-.6s-1.2,0-1.5.7c-.3.5-.5.9-.5,1.5,0,.9,0,1.8.5,2.7.5,1.2,1.2,2.1,2.2,2.7.9.6,1.8.8,3,.6,1.4-.2,2.2-1.2,2.2-2.5s-.2-1.3-.6-2h0v-.3Z"/>
              <path class="cls-1" d="M134,46.2c-.8.3-1.6.6-2.4.8-.5,0-1,.2-1.5.5-.6.2-.9.6-1.4,1s-.9.9-1.6,1.3c-1.2.7-2.3,1-3.7.9-1.5,0-2.7-.8-3.3-2.2-.5-.9-.5-1.8-.3-2.9,0-.7.3-1.3.6-2,.5-1.2.8-2.3.9-3.6,0-.6,0-1.3.3-1.8.3-.9.9-1.6,1.7-2.2s1.7-.9,2.7-.9,2.1.2,3,.9c.5.2.8.6,1.3.8.7.3,1.4.6,2.2.7,1,.2,2,.6,2.9,1.2,1,.8,1.6,1.7,1.7,3,0,1-.2,2.1-.9,2.9-.6.8-1.4,1.3-2.2,1.7h.1-.1Z"/>
              <path class="cls-1" d="M120.8,31.2c.5.9.8,2,.7,3,0,1.2-.5,2.2-1.5,2.9-.7.5-1.5.6-2.3.3-.9-.2-1.7-.8-2.4-1.5-1.2-1.3-1.5-2.7-1.4-4.3,0-1.2.3-2.2.9-3.2.2-.5.6-.9,1-1.3s.9-.3,1.5-.1c.5.2.8.5,1.2.8.6.6,1,1.3,1.5,2.1.2.5.5.8.7,1.3h.1Z"/>
              <path class="cls-1" d="M122.5,30.3c-.6-1.2-1-2.2-1.3-3.3,0-.5,0-.9,0-1.4,0-.8.7-1.4,1.5-1.5.6,0,1.2,0,1.7.1,1.4.3,2.7.9,3.6,1.8,1.4,1.4,2,3.1,1.5,5.2-.3,1.2-1.2,2-2.3,2.2-.7,0-1.3,0-2-.2-1-.5-1.8-1.2-2.4-2.2,0-.2-.2-.5-.3-.7Z"/>
              <path class="cls-1" d="M136.5,30.6c.8,1.6.7,3.1,0,4.7-.3.6-.8,1.2-1.4,1.4-.9.3-1.8.2-2.7-.2-.7-.5-1.2-1.2-1.5-2s-.3-1.6-.3-2.5,0-1.8.5-2.8c0-.2.2-.6.3-.8.5-.7,1.2-.9,2-.7.7.2,1.2.6,1.6,1,.6.6,1.2,1.3,1.5,2h0Z"/>
              <path class="cls-1" d="M119.3,40.7c.3.7.6,1.3.6,2,0,1.4-.8,2.3-2.2,2.5-1,.2-2.1,0-3-.6-1-.6-1.7-1.5-2.2-2.7-.3-.8-.5-1.7-.5-2.7s0-1,.5-1.5c.3-.6.9-.7,1.5-.7s1.4.3,2,.6c.9.5,1.8,1.2,2.7,1.8.3.3.6.7.8,1h0v.3Z"/>
            </g>
          </g>
          <polygon class="cls-2" points="18.9 106.5 230.2 106.5 224.5 116.6 230.2 126.3 18.9 126.3 24.6 116.4 18.9 106.5"/>
          <g>
            <path class="cls-1" d="M39.9,117v-3.7c0-.7-.2-1.2-.8-1.2s-.2,0-.3,0h-.3s-.2,0-.3,0,0-.2,0-.3c0-.3.2-.6.7-.6s0,0,.2,0h1c.3,0,.8,0,1.3,0h4.7c.6,0,.8.2.8.7v2.9c0,.5-.2.6-.6.6s-.6-.2-.6-.7v-1.4c0-.6,0-.9-.5-1-.3,0-1-.2-2.2-.2s-1.5,0-1.6.2c0,0,0,.6,0,1.4v1.7h1c.7,0,1-.2,1-.7v-1c0-.3.2-.6.6-.6s.5.2.5.7,0,.2,0,.3v.8c0,.3-.2.7-.2.8,0,.5,0,.9,0,1.6v.6c0,.3-.2.6-.6.6s-.5-.2-.5-.7v-1c0-.3,0-.5-.2-.6h-1.2c-.3,0-.6,0-.7,0,0,0,0,.3,0,.7v1.8c0,.5,0,.8,0,.9,0,0,.3.2.6.2h.7c.5,0,.7,0,.7.5s0,.2,0,.3c0,0-.2,0-.3,0h-3.8c-.5,0-.7-.2-.7-.6s0-.5.5-.5,0,0,.3,0h.3c.2,0,.5,0,.6-.2s0-.5.2-.9v-2.4.8Z"/>
            <path class="cls-1" d="M50.1,114.3v.5c.6-.7,1.3-1.2,2.1-1.2s1.3.2,1.7.6c.5.3.7.9.7,1.5s0,.8-.3,1c-.2.2-.5.5-.9.5s-.5,0-.6-.2-.2-.3-.2-.5,0-.3.2-.5c0,0,.2-.2.5-.2h.2v-.3c0-.3,0-.6-.3-.7-.2-.2-.6-.3-.9-.3-.8,0-1.3.3-1.6,1,0,.5-.2,1-.2,2v2.2c0,.6.2.8.5.8h.7c.3,0,.5,0,.5.5s-.2.6-.6.6h-3.1c-.5,0-.6,0-.6-.5s.2-.5.6-.5.2,0,.2,0h.5c.2,0,.3-.2.5-.7v-4.3c0-.6-.2-.9-.5-.9h-.7c-.3,0-.5,0-.5-.5s.2-.6.7-.6h1.5c.2,0,.3,0,.3.5l-.2.2h-.2Z"/>
            <path class="cls-1" d="M62.1,117v.7s-.2,0-.5,0h-5.1v.2c0,.8.2,1.4.7,1.8.5.5,1,.8,1.7.8s.8,0,1.3-.3.6-.6.7-.9v-.5c.2-.2.3-.3.7-.3s.6.2.6.6c0,.7-.3,1.3-1,1.7s-1.4.8-2.3.8-2-.3-2.5-1c-.6-.7-.9-1.6-.9-2.9s.3-2.2,1-3,1.5-1.2,2.7-1.2,1.7.3,2.3.9.9,1.5.9,2.4h-.3ZM56.6,116.6c0,0,0,.2.3.2h3.6c.2,0,.3,0,.3-.2,0-.6-.2-1-.6-1.4-.5-.3-.9-.6-1.4-.6s-1,.2-1.5.6c-.5.5-.7.9-.7,1.4h0,.1Z"/>
            <path class="cls-1" d="M66.4,113.6c.7,0,1.3.2,1.7.6h0c0-.5,0-.6.5-.6s.5,0,.5.5v2.2c0,.3,0,.6-.5.6s-.5,0-.5-.5v-.5c0-.3-.2-.6-.6-.8s-.7-.3-1.2-.3-.8,0-1.2.3-.5.6-.5.9c0,.7.5,1,1.4,1.2h.9c1.7.3,2.5,1,2.5,2.3s-.2,1.3-.8,1.7-1.3.7-2.2.7-1.6-.2-2.2-.7v.2c0,.3,0,.6-.5.6s-.6-.2-.6-.6v-2.4c0-.3,0-.6.5-.6s.3,0,.3,0v.8c0,.5.2.8.7,1s1,.5,1.7.5.9,0,1.3-.3c.3-.2.5-.6.5-.9,0-.7-.6-1-1.6-1.2-1,0-1.8-.3-2.4-.6-.6-.3-.8-.8-.8-1.6s.2-1.3.8-1.7,1.3-.7,2.1-.7v-.2h.2Z"/>
            <path class="cls-1" d="M73.1,111.7v3c.3-.3.7-.7,1-.8.3,0,.7-.2,1.2-.2.9,0,1.6.2,2.1.7.6.5.8,1.2.8,2v3.6c0,.5,0,.8.3.8h.6c.3,0,.6,0,.6.5s-.2.5-.7.5h-3c-.2,0-.3,0-.5,0,0,0-.2-.2-.2-.3s0-.2,0-.3c0,0,.2,0,.3,0h.6c.3,0,.5-.3.5-1v-2.2c0-1,0-1.7-.3-2.1-.3-.6-.8-.8-1.5-.8s-1.4.2-1.7.8c-.2.3-.3.9-.3,1.8v2.7c0,.5.2.7.5.7h.7c.3,0,.5,0,.5.5s-.2.6-.7.6h-3.2c-.5,0-.6-.2-.6-.6s.2-.5.6-.5h.7c0,0,.2,0,.3-.5v-7.5c0-.3-.2-.6-.5-.6h-.7c-.3,0-.5,0-.5-.5s0-.2.2-.3c0,0,.2,0,.5,0h1.7c.2,0,.3,0,.3.5h.3v-.2Z"/>
            <path class="cls-1" d="M92.9,113.7c0,1-.6,1.7-1.7,2.2.5,0,.8.2,1,.5.8.5,1.3,1.2,1.3,2.2s-.3,1.6-1,2.2-1.7.8-2.9.8h-4.6c-.5,0-.7-.2-.7-.6s0-.5.5-.5h.8c.5,0,.8-.3.8-1.2v-6.1c0-.8-.2-1.2-.8-1.2s-.2,0-.3,0h-.5c-.3,0-.5,0-.5-.5s.2-.6.7-.6h.9c.2,0,.5,0,.8,0h3.1c1,0,1.8.2,2.4.7s.8,1,.8,1.8h0v.2ZM87,114.3c0,.6,0,.9,0,1,0,0,.3.2.8.2h.8c1.8,0,2.7-.6,2.7-1.7s-.7-1.6-2.2-1.6-1.6,0-1.8.2c-.2,0-.3.5-.3,1v.9h0ZM87,117.4v1.7c0,.7,0,1,.3,1.3.2,0,.8.2,1.8.2,1.8,0,2.9-.7,2.9-2.1s-.9-2-2.8-2h-1.3c-.6,0-.8,0-.9.3v.6h0,0Z"/>
            <path class="cls-1" d="M101.2,121.6c-.8,0-1.4-.3-1.5-1-.5.8-1.3,1.2-2.4,1.2s-1.5-.2-2-.6c-.5-.5-.7-.9-.7-1.6s.3-1.5,1-1.8c.2,0,.5-.2.7-.3.2,0,.6,0,1.2-.2.8,0,1.4-.2,1.6-.3.2,0,.3-.5.3-.9s0-.7-.5-.9c-.2-.2-.7-.3-1.2-.3s-.9,0-1.3.3c0,0-.2.2-.2.3s0,0,0,0c0,0,.2.2.2.5s0,.3-.2.5-.3.2-.6.2-.5,0-.7-.2-.2-.5-.2-.7c0-.6.2-1,.8-1.5.6-.5,1.3-.6,2.1-.6,1.8,0,2.8.9,2.8,2.7v3.8c0,.3.2.6.5.6s.6-.3.6-.9v-.7c0-.3,0-.5.5-.5s.5.2.5.7h0v.9c0,.9-.6,1.5-1.5,1.5h0v-.3ZM99.6,118.6v-1c-.2.2-.5.3-.7.5-.2,0-.7,0-1.3.2-1.2,0-1.7.6-1.7,1.3s0,.7.5.9c.2.2.7.3,1.2.3s1.2-.2,1.6-.6.6-.9.6-1.5h-.2Z"/>
            <path class="cls-1" d="M105.6,117.5l2.5-2.4s0,0,0-.2,0,0-.2,0h-.9c-.3,0-.6,0-.6-.5s.2-.6.7-.6h.5c.7,0,1.3,0,1.6,0h1c0,0,.2,0,.3,0,.5,0,.7.2.7.6s0,.5-.5.5h-.7c-.2,0-.5,0-.8.3l-1.6,1.5v.2c0,0,0,0,0,.2l2,2.5c.5.7.8.9,1,.9h.4c.3,0,.6,0,.6.5s-.2.5-.7.5h-3c-.3,0-.6,0-.6-.5s.2-.5.6-.5.2,0,.2,0h.5v-.2c0,0-.3-.2-.3-.2l-1.5-2c0,0-.2-.2-.2-.2,0,0,0,0-.2,0l-1.2,1v1.2c0,.3.2.6.5.6s.2,0,.2,0h.2c.3,0,.5,0,.5.5s-.2.5-.6.5h-3.2c-.3,0-.6,0-.6-.5s.2-.5.6-.5.2,0,.2,0h.3c.2,0,.3-.2.5-.6v-7.7c0,0,0-.2-.3-.2h-.8c-.3,0-.5,0-.5-.5s.2-.5.6-.5h1.6c.3,0,.5.2.5.6v5.9l.6-.2h0Z"/>
            <path class="cls-1" d="M119.3,117v.7s-.2,0-.5,0h-5.1v.2c0,.8.2,1.4.7,1.8.5.5,1,.8,1.7.8s.8,0,1.3-.3.6-.6.7-.9v-.5c.2-.2.3-.3.7-.3s.6.2.6.6c0,.7-.3,1.3-1,1.7s-1.4.8-2.3.8-2-.3-2.5-1c-.6-.7-.9-1.6-.9-2.9s.3-2.2,1-3,1.5-1.2,2.7-1.2,1.7.3,2.3.9.9,1.5.9,2.4h-.3ZM113.8,116.6c0,0,0,.2.3.2h3.6c.2,0,.3,0,.3-.2,0-.6-.2-1-.6-1.4-.5-.3-.9-.6-1.4-.6s-1,.2-1.5.6c-.5.5-.7.9-.7,1.4h0,0Z"/>
            <path class="cls-1" d="M123.8,113.6c1,0,1.7.3,2.2,1.2v-2.2c0-.3-.2-.5-.5-.5h-.7c-.3,0-.6,0-.6-.5s.2-.5.8-.5.2,0,.5,0h1.2c.2,0,.5.2.5.6h0v8.5c0,0,.2.2.3.2h.7c.3,0,.6,0,.6.5s-.2.5-.7.5h-1.7c-.2,0-.5-.2-.5-.6h0v-.3c-.6.7-1.3,1-2.3,1s-1.8-.3-2.4-1.2-.9-1.7-.9-2.9.3-2.2.9-2.9,1.4-1.2,2.4-1.2h0v.3ZM126,118.9v-2.7c0-.5-.3-.9-.7-1.2-.5-.3-.9-.5-1.4-.5s-1.3.2-1.6.8-.6,1.3-.6,2.2.2,1.7.6,2.3c.5.6,1,.8,1.7.8s1,0,1.4-.5.6-.7.7-1.3h0Z"/>
            <path class="cls-1" d="M135,113.3c0-.8-.2-1.2-.8-1.2s-.2,0-.3,0h-.5c-.3,0-.5,0-.5-.5s.2-.6.7-.6.1,0,.2,0h.8c.3,0,.6,0,.9,0h1.8c.2,0,.5,0,.8,0,.9,0,1.7,0,2.3.3.8.3,1.5.9,2,1.8s.7,1.8.7,3-.2,1.8-.6,2.7-.9,1.4-1.5,1.7c-.8.5-1.7.7-2.8.7s-.5,0-.7,0h-1c-.3,0-.7,0-1.2,0h-1.5c0,0-.1,0-.1,0-.5,0-.7-.2-.7-.6s0-.2.1-.3c0,0,.2,0,.3,0h.8c.5,0,.8-.3.8-1.2v-6.1l-.2.2.2.2ZM136.3,113.2v6.3c0,.5.2.7.7.8h1.3c1.3,0,2.1-.3,2.7-1,.7-.8,1-1.8,1-3.1s-.2-1.8-.6-2.5c-.3-.7-.9-1.2-1.6-1.4-.5,0-.9-.2-1.6-.2s-1.3,0-1.5,0c-.2,0-.2.3-.2.8v.2h-.2Z"/>
            <path class="cls-1" d="M147.8,121.7c-1,0-2-.3-2.5-1.2-.7-.7-.9-1.7-.9-3s.3-2.2.9-3,1.5-1.2,2.5-1.2,2,.3,2.7,1,.9,1.7.9,2.9-.3,2.2-1,3-1.5,1.2-2.7,1.2v.2h.1ZM147.9,114.5c-.7,0-1.3.2-1.6.7-.5.5-.6,1.2-.7,2.1v.2c0,.9.2,1.7.6,2.2.3.6.9.8,1.7.8s1.3-.2,1.7-.8.6-1.3.6-2.3c0-2.1-.8-3-2.3-3h0Z"/>
            <path class="cls-1" d="M156.2,113.6c.2,0,.6,0,.9,0,0-1,.6-1.5,1.7-1.5s.8,0,1.2.3.5.6.5.9,0,.5-.2.6c-.1,0-.3.2-.6.2s-.3,0-.5,0c-.1,0-.2-.2-.2-.3s0-.3.3-.5c-.1-.2-.3-.3-.6-.3-.6,0-.8.3-.8,1,.8.5,1.2,1.2,1.2,2.1s-.2,1.3-.8,1.7-1.2.7-2,.7-1.2,0-1.7-.3h-.5c-.1,0-.2,0-.3.2,0,0-.1.2-.1.5,0,.6.6.8,1.6.8h.6c.9,0,1.7,0,2.3.2.6,0,1,.5,1.3.8s.5.8.5,1.3-.3,1.3-1,1.7-1.6.7-2.8.7-2.1-.2-2.8-.6c-.7-.5-1-.9-1-1.6s.5-1.4,1.4-1.7c-.8-.3-1.3-.8-1.3-1.5s.5-1.2,1.3-1.5c-.2-.3-.3-.8-.3-1.3s.2-1.3.8-1.7,1.2-.7,2-.7v-.2h0ZM156.2,120.4c-.8,0-1.5,0-2,.3s-.7.6-.7,1,.2.7.7.9c.5.2,1,.3,1.8.3s1.5,0,2-.3.7-.6.7-.9-.2-.8-.7-1-1-.3-1.8-.3ZM156.2,114.5c-.5,0-.8,0-1.2.3s-.5.6-.5,1h0c0,.6.1.9.5,1.2.3.2.7.5,1.2.5s.9,0,1.3-.5c.3-.2.5-.6.5-1s-.1-.8-.5-1c-.3-.2-.7-.5-1.3-.5h0Z"/>
            <path class="cls-1" d="M169.5,119.4c0,.8.2,1.2.8,1.2s.2,0,.3,0h.3c.1,0,.2,0,.3,0,0,0,.1.2.1.3,0,.3-.2.6-.7.6h-.7c-.2,0-.6,0-.9,0h-1.8c-.5,0-.7,0-.7-.5s.1-.5.5-.5h.7c.5,0,.8-.3.8-1.2v-6.1c0-.7-.3-1-1.2-1h-.5c-.7,0-1,.3-1,1s0,.5,0,.5v.9c0,.7-.2.9-.6.9s-.6-.2-.6-.7v-2.4c0-.6,0-.8,0-.7,0-.5.2-.7.6-.7h7.6c.5,0,.8.2.8.6h0v1.5h0v1.7c0,.5-.2.6-.6.6s-.6-.2-.6-.8v-1.6c0-.7-.3-1-1.2-1h-.5c-.3,0-.7,0-.8.2s-.2.5-.2.8v6.2h-.5l.3.2Z"/>
            <path class="cls-1" d="M176.8,114.3v.5c.6-.7,1.3-1.2,2.1-1.2s1.3.2,1.7.6.7.9.7,1.5,0,.8-.3,1c-.2.2-.5.5-.9.5s-.5,0-.6-.2-.2-.3-.2-.5,0-.3.2-.5c.1,0,.2-.2.5-.2h.2v-.3c0-.3-.1-.6-.3-.7-.2-.2-.6-.3-.9-.3-.8,0-1.3.3-1.6,1-.1.5-.2,1-.2,2v2.2c0,.6.2.8.5.8h.7c.3,0,.5,0,.5.5s-.2.6-.6.6h-3.1c-.5,0-.6,0-.6-.5s.2-.5.6-.5.2,0,.2,0h.5c.2,0,.3-.2.5-.7v-4.3c0-.6-.2-.9-.5-.9h-.7c-.3,0-.5,0-.5-.5s.2-.6.7-.6h1.5c.2,0,.3,0,.3.5l-.2.2h-.2Z"/>
            <path class="cls-1" d="M188.9,117v.7s-.2,0-.5,0h-5.1v.2c0,.8.2,1.4.7,1.8s1,.8,1.7.8.8,0,1.3-.3.6-.6.7-.9v-.5c.2-.2.3-.3.7-.3s.6.2.6.6c0,.7-.3,1.3-1,1.7-.7.5-1.4.8-2.3.8s-2-.3-2.5-1c-.6-.7-.9-1.6-.9-2.9s.3-2.2,1-3,1.5-1.2,2.7-1.2,1.7.3,2.3.9.9,1.5.9,2.4h-.3ZM183.4,116.6c0,0,0,.2.3.2h3.6c.2,0,.3,0,.3-.2,0-.6-.2-1-.6-1.4-.5-.3-.9-.6-1.4-.6s-1,.2-1.5.6c-.5.5-.7.9-.7,1.4h-.1,0Z"/>
            <path class="cls-1" d="M196.5,121.6c-.8,0-1.4-.3-1.5-1-.5.8-1.3,1.2-2.4,1.2s-1.5-.2-2-.6c-.5-.5-.7-.9-.7-1.6s.3-1.5,1-1.8c.2,0,.5-.2.7-.3.2,0,.6,0,1.2-.2.8,0,1.4-.2,1.6-.3s.3-.5.3-.9-.1-.7-.5-.9c-.2-.2-.7-.3-1.2-.3s-.9,0-1.3.3c-.1,0-.2.2-.2.3s0,0,.1,0c.1,0,.2.2.2.5s0,.3-.2.5c-.1,0-.3.2-.6.2s-.5,0-.7-.2-.2-.5-.2-.7c0-.6.2-1,.8-1.5s1.3-.6,2.1-.6c1.8,0,2.8.9,2.8,2.7v3.8c0,.3.2.6.5.6s.6-.3.6-.9v-.7c0-.3.1-.5.5-.5s.5.2.5.7h0v.9c0,.9-.6,1.5-1.5,1.5h.1v-.3ZM194.8,118.6v-1c-.2.2-.5.3-.7.5-.2,0-.7,0-1.3.2-1.2,0-1.7.6-1.7,1.3s.1.7.5.9c.2.2.7.3,1.2.3s1.2-.2,1.6-.6c.3-.3.6-.9.6-1.5h-.2Z"/>
            <path class="cls-1" d="M202.8,119.3v-.9c0-.5.2-.6.6-.6s.6.2.6.7c0,1.2-.1,1.8-.5,2.3-.3.6-1,.9-1.8.9s-1.4-.2-1.7-.8c-.2-.3-.3-1-.3-2v-3.7c0-.2,0-.3-.3-.3h-.5c-.1,0-.3,0-.5,0,0,0-.1-.2-.1-.3s0-.2.1-.3c0,0,.2,0,.3,0h.6c.1,0,.2,0,.2-.2v-1.6c0-.3.2-.6.6-.6s.6.2.6.6v1.6c0,0,0,.2.2.2h1.6c.3,0,.6.2.6.6s-.2.6-.6.6h-1.6c-.1,0-.2,0-.2.3v3.7c0,1,.3,1.6,1,1.6s1-.5,1.2-1.3v-.2h-.1Z"/>
            <path class="cls-1" d="M207.8,113.6c.7,0,1.3.2,1.7.6h0c0-.5.1-.6.5-.6s.5,0,.5.5v2.2c0,.3-.1.6-.5.6s-.5,0-.5-.5v-.5c0-.3-.2-.6-.6-.8s-.7-.3-1.2-.3-.8,0-1.2.3-.5.6-.5.9c0,.7.5,1,1.4,1.2h.9c1.7.3,2.5,1,2.5,2.3s-.2,1.3-.8,1.7-1.3.7-2.2.7-1.6-.2-2.2-.7v.2c0,.3-.1.6-.5.6s-.6-.2-.6-.6v-2.4c0-.3.1-.6.5-.6s.3,0,.3,0v.8c0,.5.2.8.7,1s1,.5,1.7.5.9,0,1.3-.3.5-.6.5-.9c0-.7-.6-1-1.6-1.2-1,0-1.8-.3-2.4-.6s-.8-.8-.8-1.6.2-1.3.8-1.7,1.3-.7,2.1-.7v-.2h.2Z"/>
          </g>
          <polygon class="cls-2" points="124.5 164.8 68.6 131.4 180.5 131.4 124.5 164.8"/>
          <g>
            <path class="cls-1" d="M95.6,136c.8,0,1.4.2,2,.8h0c0-.5,0-.7.3-.7s.5.2.5.5h0v2.1h0c0,.5,0,.7-.5.7s-.5-.1-.5-.5h0v-.6c0-.5,0-.8-.5-1.2-.3-.2-.8-.5-1.4-.5s-.9.1-1.3.3c-.3.2-.5.6-.5,1s.2.9.7,1.2c.2.1.7.2,1.4.3.9.1,1.6.3,2,.6.6.3.8.9.8,1.7s-.2,1.4-.8,1.8c-.6.5-1.3.7-2.1.7s-1.6-.2-2.3-.9h0v.5c0,.3,0,.5-.5.5s-.5-.1-.5-.5,0,0,0,0v-2.5c0-.3,0-.6.5-.6s.5.2.5.6v.5c0,.6.2,1,.6,1.4s.9.6,1.5.6,1-.1,1.5-.5.6-.7.6-1.2c0-.8-.5-1.3-1.4-1.4h-.7c-.7-.2-1.2-.3-1.6-.6-.3-.1-.6-.3-.8-.7s-.3-.7-.3-1.2.2-1.3.8-1.7c.5-.5,1.2-.7,2-.7h0v.2Z"/>
            <path class="cls-1" d="M101.7,140.9v2.3c0,.3,0,.6.3.6h.6c.3,0,.5.1.5.3s0,.2,0,.3c0,0-.2.1-.3.1h-2.4c-.3,0-.5-.1-.5-.5s0-.3.5-.3,0,0,.2,0h.2c.2,0,.3-.2.3-.8v-3.1c0-.5,0-.8-.3-.8s0,0-.2,0h-.2c-.3,0-.5-.1-.5-.3s.2-.5.6-.5h1.5c.2,0,.3.1.3.5s0,0,0,.1h0v1.8l-.5.2h0ZM101.2,137.6c-.2,0-.3,0-.5-.2,0-.1-.2-.3-.2-.5s0-.3.2-.5c0-.1.3-.2.5-.2s.3,0,.5.2c0,.1.2.2.2.5s0,.3-.2.5c0,.1-.3.2-.5.2Z"/>
            <path class="cls-1" d="M105.4,138.7v.3c.5-.6,1.2-.9,2-.9s.8,0,1.3.3c.3.2.7.5.8.8,0,.2,0,.6,0,1v2.9c0,.2,0,.5.3.5s0,0,.2,0h.5v.2c0,.1,0,.2,0,.3,0,0-.2.1-.3.1h-2.3c-.3,0-.5-.1-.5-.5s0-.3.5-.3,0,0,.2,0h.3c.2,0,.3-.2.3-.7v-3.2c0-.3-.2-.6-.5-.7-.2-.2-.6-.2-.9-.2-.7,0-1,.2-1.4.7-.2.3-.2.8-.2,1.6v2.3c0,.1,0,.2.2.2h.5c.2,0,.3.1.3.5s0,.3-.5.3h-2.4c-.3,0-.5-.1-.5-.5s0-.3.3-.3,0,0,.2,0h.3c.2,0,.3-.2.3-.7v-3.8c0-.1,0-.1-.2-.1h-.5c-.3,0-.5-.1-.5-.3s.2-.3.6-.3,0,0,0,0h1.2c.2,0,.3.1.3.3h-.3l.3.2Z"/>
            <path class="cls-1" d="M114.7,140.4c0-.3.2-.5.6-.6,0-.2-.2-.5-.3-.7-.2-.1-.6-.2-.9-.2-.6,0-1,.2-1.4.7-.3.5-.5,1-.5,1.7s0,1.4.5,1.7c.3.5.8.7,1.3.7s.7,0,.9-.3c.2-.2.5-.5.6-.8,0-.2,0-.5,0-.5,0-.1.2-.2.3-.2s.2,0,.3.1c0,0,0,.2,0,.3,0,.2,0,.5-.2.7,0,.2-.2.5-.5.7-.5.5-1,.8-1.8.8s-1.5-.3-2-.9c-.5-.6-.7-1.4-.7-2.3s.2-1.8.8-2.4c.5-.6,1.2-.9,2.1-.9s1.2.2,1.6.6.6.8.6,1.4,0,.6-.2.7c0,.2-.3.3-.6.3s-.3,0-.5-.2c0-.1-.2-.2-.2-.5h0Z"/>
            <path class="cls-1" d="M122.8,140.8v.6h-4.4c0,.7.2,1.3.6,1.6s.8.6,1.4.6.7,0,.9-.3c.3-.2.5-.5.6-.7v-.3c0-.2.3-.3.5-.3.3,0,.5.1.5.5,0,.6-.2,1-.8,1.4-.6.5-1.2.6-1.8.6s-1.5-.2-2-.8-.7-1.4-.7-2.3.2-1.7.8-2.4c.6-.6,1.3-.9,2.1-.9s1.4.2,1.8.8c.5.5.7,1.2.7,2v.2l-.2-.3ZM118.4,140.5s0,.1.2.1h2.9c0,0,.2,0,.2-.1,0-.5,0-.8-.5-1.2s-.7-.5-1.2-.5-.8.1-1.3.5c-.3.3-.6.7-.6,1h0l.2.2Z"/>
            <path class="cls-1" d="M128,142.1c-.2.2-.3.5-.3.8.3-.3.8-.6,1.3-.6s.9.2,1.5.6c.6.5,1,.7,1.4.7s.5,0,.6-.2.2-.3.2-.6v-.2c-.1.1-.2.2-.5.2s-.5-.1-.5-.5,0-.3.2-.5.3-.2.6-.2.6,0,.7.3c.2.2.2.5.2.8s-.1.9-.5,1.3c-.3.3-.7.6-1.2.6s-.9-.2-1.5-.7-1.2-.7-1.6-.7-.7.1-.8.5h0c.2,0,.3.1.3.3,0,.3-.2.6-.6.6s-.5,0-.7-.3c0-.2-.2-.6-.2-.9,0-1.4.9-2.4,2.9-3l.8-.2c.9-.3,1.5-.8,1.5-1.6s-.2-.9-.6-1.2-.8-.5-1.4-.5-.9,0-1.4.3c-.3.2-.6.5-.6.9.5,0,.7.2.7.6s0,.3-.2.6-.3.2-.6.2-.5,0-.7-.2c0-.2-.2-.5-.2-.7,0-.7.3-1.2.9-1.6.6-.5,1.3-.7,2.2-.7s1.5.2,2.1.7.8,1,.8,1.7-.1.9-.3,1.3-.6.7-1,.8c-.1,0-.6.2-1.4.5-.6.2-1,.3-1.4.6-.2.1-.5.3-.7.5l-.2-.2h0Z"/>
            <path class="cls-1" d="M137.5,144.6c-1,0-1.8-.3-2.4-1.2s-.9-1.7-.9-3.1.3-2.4.9-3.2,1.4-1.2,2.4-1.2,1.7.3,2.3,1.2c.6.7.9,1.7.9,3s-.3,2.4-.9,3.2-1.4,1.2-2.4,1.2h.1,0ZM137.7,136.9c-1.5,0-2.2,1.2-2.3,3.3v.2c0,1,.2,1.8.6,2.4s.9.8,1.6.8,1.3-.3,1.7-.9.6-1.5.6-2.5-.2-1.8-.6-2.4-.9-.8-1.6-.8h0Z"/>
            <path class="cls-1" d="M143.2,142.1c-.2.2-.3.5-.3.8.3-.3.8-.6,1.3-.6s.9.2,1.5.6c.6.5,1,.7,1.4.7s.5,0,.6-.2.2-.3.2-.6v-.2c-.1.1-.2.2-.5.2s-.5-.1-.5-.5,0-.3.2-.5.3-.2.6-.2.6,0,.7.3c.2.2.2.5.2.8s-.1.9-.5,1.3c-.3.3-.7.6-1.2.6s-.9-.2-1.5-.7-1.2-.7-1.6-.7-.7.1-.8.5h.1c.2,0,.3.1.3.3,0,.3-.2.6-.6.6s-.5,0-.7-.3c-.1-.2-.2-.6-.2-.9,0-1.4.9-2.4,2.9-3l.8-.2c.9-.3,1.5-.8,1.5-1.6s-.2-.9-.6-1.2-.8-.5-1.4-.5-.9,0-1.4.3c-.3.2-.6.5-.6.9.5,0,.7.2.7.6s0,.3-.2.6-.3.2-.6.2-.5,0-.7-.2c-.1-.2-.2-.5-.2-.7,0-.7.3-1.2.9-1.6s1.3-.7,2.2-.7,1.5.2,2.1.7.8,1,.8,1.7-.1.9-.3,1.3-.6.7-1,.8c-.1,0-.6.2-1.4.5-.6.2-1,.3-1.4.6-.2.1-.5.3-.7.5l-.2-.2h0Z"/>
            <path class="cls-1" d="M152.8,144.6c-1,0-1.8-.3-2.4-1.2s-.9-1.7-.9-3.1.3-2.4.9-3.2,1.4-1.2,2.4-1.2,1.7.3,2.3,1.2c.6.7.9,1.7.9,3s-.3,2.4-.9,3.2-1.4,1.2-2.4,1.2h.1,0ZM152.9,136.9c-1.5,0-2.2,1.2-2.3,3.3v.2c0,1,.2,1.8.6,2.4s.9.8,1.6.8,1.3-.3,1.7-.9.6-1.5.6-2.5-.2-1.8-.6-2.4-.9-.8-1.6-.8h0Z"/>
          </g>
          <path class="cls-2" d="M144.5,162.3l22.6-14.2s-2.3-3.2,3.7-7.7c0,0,12.8-6.5,14.5,4.5,0,0,11.1-.9,6.6,5.8,0,0-2.7,4.8-14.3,4.5l-22.7,14s1.4,7.6-9.4,9.8c0,0-7.6,1.8-7.7-5,0,0-11.9.2-8.9-6.8,0,0,4.5-6.2,15.5-4.7h.1v-.2Z"/>
          <path class="cls-2" d="M108.9,164.6l-22.5-14.3s2.3-3.2-3.7-7.7c0,0-12.7-6.5-14.5,4.4,0,0-11.1-1-6.6,5.8,0,0,2.7,4.8,14.3,4.6l22.6,14.1s-1.4,7.6,9.4,9.8c0,0,7.6,1.8,7.7-5,0,0,11.9.3,8.9-6.8,0,0-4.4-6.2-15.5-4.8h-.1Z"/>
        </g>
      </g>
    </g>
  </g>
</svg>