<?xml version="1.0" encoding="utf-8"?>
<!-- Generator: Adobe Illustrator 28.0.0, SVG Export Plug-In . SVG Version: 6.00 Build 0)  -->
<svg version="1.1" id="Layer_1" xmlns="http://www.w3.org/2000/svg" xmlns:xlink="http://www.w3.org/1999/xlink" x="0px" y="0px"
	 viewBox="0 0 200 100" style="enable-background:new 0 0 200 100;" xml:space="preserve">
<style type="text/css">
	.st0{clip-path:url(#SVGID_00000062872763917887992870000006624319958160311680_);fill:#FFFFFF;}
	.st1{clip-path:url(#SVGID_00000062872763917887992870000006624319958160311680_);}
</style>
<g>
	<defs>
		<rect id="SVGID_1_" y="23.2" width="200" height="53.8"/>
	</defs>
	<clipPath id="SVGID_00000171722244104808821050000007059567114602725045_">
		<use xlink:href="#SVGID_1_"  style="overflow:visible;"/>
	</clipPath>
	<path style="clip-path:url(#SVGID_00000171722244104808821050000007059567114602725045_);fill:#FFFFFF;" d="M30.4,76.9
		C46.9,77,60.5,65.2,60.8,50.6C61.1,35.4,47.3,23.4,31,23.2C13.8,22.9,0,35.2,0,50C0,64.9,13.5,76.9,30.4,76.9"/>
	<path style="clip-path:url(#SVGID_00000171722244104808821050000007059567114602725045_);" d="M38.8,50c0.2-2,0.4-3.8,0.6-5.8h-6
		c0-1.1,0-2,0-3c0-2,0.2-2.2,2.5-2.2c1.1,0,2.3,0,3.5,0v-6c-3,0.2-6.1-0.3-9,0.4C27.6,34,26,35.5,25.7,38c-0.2,1.1-0.1,2.2-0.1,3.2
		c0,1,0,2,0,3.1h-4.1v5.9h4.1v17.3c2.4,0,4.7,0,6.9,0c0.7,0,0.9-0.1,0.9-0.8c0-5.3,0-10.6,0-15.8V50H38.8z M30.4,76.9
		C13.5,76.9,0,64.9,0,50c0-14.8,13.8-27.1,31-26.8c16.3,0.3,30.1,12.2,29.8,27.4C60.5,65.2,46.9,77,30.4,76.9"/>
	<path style="clip-path:url(#SVGID_00000171722244104808821050000007059567114602725045_);fill:#FFFFFF;" d="M38.8,50h-5.4v0.8
		c0,5.3,0,10.6,0,15.8c0,0.6-0.2,0.8-0.9,0.8c-2.3,0-4.6,0-6.9,0V50.1h-4.1v-5.9h4.1c0-1.1,0-2.1,0-3.1c0-1.1,0-2.2,0.1-3.2
		c0.4-2.4,2-4,4.6-4.6c3-0.7,6-0.3,9-0.4v6c-1.2,0-2.3,0-3.5,0c-2.3,0-2.5,0.2-2.5,2.2c0,1,0,2,0,3h6C39.2,46.2,39,48,38.8,50"/>
	<path style="clip-path:url(#SVGID_00000171722244104808821050000007059567114602725045_);fill:#FFFFFF;" d="M100.6,76.9
		c4.3,0,8.6,0,12.8,0c0.2,0,0.3,0,0.5,0c5.9-0.3,10.6-5.7,10.6-12.4c0-9.7,0.1-19.3,0-29c0-6.6-4.7-12.1-10.6-12.3
		c-4.8-0.2-9.6-0.1-14.3-0.1c-4.1,0-8.2-0.1-12.2,0.1c-6,0.2-10.6,5.8-10.6,12.5c0,9.5,0,19.1,0,28.6c0,0.8,0.1,1.6,0.2,2.4
		c1.1,6,5.6,10.1,11.2,10.1C92.3,76.9,96.4,76.9,100.6,76.9"/>
	<path style="clip-path:url(#SVGID_00000171722244104808821050000007059567114602725045_);" d="M118.2,50.1c0-2.7,0-5.4,0-8.1
		c0-6.6-4.4-11.6-10.2-11.6c-4.9,0-9.8,0-14.6,0c-5.8,0-10.2,4.8-10.3,11.4c-0.1,5.6-0.1,11.1,0,16.7c0.1,6.5,4.6,11.4,10.4,11.4
		c4.9,0,9.7,0,14.6,0c5.8,0,10.2-5.1,10.2-11.6C118.2,55.5,118.2,52.8,118.2,50.1 M100.6,76.9c-4.2,0-8.3,0-12.5,0
		c-5.6,0-10.1-4.1-11.2-10.1c-0.1-0.8-0.2-1.6-0.2-2.4c0-9.5,0-19.1,0-28.6c0-6.7,4.7-12.3,10.6-12.5c4.1-0.2,8.2-0.1,12.2-0.1
		c4.8,0,9.6-0.1,14.3,0.1c5.9,0.2,10.6,5.7,10.6,12.3c0.1,9.7,0,19.3,0,29c0,6.6-4.7,12-10.6,12.4c-0.2,0-0.3,0-0.5,0
		C109.1,76.9,104.9,76.9,100.6,76.9"/>
	<path style="clip-path:url(#SVGID_00000171722244104808821050000007059567114602725045_);fill:#FFFFFF;" d="M100.6,66.2
		c2.4,0,4.9,0,7.3,0c4.1,0,7-3.2,7-7.9c0-5.5,0-10.9,0-16.4c0-4.5-2.9-7.8-6.9-7.8c-4.9,0-9.9,0-14.8,0c-4,0-6.9,3.3-6.9,7.8
		c0,5.5,0,11,0,16.5c0,4.5,2.9,7.8,6.9,7.8C95.7,66.2,98.2,66.2,100.6,66.2 M118.2,50.1c0,2.7,0,5.4,0,8.1c0,6.5-4.5,11.5-10.2,11.6
		c-4.9,0-9.7,0-14.6,0c-5.8,0-10.3-4.9-10.4-11.4c-0.1-5.6-0.1-11.1,0-16.7c0.1-6.5,4.5-11.3,10.3-11.4c4.9,0,9.8,0,14.6,0
		c5.9,0,10.2,5,10.2,11.6C118.2,44.7,118.2,47.4,118.2,50.1"/>
	<path style="clip-path:url(#SVGID_00000171722244104808821050000007059567114602725045_);" d="M109.9,42c1.1,0.1,2.2-1,2.2-2.3
		c0.1-1.3-0.8-2.4-2-2.5c-1.2-0.1-2.2,0.9-2.3,2.2C107.8,40.8,108.7,41.9,109.9,42 M109.7,50.2c0-5.7-4-10.3-9.1-10.3
		c-5,0-9.1,4.6-9.1,10.2c0,5.7,4,10.3,9.1,10.3C105.6,60.5,109.7,55.9,109.7,50.2 M100.6,66.2c-2.5,0-4.9,0-7.4,0
		c-4,0-6.9-3.3-6.9-7.8c0-5.5,0-11,0-16.5c0-4.5,2.9-7.8,6.9-7.8c4.9,0,9.9,0,14.8,0c4,0,6.9,3.3,6.9,7.8c0,5.5,0,10.9,0,16.4
		c0,4.6-2.9,7.9-7,7.9C105.5,66.2,103.1,66.2,100.6,66.2"/>
	<path style="clip-path:url(#SVGID_00000171722244104808821050000007059567114602725045_);fill:#FFFFFF;" d="M94.7,50.2
		c0,3.6,2.6,6.6,5.9,6.6c3.2,0,5.8-2.9,5.8-6.6c0-3.6-2.6-6.6-5.9-6.6C97.4,43.6,94.7,46.5,94.7,50.2 M109.7,50.2
		c0,5.7-4.1,10.3-9.2,10.2c-5,0-9.1-4.6-9.1-10.3c0-5.6,4.1-10.3,9.1-10.2C105.7,39.9,109.8,44.5,109.7,50.2"/>
	<path style="clip-path:url(#SVGID_00000171722244104808821050000007059567114602725045_);fill:#FFFFFF;" d="M109.9,42
		c-1.2-0.1-2.1-1.2-2-2.6c0.1-1.3,1.1-2.3,2.3-2.2c1.2,0.1,2.1,1.2,2,2.5C112.1,41,111.1,42,109.9,42"/>
	<path style="clip-path:url(#SVGID_00000171722244104808821050000007059567114602725045_);" d="M94.7,50.2c0-3.7,2.6-6.6,5.9-6.6
		c3.3,0,5.9,3,5.9,6.6c0,3.6-2.6,6.5-5.8,6.6C97.4,56.8,94.7,53.8,94.7,50.2"/>
	<path style="clip-path:url(#SVGID_00000171722244104808821050000007059567114602725045_);fill:#FFFFFF;" d="M181.3,50.3
		c6.2,4.6,12.5,9.3,18.7,13.9V36C193.7,40.8,187.5,45.5,181.3,50.3 M138.6,64.8c0.1,0,0.1,0,0.2,0c6.2-4.7,12.4-9.5,18.6-14.2
		c-6.3-4.7-12.5-9.3-18.8-13.9V64.8z M160.3,52.8c-6.3,4.8-12.6,9.6-18.8,14.5c0,0,0,0.1,0,0.1c0.6,0,1.3,0.1,1.9,0.1
		c14.1,0,28.1,0,42.2,0c3.2,0,6.5,0,9.7,0c0.9,0,1.7-0.1,2.5-0.5c-6.5-4.8-13-9.6-19.4-14.5c-0.2,0.1-0.3,0.2-0.5,0.3
		c-2.3,1.8-4.7,3.6-7,5.3c-1.1,0.8-2.1,0.9-3.2,0c-1.1-0.8-2.2-1.6-3.3-2.4C163.1,54.8,161.8,53.8,160.3,52.8 M169.3,55.1
		c9.6-7.3,19.1-14.7,28.7-22c-0.9-0.5-1.8-0.5-2.7-0.5c-17.3,0-34.6,0-51.8,0c-0.4,0-0.7,0-1.1,0c-0.8,0.1-1.6,0.3-2.2,0.8
		C149.9,40.6,159.6,47.8,169.3,55.1"/>
	<path style="clip-path:url(#SVGID_00000171722244104808821050000007059567114602725045_);" d="M169.3,55.1
		c-9.7-7.2-19.4-14.4-29.2-21.7c0.6-0.5,1.4-0.7,2.2-0.8c0.4,0,0.7,0,1.1,0c17.3,0,34.6,0,51.8,0c0.9,0,1.8,0.1,2.7,0.5
		C188.4,40.4,178.9,47.7,169.3,55.1"/>
	<path style="clip-path:url(#SVGID_00000171722244104808821050000007059567114602725045_);" d="M160.3,52.8c1.4,1.1,2.8,2.1,4.2,3.1
		c1.1,0.8,2.2,1.6,3.3,2.4c1.1,0.8,2.1,0.8,3.2,0c2.3-1.8,4.7-3.6,7-5.3c0.1-0.1,0.3-0.2,0.5-0.3c6.5,4.8,13,9.6,19.4,14.5
		c-0.8,0.4-1.6,0.5-2.5,0.5c-3.2,0-6.5,0-9.7,0c-14.1,0-28.1,0-42.2,0c-0.6,0-1.3-0.1-1.9-0.1c0,0,0-0.1,0-0.1
		C147.8,62.4,154,57.6,160.3,52.8"/>
	<path style="clip-path:url(#SVGID_00000171722244104808821050000007059567114602725045_);" d="M138.6,64.8V36.7
		c6.2,4.6,12.5,9.3,18.8,13.9c-6.2,4.8-12.4,9.5-18.6,14.3C138.7,64.8,138.6,64.8,138.6,64.8"/>
	<path style="clip-path:url(#SVGID_00000171722244104808821050000007059567114602725045_);" d="M181.3,50.3
		c6.2-4.8,12.4-9.5,18.7-14.4v28.3C193.7,59.6,187.5,55,181.3,50.3"/>
</g>
</svg>
