<?xml version="1.0" encoding="utf-8"?>
<!-- Generator: Adobe Illustrator 28.0.0, SVG Export Plug-In . SVG Version: 6.00 Build 0)  -->
<svg version="1.1" id="Layer_1" xmlns="http://www.w3.org/2000/svg" xmlns:xlink="http://www.w3.org/1999/xlink" x="0px" y="0px"
	 viewBox="0 0 500 500" style="enable-background:new 0 0 500 500;" xml:space="preserve">
<style type="text/css">
	.st0{clip-path:url(#SVGID_00000181776760185935954360000000652611261660334996_);fill:#080809;}
	.st1{clip-path:url(#SVGID_00000181776760185935954360000000652611261660334996_);fill:#E4E5E6;}
</style>
<g>
	<defs>
		<rect id="SVGID_1_" x="21.1" y="163.8" width="465" height="185.2"/>
	</defs>
	<clipPath id="SVGID_00000008118654072652187030000010283485078345547670_">
		<use xlink:href="#SVGID_1_"  style="overflow:visible;"/>
	</clipPath>
	<path style="clip-path:url(#SVGID_00000008118654072652187030000010283485078345547670_);fill:#080809;" d="M443.5,303.6
		c-3.7,6.7-2.6,13.9,4.1,18.7c9.2,7.1,22,6.3,28.2-3.5c0.5-0.6,0.9-1.5,1.2-2.2c0.3-0.7,0.8-1.6,1-2.3c1.2-2.8,1.7-5.9,1.4-8.9
		c-0.7-5-4.5-9.5-9.4-11.9c-2-0.6-5.3-1.5-7.9-1.6C453.3,291,445.6,296.1,443.5,303.6 M443.5,303.6c3.6-11.4,15.2-14.8,27.3-11.8
		c8,2.9,13.4,10.5,12.2,18.1c-0.4,2.7-1.3,5.5-2.6,8c-1.5,3-3.7,5.7-6.6,7.8c-5,3.6-12.2,4.3-18.2,2.5c-3.3-1.2-6.3-3.1-8.8-5.3
		C440.5,317.6,439.7,310.3,443.5,303.6"/>
	<path style="clip-path:url(#SVGID_00000008118654072652187030000010283485078345547670_);fill:#080809;" d="M463.4,291.3
		c2.2,9.6,5.8,21.9,18.1,24.5c-3.1,0.5-6.4-0.4-9.1-2C464.7,308.8,461.9,299.4,463.4,291.3"/>
	<path style="clip-path:url(#SVGID_00000008118654072652187030000010283485078345547670_);fill:#080809;" d="M460.1,327.9
		c-2.5-9.6-6.5-21.8-18.9-24.1c3-0.6,6.4,0.2,9.1,1.8C458.3,310.4,461.4,319.8,460.1,327.9"/>
	<path style="clip-path:url(#SVGID_00000008118654072652187030000010283485078345547670_);fill:#080809;" d="M220.4,219.2
		c-3.7,6.7-2.6,13.9,4.1,18.7c9.2,7.1,22,6.3,28.2-3.5c0.5-0.6,0.9-1.5,1.2-2.2c0.3-0.7,0.8-1.6,1-2.3c1.2-2.8,1.7-5.9,1.4-8.9
		c-0.7-5-4.5-9.5-9.4-11.9c-2-0.6-5.3-1.5-7.9-1.6C230.2,206.6,222.5,211.7,220.4,219.2 M220.4,219.2c3.6-11.4,15.2-14.8,27.3-11.8
		c8,2.9,13.4,10.5,12.2,18.1c-0.4,2.7-1.3,5.5-2.6,8c-1.5,3-3.7,5.7-6.6,7.8c-5,3.6-12.2,4.3-18.2,2.5c-3.3-1.2-6.3-3.1-8.8-5.3
		C217.4,233.3,216.6,226,220.4,219.2"/>
	<path style="clip-path:url(#SVGID_00000008118654072652187030000010283485078345547670_);fill:#080809;" d="M240.3,206.9
		c2.2,9.6,5.8,21.9,18.1,24.5c-3.1,0.5-6.4-0.4-9.1-2C241.6,224.5,238.8,215,240.3,206.9"/>
	<path style="clip-path:url(#SVGID_00000008118654072652187030000010283485078345547670_);fill:#080809;" d="M237,243.5
		c-2.5-9.6-6.5-21.8-18.9-24.1c3-0.6,6.4,0.2,9.1,1.8C235.2,226,238.3,235.4,237,243.5"/>
	<path style="clip-path:url(#SVGID_00000008118654072652187030000010283485078345547670_);fill:#080809;" d="M29.2,261.3
		c-3.7,6.7-2.6,13.9,4.1,18.7c9.2,7.1,22,6.3,28.2-3.5c0.5-0.6,0.9-1.5,1.2-2.2c0.3-0.7,0.8-1.6,1-2.3c1.2-2.8,1.7-5.9,1.4-8.9
		c-0.7-5-4.5-9.5-9.4-11.9c-2-0.6-5.3-1.5-7.9-1.6C39,248.7,31.4,253.8,29.2,261.3 M29.2,261.3c3.6-11.4,15.2-14.8,27.3-11.8
		c8,2.9,13.4,10.5,12.2,18.1c-0.4,2.7-1.3,5.5-2.6,8c-1.5,3-3.7,5.7-6.6,7.8c-5,3.6-12.2,4.3-18.2,2.5c-3.3-1.2-6.3-3.1-8.8-5.3
		C26.2,275.4,25.4,268.1,29.2,261.3"/>
	<path style="clip-path:url(#SVGID_00000008118654072652187030000010283485078345547670_);fill:#080809;" d="M49.2,249.1
		c2.2,9.6,5.8,21.9,18.1,24.5c-3.1,0.5-6.4-0.4-9.1-2C50.4,266.6,47.6,257.1,49.2,249.1"/>
	<path style="clip-path:url(#SVGID_00000008118654072652187030000010283485078345547670_);fill:#080809;" d="M45.8,285.6
		c-2.5-9.6-6.5-21.8-18.9-24.1c3-0.6,6.4,0.2,9.1,1.8C44,268.1,47.1,277.5,45.8,285.6"/>
	<path style="clip-path:url(#SVGID_00000008118654072652187030000010283485078345547670_);fill:#080809;" d="M448.6,282.6
		c-10.3-58.4-48.1-122.2-130.3-103.1c-20.4,4.8-38.8,13.3-56.5,22.4c30.1-23.1,78.6-46.3,128.1-23
		C434.5,201.5,448.6,247.7,448.6,282.6"/>
	<path style="clip-path:url(#SVGID_00000008118654072652187030000010283485078345547670_);fill:#080809;" d="M224.8,200.6
		c-34.9-30.4-92.1-51.5-142-2.9c-12.4,12.1-21.6,25.5-30,39c10.7-27.5,34.6-63.2,81.1-71.7C176.5,158.4,208.4,179.7,224.8,200.6"/>
	<path style="clip-path:url(#SVGID_00000008118654072652187030000010283485078345547670_);fill:#E4E5E6;" d="M462.2,336.4
		c-13.2,0-23.9,2.8-23.9,6.3c0,3.5,10.7,6.3,23.9,6.3c13.2,0,23.9-2.8,23.9-6.3C486.1,339.2,475.4,336.4,462.2,336.4"/>
	<path style="clip-path:url(#SVGID_00000008118654072652187030000010283485078345547670_);fill:#E4E5E6;" d="M238,250.4
		c-13.2,0-23.9,2.8-23.9,6.3c0,3.5,10.7,6.3,23.9,6.3c13.2,0,23.9-2.8,23.9-6.3C261.9,253.2,251.2,250.4,238,250.4"/>
	<path style="clip-path:url(#SVGID_00000008118654072652187030000010283485078345547670_);fill:#E4E5E6;" d="M45,287
		c-13.2,0-23.9,2.8-23.9,6.3c0,3.5,10.7,6.3,23.9,6.3s23.9-2.8,23.9-6.3C68.9,289.8,58.2,287,45,287"/>
</g>
</svg>
