<?xml version="1.0" encoding="utf-8"?>
<!-- Generator: Adobe Illustrator 28.0.0, SVG Export Plug-In . SVG Version: 6.00 Build 0)  -->
<svg version="1.1" id="Layer_1" xmlns="http://www.w3.org/2000/svg" xmlns:xlink="http://www.w3.org/1999/xlink" x="0px" y="0px"
	 viewBox="0 0 500 500" style="enable-background:new 0 0 500 500;" xml:space="preserve">
<style type="text/css">
	.st0{clip-path:url(#SVGID_00000154403424999381931190000014788178646904303264_);fill:#FFFFFF;}
	.st1{clip-path:url(#SVGID_00000154403424999381931190000014788178646904303264_);}
</style>
<g>
	<defs>
		<rect id="SVGID_1_" x="-45.8" y="-52.3" width="501.5" height="534.1"/>
	</defs>
	<clipPath id="SVGID_00000054258420700948390970000003380143474846511263_">
		<use xlink:href="#SVGID_1_"  style="overflow:visible;"/>
	</clipPath>
	<path style="clip-path:url(#SVGID_00000054258420700948390970000003380143474846511263_);fill:#FFFFFF;" d="M358.4,256.3l-0.1-0.1
		c3.6,6,7.2,12,10.8,18c0.5-0.1,0.9-0.2,1.4-0.3v-15.5c0.4-0.1,0.9-0.3,1.3-0.4c8.1,8.5,16.2,17,24.9,26.1
		c-10.1-0.4-18.9-0.8-27.7-1.1c-2.7-0.1-5.4,0.1-8,0.5c-6.2,1-10.8,4.3-12.5,10.4c-1.8,6.5-2.3,13,4.3,17.7
		c-2.3,2.5-1.4,4.7,0.8,6.2c4.1,2.9,8.3,5.9,12.9,7.9c7.3,3.3,8,5.3,2.8,11.5c-1.2,1.4-2.7,2.7-4.3,3.5c-16.9,8.7-34.7,13-53.7,12
		c-7.4-0.4-14.1-2.8-19.3-8.5c-5.2-5.6-10.5-11.1-15.9-16.5c-5.8-5.8-11.4-11.7-17.7-16.8c-6.4-5.2-14.9-4.2-20.5,1.4
		c-6.1,6.1-6.8,13.4-1.9,20.7c1.6,2.3,3.4,4.5,5.1,6.7c6.5,8.6,12.4,17.4,14,28.6c-5.7,1.9-6.7,6.8-6.8,11.6
		c-0.2,8.9,0.1,17.9,0.5,26.8c0.1,1.4,1.4,2.8,2.2,4.2c1.2-1.2,3-2.3,3.4-3.8c1.8-7,3.5-14,4.8-21.1c0.8-4.8,0.9-9.7,1.4-15.3
		c18.6,5,37,12.2,55.2-0.6c0.3,1.3,0.5,1.8,0.6,2.3c1.9,13.6,3.5,27.3,5.8,40.9c2.5,14.9,5.6,29.7,12.4,43.4c2.7,5.5,4.9,11.3,7,17
		c0.9,2.5,0.9,5.3,1.3,8c1.5-6.5,0-12.5-2.1-18.5c-3.6-10-7.9-20-10.2-30.3c-3.4-15.1-5.4-30.5-7.7-45.8c-0.9-6-1.2-12.1-1.9-19
		c4.1,0.7,7.5,1.1,10.9,1.8c12.4,2.7,23.9,1.1,34.1-7c3.1-2.4,6.3-4.6,9.2-7.1c2.6-2.2,5.3-2.7,8.6-2.2c6.8,1.1,10.1-1,13-7.3
		c4.5-9.8,6.3-20.1,6.5-30.8c0.1-3.4,1.2-6.7,1.7-10c0.4-3,1-6.1,0.9-9.1c-0.3-6.3-3.7-11.4-7.7-15.9c-7.9-8.7-16.1-17.2-24-25.9
		c-1.2-1.3-2.2-3.5-2-5.1c1.8-12.9,3-25.7-0.6-37.3c2.4-2.7,4.3-4.9,6.3-7c-1.5-1.2-3-2.4-5-3.9c0-0.1,0.1-1,0.3-1.8
		c3.3-12.3,9.7-23.1,16.6-33.7c3.2-4.9,6.7-9.7,11-13.6c5.3-4.8,10.5-3.8,14,2.4c4.2,7.3,7.8,14.9,11.5,22.4
		c2.9,5.8,6,11.4,11.5,15.2c6.2,4.2,13.2,2.7,16-4.2c1.7-4.3,2.7-9.3,2.6-13.9c-0.5-12.1-5.9-22.3-13.5-31.5
		c-24-28.9-59.6-38.9-94.5-20c-4.4,2.4-8.3,5.7-12.7,8.7c-5.4-6.3-12.7-6.5-19.9-5.5c-11.4,1.6-22.7,0.3-33.9-1.5
		c-17.4-2.8-34.8-3.7-52.1,1c-12.6,3.4-25.2,7.1-37.9,10.3c-13.6,3.4-20.3,3-24.9-13.3c-0.4-1.2-1.9-2.1-2.9-3.2
		c-0.8,1.3-1.9,2.4-2.3,3.8c-0.7,2.4-0.9,4.8-1.4,8c-15.6-8.7-30.6-17.1-45.7-25.4c-12.7-6.9-23-16.4-31-28.5
		c-5.7-8.6-11.8-16.9-17.8-25.2c-2.2-3-5.1-5.3-9.3-4.3c-4.2,1-6.5,4.2-7,8c-0.8,6.7-1.6,13.6-0.9,20.3c3.2,26.3,11.4,51.1,25,73.9
		c7.9,13.3,16.5,26.3,30.4,32.7c-1.1,4-2.9,7.8-3.1,11.7c-0.3,5.6,2,10.7,5.5,15.2c6.7,8.6,15.8,13.5,26.1,16.2
		c2.7,0.7,3.8,1.8,3.8,4.5c0,5.2,0.5,10.4,0.4,15.6c-0.6,32.2-1.1,64.5-2.1,96.7c-0.4,12-1,24.1-3.1,35.9
		c-2.7,14.8-6.9,29.4-10.6,44c-2,7.6-6.6,13.3-13.7,16.9c-4.9,2.5-9.7,5-14.4,7.9c-2,1.2-3.5,3.3-5.1,4.9c5.7-2.9,11.2-6.3,17.1-8.7
		c10.9-4.4,17.9-11.8,20.4-23.4c1-4.4,1.7-9,3.4-13.2c7-18,10.8-36.7,11.1-55.9c0.5-24.9,0.6-49.8,0.8-74.7c0-2.3,0-4.7,0-7
		c2,3.4,3,6.9,4.3,10.4c5.6,15.9,12.9,30.8,26.5,41.3c19.8,15.4,43.8,20.5,67.8,24.8c0.8,0.2,1.9-0.9,2.8-1.4c-0.7-1-1.2-2.4-2.1-3
		c-13.2-8.8-26.7-17.4-39.8-26.4c-12.2-8.4-24.8-16.4-34.4-28c-5-6-9.7-12.2-12.1-18.6c7,1.7,14.3,4.3,21.7,5.2
		c13.3,1.5,26.5,3,39.3,7.3c7.1,2.4,14.3,4.4,21.6,6c16.8,3.6,27.2-1.2,35.2-16.3c3.3-6.3,5.6-13.3,8.1-20c1.8-4.9,4.3-9.1,8.6-12.3
		c2.5-1.9,6.2-3.5,7-6c0.8-2.6-1-6.1-1.9-9.2c-3-9.9-6.5-19.6-13.3-27.6c-6-7-13.4-10.3-22.8-8.8c-10,1.7-19.1,5.4-26.6,12.2
		c-9.4,8.4-18.4,17-27.6,25.6c-3.5,3.2-5.4,7.2-5.8,12c-0.1,1-0.7,2.5-1.5,3c-8.7,4.9-17.4,9.9-26.3,14.4c-4.8,2.4-9.6,1.4-13.9-2
		c-8.1-6.2-11.8-14.9-14.5-24.5c1.6-0.1,2.8-0.2,4-0.3c7.6-0.5,13.1-4.2,16.4-11.1c1.7-3.6,3.7-7.2,4.9-11
		c2.7-8.4,5.9-16.7,7.2-25.3c1.6-10.4-3.4-17.6-13.6-20.1c-6.5-1.6-13.5-2.4-20.1-1.7c-11,1.1-21.8,4.1-33,2.2
		c-0.3,0-0.6,0.4-2.1,1.2c4.3,2.4,7.9,5.1,11.8,6.4c9.7,3.3,19.6,6,29.5,8.8c5.7,1.6,10.5,6.6,11.1,12.4c-4.5-7-10.8-11.4-18.9-11.6
		c-8.4-0.2-16.8,0.4-25.1,1.2c-5.9,0.6-11-0.6-15-4.8c-4.6-4.8-9.4-9.6-13.2-15c-17-24.2-27-51.2-31.1-80.4
		c-1-6.8-0.3-13.8,0.3-20.7c0.1-1.9,2.1-4.3,3.9-5c1.1-0.5,3.8,1.4,5,2.9c4.8,6.3,9.4,12.7,13.8,19.2c8.2,12.1,16.8,24,30,31.3
		c17.3,9.6,34.6,19.1,52,28.5c1.6,0.9,3.6,1.9,5.1,1.5c1-0.3,1.4-2.8,2.2-4.5c0.3,0.4,0.7,0.7,0.9,1.2c4,7.3,10.4,10.2,18.2,8.4
		c10.7-2.4,21.3-5.2,31.7-8.4c18.2-5.6,36.5-9.1,55.7-7c12.5,1.4,25,1.8,37.6,2.4c5.2,0.3,10.4-0.2,15.6,0.1
		c3.7,0.3,6.7,2.3,8.8,5.6c-0.4,0.6-0.6,1.1-1,1.5c-10.9,13.1-14,28.1-11.8,44.7c1.9,14.9,6.7,28.9,13.4,42.2
		C340.3,234.5,348.7,245.9,358.4,256.3"/>
	<path style="clip-path:url(#SVGID_00000054258420700948390970000003380143474846511263_);" d="M361.8,311.3c6,1.6,8.9,1,11.5-2.6
		C370.7,306.3,367.1,307.1,361.8,311.3 M217.1,228.1c-5.2,3.9-10.4,7.9-15.9,12C207.3,242.1,212,238.6,217.1,228.1 M352.6,216
		c0.7,1.7,2.4,3.3,5.4,2.6c2.6-0.6,6.4-7.8,5.3-10.9c-0.6-1.7-3.1-2.7-4.4-3.8c0.2,3.2,1.2,6.2,0.2,8.2
		C358.2,213.9,355.1,214.7,352.6,216 M366.3,214c-4.4,7.9-5.2,8.4-13.1,8.5c1.6,3.2,4,5.1,7.2,4.7C364.4,226.8,367,221,366.3,214
		 M242.8,222v-12.6c-3.6,2.3-7.2,4.5-10.8,6.7C236.1,218.3,239.6,220.2,242.8,222 M256,372.6c-0.8-0.1-1.6-0.3-2.4-0.4
		c-3.3,8.1-2.7,16.5-1.9,24.9c0.4,0,0.7,0.1,1.1,0.1C253.9,389,255,380.8,256,372.6 M261.8,211.8c-0.1-2.9-1.4-4.2-4.1-4.2
		c-3.2,0-5.5,2.6-5.5,6c0,2.9,2.3,5.3,4.9,5.1C259.6,218.5,261.9,215.2,261.8,211.8 M247.3,211.8c-2.2,4-1.3,8.4,2.3,11.8
		c3.7,3.4,9.1,4.1,12.9,1.6c3.6-2.3,5.1-6.6,3.6-10.6c-2,5-4.5,9.2-10.8,8.2C250.4,222.1,248.5,219.4,247.3,211.8 M347.2,210.1
		c2-3.3,3.6-7.6,6.5-10.5c4-4.1,8.2-1.4,12.5,2.6c-0.9-3.2-1.3-5.4-2.1-7.5c-2.2-6.5-9.7-8-14.4-3.1
		C345.4,195.9,344.4,205,347.2,210.1 M369.6,219.5c-3.6,8.7-5.1,10.1-13.8,10.7c4.2,6.6,8.2,12.7,12.1,18.9c0.6-0.2,1.1-0.3,1.7-0.5
		V219.5z M379.4,323.8c8.6-0.6,14.3-4.2,15.9-9.6c-2.8-0.5-6.9,1.9-7.9-2.3c-0.5-2.3,0.3-5.9,1.9-7.6c3.8-4,6.7,0.6,9.8,2.3
		c3.5-5.2,3.7-10.4,0.4-14.7c-4.2-5.6-10.2-4.4-16.4-4.5C388.1,300.4,383.4,311.9,379.4,323.8 M399.2,318.3
		c-4.2,6.1-10.6,8.1-17.1,10c-2,0.6-4.2,1.9-5.3,3.6c-2.2,3.3-3.6,7-5.5,10.8c4.3,2.3,8.9,4.7,13.5,7c3.4,1.7,6.4,0.9,8.2-2.5
		C397.7,338.2,399.7,328.5,399.2,318.3 M134.2,222.1c0.5-0.3,1-0.6,1.4-0.9c-2.1-7.5-3.8-15.1-6.3-22.5c-1.1-3.5-3.3-6.7-5.6-9.6
		c-3.6-4.6-10.5-5.9-15.2-3.3c-4,2.2-5.3,7.1-3.2,13.2C110.3,212.8,121.7,218.2,134.2,222.1 M163.3,199.3c0.4,0.1,0.7,0.2,1.1,0.3
		c1.7-7.2,3.9-14.3,4.9-21.6c1.1-7.8-3.2-13.7-11-16c-4.6-1.3-9.5-2.4-14.1-2.1c-11.1,0.6-22.1,2-33.7,3.1c1.9,1.1,3.4,2.6,5.2,3.1
		c9.4,2.6,18.7,5.4,28.2,7.2c7.1,1.3,11.7,5.1,14.4,11.3C160.4,189.3,161.7,194.4,163.3,199.3 M122.3,180.8
		c-0.1,0.3-0.2,0.6-0.4,0.9c6.9,4.3,10.4,11,12.7,18.3c1.9,6.2,3.5,12.6,4.4,19c0.5,3.7,2,4.5,5.2,3.9c1-0.2,2.1-0.2,3.2-0.4
		c4.9-1.1,10.5-6.3,10.3-10c-0.4-5.2-0.8-10.4-2.2-15.4c-2.5-9.3-8.6-15.4-18.5-16.3C132.1,180.4,127.2,180.8,122.3,180.8
		 M373.8,328.1c0.9-1.4,2-2.5,2.5-3.8c1.9-5.7,4.2-11.3,5.3-17.2c1-5.4,0.7-11.1,0.5-16.7c0-1.1-1.7-3.1-2.7-3.2
		c-5.7-0.4-11.5-0.9-17.1-0.4c-7.4,0.7-11,5-11.8,12.4c-0.8,8.3,3.7,11.5,11.3,8.3c2.4-1,4.9-2.3,7.4-2.9c2.8-0.7,5.6-0.1,6.7,2.9
		c1.1,3.3-1.4,5-3.9,6c-1.9,0.7-4.2,0.9-6.3,0.9c-2.7,0-5.3-0.5-8-0.6c-1.3-0.1-2.7,0.2-4.8,0.3
		C358.7,321.3,366.3,324.2,373.8,328.1 M312.2,367.1c-7.3-1.7-13.8-3-20.2-4.7c-11.9-3.1-23.7-6.7-33.9-13.9
		c-6.1-4.3-10.6-9.8-12.4-17.2c-1.2-5.2-0.2-10,3.9-13.5c3.6-3,7.3-1.3,10.7,0.9c0.1,0.1,0.5-0.1,1.2-0.2c-2.3-1.7-4.1-3.4-6.3-4.6
		c-5.7-3.3-10.7-2.6-14.8,2c-4.4,4.9-4.7,9.7-0.7,15.2c1.1,1.5,2.3,2.9,3.4,4.4c7.1,9.3,13.6,18.8,15.9,30.6c0.2,1,1.7,2.1,2.9,2.5
		c2.6,0.9,5.4,1.5,8.1,2.1c6.1,1.2,12.3,2.8,18.4,3.2C296.7,374.4,304.5,372.3,312.2,367.1 M144.1,257.9c-0.4,0.2-0.9,0.4-1.3,0.6
		c2.4,7.8,4.4,15.6,7.2,23.2c5.5,14.8,13.3,28.1,26.2,37.6c10,7.3,21.7,11.5,33.4,15.2c5.9,1.8,11.9,3.3,17.8,4.9
		c-0.4-1.4-1.1-1.9-1.8-2.4c-11-7.6-22-15.1-33-22.8c-13.9-9.8-27.3-20.3-36.2-35.3C152.4,271.8,148.2,264.8,144.1,257.9
		 M369.4,343.4c-12.8,7.4-26.5,11.4-40.7,13.4c-11.4,1.6-22.7,1.6-33.4-3.3c-9.3-4.2-16.9-10.7-24.1-17.7
		c-4.5-4.4-8.9-8.9-13.7-12.9c-3.7-3.1-6-2-6.9,2.8c-1.4,7.6,2.9,12.8,8.1,17.2c7.1,6.1,15.8,9.5,24.6,12.1
		c16.5,4.9,33.3,8.3,50.3,11c11.3,1.8,21.4-0.1,30.6-7.1c4.7-3.6,9.7-6.8,14.8-10.3C376,346.9,372.8,345.2,369.4,343.4 M369,195.9
		c2.9-6.4,5.6-12.8,8.8-18.9c3.2-6.1,6.7-12.3,10.8-17.8c3.3-4.5,7.3-8.9,11.9-12.1c5.7-4,12.4-2.5,16.1,3.3
		c4.2,6.6,7.5,13.8,11.3,20.7c2.9,5.1,5.6,10.4,9.2,14.9c1.7,2.1,5.5,3.8,8.2,3.6c3.7-0.2,5.4-4.2,5.5-7.4c0.2-5.6,0.4-11.6-1.1-17
		c-7-25.2-41.6-54.6-78.1-46.8c-11.6,2.5-22.3,6.6-31.2,14.5c-0.9,0.8-1.9,2.9-1.5,3.8c3.7,7.8,6.2,16.2,12.3,22.8
		c3.3,3.6,6,7.9,8,12.4C362.8,179.7,365.7,187.8,369,195.9 M141.6,239.6c-0.5,0.2-1,0.5-1.6,0.8c2.1,4.9,4.3,9.8,6.4,14.8
		c3,7.2,8.5,11.6,15.9,13.5c4.4,1.1,8.9,2.1,13.4,2.3c14,0.7,27.6,2.8,40.9,7.1c6.8,2.2,13.9,4.1,20.9,5.3
		c15,2.6,23.6-1.8,30.4-15.4c2.3-4.6,4.4-9.5,5.9-14.4c2.6-8.7,6.7-16.3,14.9-21c1-0.6,1.8-2.7,1.5-3.8c-2.3-9.9-5.6-19.6-11.4-28.1
		c-5-7.3-11.4-11.9-20.9-10.8c-7.8,1-15.5,3.2-21.5,8.2c-11.5,9.7-22.5,20-33.6,30.3c-1.5,1.4-2.1,3.8-3.1,5.8
		c0.4,0.2,0.7,0.5,1.1,0.7c6.9-5.4,13.7-11.1,20.8-16.2c7.2-5.2,14.6-10.3,22.5-14.4c7.6-4,15.3-3.5,22.4,2.4
		c6.3,5.2,10.9,11.4,15.1,18.9h-9.6c2.7-0.6,4.5-1,6.8-1.5c-2.5-3.2-4.8-6.1-7.4-9.3c-0.9,4.4-1.7,8.1-2.5,11.9
		c-1.1,0.5-2.8,1.1-4.2,2c-4.3,2.8-8.9,2.9-13.4,0.9c-3.5-1.5-7-3.3-10.2-5.5c-10.3-6.9-13.4-6.3-20.2,4.3
		c-2.7,4.3-5.6,8.5-9.1,12.1c-3.4,3.5-7.7,5.1-12.8,2.5c-0.9-0.5-2.7,0.2-3.8,0.8c-7.2,3.8-14.1,8.3-21.5,11.6
		c-11.8,5.3-20,2.7-27.5-7.8C144.7,245.1,143.2,242.3,141.6,239.6 M358.4,256.3c-9.8-10.4-18.1-21.7-24.4-34.5
		c-6.6-13.4-11.4-27.3-13.4-42.2c-2.2-16.6,0.9-31.6,11.8-44.7c0.3-0.4,0.6-0.9,1-1.5c-2.1-3.3-5.1-5.3-8.8-5.6
		c-5.2-0.4-10.4,0.1-15.6-0.1c-12.5-0.7-25.1-1.1-37.6-2.4c-19.2-2.1-37.5,1.4-55.7,7c-10.5,3.2-21.1,6-31.7,8.4
		c-7.8,1.8-14.2-1.1-18.2-8.4c-0.2-0.4-0.6-0.8-0.9-1.2c-0.8,1.7-1.2,4.3-2.2,4.5c-1.5,0.4-3.5-0.6-5.1-1.5
		c-17.4-9.5-34.7-18.9-52-28.5c-13.2-7.3-21.7-19.1-30-31.3c-4.4-6.5-9-13-13.8-19.2c-1.1-1.5-3.8-3.4-5-2.9c-1.7,0.7-3.7,3.2-3.9,5
		c-0.5,6.9-1.2,13.9-0.3,20.7c4.1,29.1,14.1,56.2,31.1,80.4c3.8,5.4,8.6,10.2,13.2,15c4,4.2,9.1,5.4,15,4.8
		c8.3-0.9,16.8-1.5,25.1-1.2c8.1,0.2,14.3,4.6,18.9,11.6c-0.6-5.8-5.4-10.8-11.1-12.4c-9.9-2.7-19.8-5.5-29.5-8.8
		c-4-1.3-7.5-4-11.8-6.4c1.5-0.9,1.9-1.3,2.1-1.2c11.2,2,22-1,33-2.2c6.6-0.7,13.7,0.1,20.1,1.7c10.1,2.6,15.1,9.8,13.6,20.1
		c-1.3,8.6-4.5,17-7.2,25.3c-1.2,3.8-3.2,7.3-4.9,11c-3.2,6.9-8.7,10.6-16.4,11.1c-1.2,0.1-2.4,0.2-4,0.3
		c2.7,9.6,6.4,18.3,14.5,24.5c4.3,3.3,9.2,4.3,13.9,2c8.9-4.5,17.6-9.4,26.3-14.4c0.8-0.5,1.4-1.9,1.5-3c0.4-4.8,2.4-8.7,5.8-12
		c9.2-8.6,18.3-17.3,27.6-25.6c7.6-6.7,16.6-10.5,26.6-12.2c9.4-1.6,16.8,1.8,22.8,8.8c6.9,8,10.4,17.7,13.3,27.6
		c0.9,3.1,2.8,6.6,1.9,9.2c-0.8,2.5-4.5,4.1-7,6c-4.3,3.1-6.8,7.3-8.6,12.3c-2.4,6.8-4.7,13.7-8.1,20c-8,15.2-18.4,19.9-35.2,16.3
		c-7.3-1.6-14.5-3.6-21.6-6c-12.8-4.3-26-5.9-39.3-7.3c-7.4-0.8-14.6-3.4-21.7-5.2c2.5,6.4,7.2,12.6,12.1,18.6
		c9.6,11.6,22.2,19.6,34.4,28c13.1,9,26.6,17.5,39.8,26.4c1,0.6,1.4,2,2.1,3c-0.9,0.5-2,1.6-2.8,1.4c-24-4.4-47.9-9.5-67.8-24.8
		c-13.5-10.5-20.9-25.5-26.5-41.3c-1.2-3.5-2.3-7-4.3-10.4c0,2.3,0,4.7,0,7c-0.3,24.9-0.4,49.8-0.8,74.7
		c-0.3,19.3-4.1,37.9-11.1,55.9c-1.6,4.2-2.4,8.7-3.4,13.2c-2.5,11.6-9.6,19-20.4,23.4c-5.9,2.4-11.4,5.7-17.1,8.7
		c1.6-1.5,3.1-3.6,5.1-4.9c4.7-2.9,9.5-5.4,14.4-7.9c7.2-3.6,11.8-9.3,13.7-16.9c3.7-14.6,8-29.1,10.6-44
		c2.1-11.8,2.7-23.9,3.1-35.9c1-32.2,1.5-64.5,2.1-96.7c0.1-5.2-0.4-10.4-0.4-15.6c0-2.7-1.1-3.9-3.8-4.5
		c-10.4-2.6-19.4-7.6-26.1-16.2c-3.5-4.5-5.8-9.6-5.5-15.2c0.2-3.9,2-7.7,3.1-11.7c-13.9-6.4-22.5-19.3-30.4-32.7
		c-13.5-22.8-21.8-47.6-25-73.9c-0.8-6.6,0.1-13.6,0.9-20.3c0.4-3.8,2.8-7,7-8c4.1-1,7.1,1.3,9.3,4.3c6.1,8.3,12.2,16.6,17.8,25.2
		c8,12.1,18.3,21.5,31,28.5c15.1,8.3,30.1,16.7,45.7,25.4c0.5-3.2,0.8-5.7,1.4-8c0.4-1.4,1.5-2.5,2.3-3.8c1,1.1,2.5,2,2.9,3.2
		c4.6,16.3,11.4,16.6,24.9,13.3c12.7-3.2,25.2-6.9,37.9-10.3c17.3-4.6,34.7-3.8,52.1-1c11.2,1.8,22.5,3,33.9,1.5
		c7.3-1,14.6-0.9,19.9,5.5c4.4-3,8.3-6.3,12.7-8.7c34.9-18.9,70.4-9,94.5,20c7.6,9.2,13,19.4,13.5,31.5c0.2,4.6-0.8,9.6-2.6,13.9
		c-2.8,6.9-9.7,8.5-16,4.2c-5.5-3.8-8.6-9.4-11.5-15.2c-3.8-7.5-7.4-15.1-11.5-22.4c-3.5-6.1-8.7-7.2-14-2.4
		c-4.3,3.9-7.8,8.8-11,13.6c-6.9,10.5-13.3,21.3-16.6,33.7c-0.2,0.9-0.3,1.8-0.3,1.8c2,1.6,3.5,2.7,5,3.9c-1.9,2.2-3.8,4.3-6.3,7
		c3.6,11.6,2.4,24.4,0.6,37.3c-0.2,1.6,0.8,3.9,2,5.1c7.9,8.7,16.1,17.1,24,25.9c4,4.5,7.5,9.6,7.7,15.9c0.1,3-0.5,6.1-0.9,9.1
		c-0.5,3.4-1.6,6.7-1.7,10c-0.2,10.7-2.1,21-6.5,30.8c-2.9,6.3-6.2,8.3-13,7.3c-3.3-0.5-6,0.1-8.6,2.2c-3,2.5-6.2,4.7-9.2,7.1
		c-10.2,8-21.7,9.6-34.1,7c-3.3-0.7-6.7-1.1-10.9-1.8c0.7,6.8,1,12.9,1.9,19c2.3,15.3,4.3,30.7,7.7,45.8
		c2.3,10.3,6.6,20.3,10.2,30.3c2.1,6,3.6,12,2.1,18.5c-0.4-2.7-0.4-5.5-1.3-8c-2.1-5.8-4.3-11.5-7-17c-6.8-13.7-9.9-28.5-12.4-43.4
		c-2.3-13.6-3.9-27.2-5.8-40.9c-0.1-0.5-0.2-1-0.6-2.3c-18.2,12.8-36.6,5.6-55.2,0.6c-0.5,5.6-0.5,10.5-1.4,15.3
		c-1.3,7.1-3,14.1-4.8,21.1c-0.4,1.4-2.2,2.5-3.4,3.8c-0.8-1.4-2.2-2.8-2.2-4.2c-0.4-8.9-0.7-17.9-0.5-26.8
		c0.1-4.8,1.1-9.7,6.8-11.6c-1.6-11.2-7.5-20-14-28.6c-1.7-2.2-3.5-4.4-5.1-6.7c-4.9-7.3-4.2-14.6,1.9-20.7c5.6-5.5,14-6.6,20.5-1.4
		c6.3,5.1,11.9,11.1,17.7,16.8c5.4,5.4,10.7,10.9,15.9,16.5c5.2,5.7,11.9,8.1,19.3,8.5c19,1,36.9-3.3,53.7-12
		c1.6-0.8,3.1-2.1,4.3-3.5c5.3-6.2,4.5-8.1-2.8-11.5c-4.6-2.1-8.7-5.1-12.9-7.9c-2.2-1.5-3.1-3.8-0.8-6.2
		c-6.6-4.7-6.1-11.2-4.3-17.7c1.7-6.2,6.3-9.4,12.5-10.4c2.6-0.4,5.3-0.6,8-0.5c8.8,0.3,17.6,0.7,27.7,1.1
		c-8.7-9.1-16.8-17.6-24.9-26.1c-0.4,0.1-0.9,0.3-1.3,0.4v15.5c-0.5,0.1-0.9,0.2-1.4,0.3c-3.6-6-7.2-12-10.8-18
		c3.1,3.8,6.3,7.7,10.1,12.4c0-4.9,0-8.9,0-12.8c0-0.7-0.4-1.6-0.9-2.1c-9.7-10.3-14.9-23.3-20.9-35.8c-2.7-5.6-3.9-11.6-3.3-17.9
		c0.8-8.3,6.7-14.2,13.5-13.4c1.6,0.2,3.1,0.9,5.3,1.4c-3.6-9.7-7-18.7-13.1-26.6c-3.8-4.9-6.4-10.7-9.4-16.1
		c-1.3-2.4-2.2-5.1-3.3-7.7c-0.7,0.4-1.1,0.6-1.4,0.8c-0.6,0.7-1.2,1.4-1.8,2.2c-6.8,9.2-9.7,19.5-9.3,30.8
		c0.8,24.4,9.5,46.1,22.3,66.3C350.1,244,354.3,250.1,358.4,256.3"/>
	<path style="clip-path:url(#SVGID_00000054258420700948390970000003380143474846511263_);fill:#FFFFFF;" d="M141.6,239.6
		c1.6,2.7,3.1,5.5,4.9,8.1c7.5,10.5,15.8,13.1,27.5,7.8c7.4-3.3,14.3-7.8,21.5-11.6c1.1-0.6,2.9-1.2,3.8-0.8c5,2.6,9.4,0.9,12.8-2.5
		c3.5-3.6,6.4-7.9,9.1-12.1c6.8-10.6,9.9-11.2,20.2-4.3c3.2,2.1,6.7,3.9,10.2,5.5c4.5,2,9.1,1.9,13.4-0.9c1.4-0.9,3.1-1.5,4.2-2
		c0.8-3.8,1.6-7.4,2.5-11.9c2.6,3.3,4.9,6.1,7.4,9.3c-2.3,0.5-4.1,0.9-6.8,1.5h9.6c-4.2-7.5-8.8-13.7-15.1-18.9
		c-7.2-5.9-14.9-6.4-22.4-2.4c-7.9,4.1-15.2,9.3-22.5,14.4c-7.2,5.1-13.9,10.8-20.8,16.2c-0.4-0.2-0.7-0.5-1.1-0.7
		c1-2,1.5-4.4,3.1-5.8c11.1-10.3,22-20.6,33.6-30.3c6-5,13.6-7.3,21.5-8.3c9.4-1.2,15.9,3.5,20.9,10.8c5.8,8.5,9.1,18.1,11.4,28.1
		c0.3,1.1-0.6,3.2-1.5,3.8c-8.2,4.8-12.2,12.3-14.9,21c-1.5,5-3.6,9.8-5.9,14.4c-6.9,13.6-15.5,18.1-30.4,15.4
		c-7.1-1.2-14.1-3.1-20.9-5.3c-13.3-4.3-27-6.5-40.9-7.1c-4.5-0.2-9-1.2-13.4-2.3c-7.4-1.9-12.9-6.2-15.9-13.5
		c-2.1-5-4.3-9.9-6.4-14.8C140.6,240.1,141.1,239.8,141.6,239.6"/>
	<path style="clip-path:url(#SVGID_00000054258420700948390970000003380143474846511263_);fill:#FFFFFF;" d="M369,195.9
		c-3.3-8.1-6.2-16.3-9.8-24.1c-2-4.4-4.7-8.8-8-12.4c-6.1-6.6-8.6-15-12.3-22.8c-0.4-0.9,0.6-3,1.5-3.8c9-7.9,19.7-12,31.2-14.5
		c36.5-7.8,71,21.5,78.1,46.8c1.5,5.4,1.3,11.3,1.1,17c-0.1,3.2-1.8,7.3-5.5,7.4c-2.7,0.1-6.5-1.5-8.2-3.6
		c-3.6-4.5-6.3-9.8-9.2-14.9c-3.8-6.9-7.1-14.1-11.3-20.7c-3.7-5.9-10.4-7.4-16.1-3.3c-4.6,3.2-8.6,7.6-11.9,12.1
		c-4.1,5.6-7.5,11.7-10.8,17.8C374.5,183.1,371.9,189.5,369,195.9"/>
	<path style="clip-path:url(#SVGID_00000054258420700948390970000003380143474846511263_);fill:#FFFFFF;" d="M358.4,256.3
		c-4.1-6.2-8.3-12.3-12.3-18.6c-12.9-20.3-21.5-42-22.3-66.3c-0.3-11.3,2.5-21.7,9.3-30.8c0.6-0.7,1.2-1.5,1.8-2.2
		c0.2-0.3,0.6-0.4,1.4-0.8c1.1,2.7,2,5.3,3.3,7.7c3,5.5,5.6,11.2,9.4,16.1c6.1,7.9,9.4,16.9,13.1,26.6c-2.1-0.6-3.7-1.2-5.3-1.4
		c-6.8-0.9-12.7,5-13.5,13.4c-0.6,6.3,0.6,12.3,3.3,17.9c6,12.4,11.2,25.5,20.9,35.8c0.5,0.5,0.9,1.4,0.9,2.1c0.1,3.9,0,7.9,0,12.8
		c-3.9-4.7-7-8.6-10.1-12.4C358.3,256.1,358.4,256.3,358.4,256.3"/>
	<path style="clip-path:url(#SVGID_00000054258420700948390970000003380143474846511263_);fill:#FFFFFF;" d="M369.4,343.4
		c3.3,1.8,6.6,3.6,9.6,5.2c-5,3.5-10.1,6.7-14.8,10.3c-9.2,7-19.3,8.9-30.6,7.1c-17-2.7-33.8-6.1-50.3-11c-8.9-2.6-17.5-6-24.6-12.1
		c-5.2-4.5-9.5-9.6-8.1-17.2c0.9-4.8,3.2-5.8,6.9-2.8c4.8,4,9.2,8.5,13.7,12.9c7.2,7,14.8,13.5,24.1,17.7
		c10.8,4.9,22.1,4.9,33.4,3.3C343,354.7,356.6,350.8,369.4,343.4"/>
	<path style="clip-path:url(#SVGID_00000054258420700948390970000003380143474846511263_);fill:#FFFFFF;" d="M144.1,257.9
		c4.2,7,8.4,13.9,12.5,20.9c8.9,15,22.3,25.5,36.2,35.3c10.9,7.7,22,15.2,33,22.8c0.7,0.5,1.5,1.1,1.8,2.4c-6-1.6-12-3-17.8-4.9
		c-11.8-3.7-23.4-7.8-33.4-15.2c-13-9.5-20.8-22.9-26.2-37.6c-2.8-7.6-4.8-15.5-7.2-23.2C143.2,258.3,143.6,258.1,144.1,257.9"/>
	<path style="clip-path:url(#SVGID_00000054258420700948390970000003380143474846511263_);fill:#FFFFFF;" d="M312.2,367.1
		c-7.7,5.2-15.5,7.3-23.7,6.8c-6.2-0.4-12.3-2-18.4-3.2c-2.7-0.5-5.5-1.2-8.1-2.1c-1.1-0.4-2.7-1.5-2.9-2.5
		c-2.3-11.8-8.8-21.4-15.9-30.6c-1.1-1.5-2.4-2.9-3.4-4.4c-3.9-5.6-3.7-10.3,0.7-15.2c4.1-4.5,9.1-5.3,14.8-2c2.1,1.3,4,2.9,6.3,4.6
		c-0.7,0.2-1,0.3-1.2,0.2c-3.4-2.1-7.1-3.9-10.7-0.9c-4.1,3.5-5.1,8.4-3.9,13.5c1.7,7.4,6.3,12.9,12.4,17.2
		c10.2,7.2,22,10.8,33.9,13.9C298.4,364,304.9,365.4,312.2,367.1"/>
	<path style="clip-path:url(#SVGID_00000054258420700948390970000003380143474846511263_);fill:#FFFFFF;" d="M373.8,328.1
		c-7.5-3.9-15.1-6.8-20.9-14c2.2-0.2,3.5-0.4,4.8-0.3c2.7,0.1,5.3,0.6,8,0.6c2.1,0,4.3-0.1,6.3-0.9c2.5-1,5-2.7,3.9-6
		c-1-3-3.9-3.6-6.7-2.9c-2.6,0.6-5,1.8-7.4,2.9c-7.6,3.3-12.1,0-11.3-8.3c0.7-7.4,4.3-11.7,11.8-12.4c5.7-0.5,11.4,0,17.1,0.4
		c1,0.1,2.7,2.1,2.7,3.2c0.1,5.6,0.4,11.2-0.6,16.7c-1,5.9-3.4,11.5-5.3,17.2C375.8,325.6,374.7,326.7,373.8,328.1"/>
	<path style="clip-path:url(#SVGID_00000054258420700948390970000003380143474846511263_);fill:#FFFFFF;" d="M122.3,180.8
		c4.9,0,9.8-0.4,14.7,0.1c10,0.9,16,7,18.5,16.3c1.3,5,1.8,10.2,2.2,15.4c0.3,3.7-5.3,8.9-10.3,10c-1,0.2-2.1,0.2-3.2,0.4
		c-3.1,0.5-4.6-0.2-5.2-3.9c-0.9-6.4-2.5-12.8-4.4-19c-2.3-7.3-5.8-14-12.7-18.3C122,181.4,122.1,181.1,122.3,180.8"/>
	<path style="clip-path:url(#SVGID_00000054258420700948390970000003380143474846511263_);fill:#FFFFFF;" d="M163.3,199.3
		c-1.6-4.9-2.8-10-4.9-14.7c-2.7-6.2-7.3-9.9-14.4-11.3c-9.5-1.8-18.9-4.6-28.2-7.2c-1.8-0.5-3.3-1.9-5.2-3.1
		c11.6-1.1,22.7-2.5,33.7-3.1c4.7-0.2,9.6,0.8,14.1,2.1c7.8,2.2,12,8.2,11,16c-1,7.3-3.2,14.4-4.9,21.6
		C164,199.5,163.6,199.4,163.3,199.3"/>
	<path style="clip-path:url(#SVGID_00000054258420700948390970000003380143474846511263_);fill:#FFFFFF;" d="M134.2,222.1
		c-12.5-3.9-24-9.4-28.7-23.1c-2.1-6.1-0.8-10.9,3.2-13.2c4.7-2.6,11.6-1.3,15.2,3.3c2.3,2.9,4.4,6.2,5.6,9.6
		c2.5,7.4,4.2,15,6.3,22.5C135.2,221.5,134.7,221.8,134.2,222.1"/>
	<path style="clip-path:url(#SVGID_00000054258420700948390970000003380143474846511263_);fill:#FFFFFF;" d="M399.2,318.3
		c0.4,10.3-1.5,20-6.2,29c-1.8,3.4-4.8,4.2-8.2,2.5c-4.6-2.3-9.1-4.8-13.5-7c1.9-3.8,3.3-7.5,5.5-10.8c1.1-1.7,3.3-3,5.3-3.6
		C388.7,326.4,395,324.4,399.2,318.3"/>
	<path style="clip-path:url(#SVGID_00000054258420700948390970000003380143474846511263_);fill:#FFFFFF;" d="M379.4,323.8
		c4-11.9,8.7-23.4,3.8-36.4c6.1,0.1,12.2-1,16.4,4.5c3.3,4.4,3.1,9.5-0.4,14.7c-3.1-1.7-6-6.3-9.8-2.3c-1.6,1.7-2.5,5.3-1.9,7.6
		c1,4.2,5.1,1.8,7.9,2.3C393.7,319.6,388,323.1,379.4,323.8"/>
	<path style="clip-path:url(#SVGID_00000054258420700948390970000003380143474846511263_);fill:#FFFFFF;" d="M369.6,219.5v29.1
		c-0.6,0.2-1.1,0.3-1.7,0.5c-4-6.2-7.9-12.3-12.1-18.9C364.5,229.6,366,228.2,369.6,219.5"/>
	<path style="clip-path:url(#SVGID_00000054258420700948390970000003380143474846511263_);fill:#FFFFFF;" d="M347.2,210.1
		c-2.8-5-1.8-14.1,2.5-18.6c4.7-4.9,12.2-3.3,14.5,3.1c0.7,2.1,1.2,4.3,2.1,7.5c-4.3-4-8.5-6.7-12.5-2.6
		C350.8,202.5,349.2,206.7,347.2,210.1"/>
	<path style="clip-path:url(#SVGID_00000054258420700948390970000003380143474846511263_);fill:#FFFFFF;" d="M247.3,211.8
		c1.2,7.6,3.2,10.2,8.1,11c6.2,1,8.8-3.2,10.8-8.2c1.5,4.1-0.1,8.3-3.6,10.6c-3.8,2.5-9.2,1.8-12.9-1.6
		C245.9,220.2,245.1,215.9,247.3,211.8"/>
	<path style="clip-path:url(#SVGID_00000054258420700948390970000003380143474846511263_);fill:#FFFFFF;" d="M261.8,211.8
		c0.1,3.4-2.2,6.7-4.7,6.9c-2.6,0.2-4.9-2.2-4.9-5.1c0-3.4,2.4-6,5.5-6C260.4,207.6,261.7,208.9,261.8,211.8"/>
	<path style="clip-path:url(#SVGID_00000054258420700948390970000003380143474846511263_);fill:#FFFFFF;" d="M256,372.6
		c-1.1,8.2-2.1,16.4-3.2,24.6c-0.4,0-0.7-0.1-1.1-0.1c-0.8-8.4-1.4-16.9,1.9-24.9C254.4,372.3,255.2,372.4,256,372.6"/>
	<path style="clip-path:url(#SVGID_00000054258420700948390970000003380143474846511263_);fill:#FFFFFF;" d="M242.8,222
		c-3.2-1.7-6.6-3.6-10.8-5.9c3.6-2.3,7.2-4.5,10.8-6.7V222z"/>
	<path style="clip-path:url(#SVGID_00000054258420700948390970000003380143474846511263_);fill:#FFFFFF;" d="M366.3,214
		c0.7,7-1.8,12.8-5.9,13.2c-3.3,0.3-5.6-1.6-7.2-4.7C361.1,222.5,361.9,221.9,366.3,214"/>
	<path style="clip-path:url(#SVGID_00000054258420700948390970000003380143474846511263_);fill:#FFFFFF;" d="M352.6,216
		c2.4-1.4,5.6-2.1,6.5-3.9c1-2,0-5-0.2-8.2c1.3,1.1,3.7,2.1,4.4,3.8c1.2,3.1-2.7,10.3-5.3,10.9C355.1,219.3,353.3,217.7,352.6,216"
		/>
	<path style="clip-path:url(#SVGID_00000054258420700948390970000003380143474846511263_);fill:#FFFFFF;" d="M217.2,228.1
		c-5.1,10.5-9.9,14.1-15.9,12C206.8,235.9,212,232,217.2,228.1"/>
	<path style="clip-path:url(#SVGID_00000054258420700948390970000003380143474846511263_);fill:#FFFFFF;" d="M361.8,311.3
		c5.3-4.2,8.9-5,11.5-2.6C370.8,312.3,367.8,312.9,361.8,311.3"/>
</g>
</svg>
