<?xml version="1.0" encoding="utf-8"?>
<!-- Generator: Adobe Illustrator 28.0.0, SVG Export Plug-In . SVG Version: 6.00 Build 0)  -->
<svg version="1.1" id="Layer_1" xmlns="http://www.w3.org/2000/svg" xmlns:xlink="http://www.w3.org/1999/xlink" x="0px" y="0px"
	 viewBox="0 0 500 500" style="enable-background:new 0 0 500 500;" xml:space="preserve">
<style type="text/css">
	.st0{clip-path:url(#SVGID_00000118360340638438903470000012998486052219486611_);fill:#FFFFFF;}
	
		.st1{clip-path:url(#SVGID_00000118360340638438903470000012998486052219486611_);fill:none;stroke:#000000;stroke-width:0.75;stroke-miterlimit:10;}
	.st2{clip-path:url(#SVGID_00000118360340638438903470000012998486052219486611_);}
</style>
<g>
	<defs>
		<rect id="SVGID_1_" x="110.3" y="27.3" width="318.1" height="459.9"/>
	</defs>
	<clipPath id="SVGID_00000070082574059130867480000008486855519819912615_">
		<use xlink:href="#SVGID_1_"  style="overflow:visible;"/>
	</clipPath>
	<path style="clip-path:url(#SVGID_00000070082574059130867480000008486855519819912615_);fill:#FFFFFF;" d="M248.6,319.4
		c8.3-5.1,17.6-10,25.9-16.2c6.6-5,12.8-11.2,17.7-17.9c8.1-11.1,7.5-23.3-1.2-33.9c-4.6-5.6-10.1-10.6-15.9-15.1
		c-8.9-6.9-18.4-13-27.6-19.5c-9.6-6.9-19.1-14-26.1-23.8c-8.2-11.5-9.4-23.5-3.1-36.2c4.7-9.5,11.6-17.3,19.2-24.5
		c19.7-18.4,42.5-32.4,66-45.4C342,65.5,382,47.5,422.7,30.7c1.6-0.7,3.1-1.5,4.7-2.2c-1.1-0.6-2.1-0.5-2.9-0.2
		c-40.9,17.1-81.5,35-120.4,56.5c-20.5,11.3-40.5,23.5-58.6,38.4c-11,9.1-21.3,19-28,31.9c-7.1,13.5-6.4,26.8,3,38.9
		c4.5,5.8,10,11.2,15.7,15.9c7.5,6.1,15.9,11.2,23.6,17.1c9.1,6.9,18.5,13.4,26.7,21.4c13.1,12.8,13,27,1.3,41
		c-9.3,11-21.3,18.2-33.7,25.1c-6.2,3.5-12,4.9-19.1,2.6c-7.2-2.3-14-0.4-19.3,5.3c-1.5,1.6-2,4-3,6c2.1,0.2,4.5,1.1,6.4,0.5
		c7.4-2.1,14.7-4.8,22.1-7c1.9-0.6,4.2-1,6-0.4c10.4,3.1,20.7,6.4,31,9.8c14.5,4.8,28.2,12.2,43.6,14.4c3,0.4,6,0.6,9.1,0.8
		c-1.6,6.1,0.4,10.9,4,15.2c1.8,2.1,4.1,3.9,6.3,5.7c6.1,4.9,10.1,10.8,10.4,19c0.4,11.3,1.1,22.5,1.4,33.8
		c0.3,9.1,3.2,16.4,11.4,21.2c4.3,2.5,6.8,6.5,6.5,11.6c-0.5,8.4-0.9,16.9-2,25.2c-0.3,2.2-2.5,4.8-4.5,5.9
		c-5.1,2.8-10.6,2.3-15.9,0c-3.3-1.5-4.4-4.3-2.7-7.3c1.5-2.6,3.7-4.9,6.1-6.7c3.5-2.6,4.3-4.3,2.1-8c-1.1-1.9-2.4-3.9-4-5.4
		c-6.8-6.5-13.5-13.1-20.8-19.1c-6.8-5.5-12.8-11.5-16.5-19.5c-3.5-7.3-9.2-11.7-17.1-13.1c-17.9-3-35.8-6.2-53.8-8.7
		c-12.6-1.8-19.5,3.6-22.5,16.1c-0.3,1.1-0.4,2.2-0.8,3.3c-3.3,9.7-10.4,15.5-19.6,19.7c-0.3-1.1-0.4-1.5-0.4-1.9
		c0-19.2-5.4-36.8-14.2-53.8c-4.2-8.1-7.8-16.6-11-25.1c-1.7-4.4-2.8-9.3-2.7-13.9c0.2-6.3,2.3-12.6-1-18.8c1.3,0.4,2,0.8,2.7,1.2
		c9.3,5.1,19.5,2.5,24.9-6.5c2.9-4.8,5.7-9.7,8.3-14.7c2.6-5,3.9-10.4,2-15.9c-4-12-10.1-23-19.3-31.8c-6.5-6.2-14.4-9.7-23.5-5.9
		c-7.1,3-14.1,6.4-20.9,10c-4.6,2.4-7.6,6.2-8.7,11.4c-0.9,4.2-3.7,6.9-7.6,8.5c-2.2,0.9-4.5,1.5-6.8,2.3c-3.5,1.2-5.6,3.6-7.6,6.8
		c-5.3,8.8,3.7,25.4,16.3,26.1c6.7,0.4,13.2,0.1,19.5-2.6c3.7-1.6,7.4-1.4,10.9,0.9c6.7,4.4,11.1,15.7,10,23.7
		c-0.6,4.6-1,9.9,0.5,14.1c4,11.4,8.7,22.6,13.9,33.4c7,14.5,11.6,29.6,12.8,45.6c0.6,8.2-1.5,9.8-9.5,8c-0.7-0.2-1.3-0.4-2-0.6
		c-7.6-2.3-14.8,0.9-18.3,8.1c-2.1,4.4-1,7.2,3.5,9c11.2,4.4,23.2-1.4,26.7-12.8c0.4-1.3,1.3-2.9,2.5-3.5
		c11.3-5.3,18.5-13.3,21.4-25.9c2.2-9.5,8.2-14.6,18.7-13c18.9,2.9,37.8,5.8,56.7,9c6.5,1.1,11.3,5.1,14.1,11
		c4.3,8.9,10.9,15.5,18.4,21.7c7.9,6.5,15.1,13.9,22.1,21.4c3.9,4.1,3.4,6.5-1.5,8.8c-1.7,0.8-3.1,2.5-4.1,4.1
		c-3.9,6-2.3,10.9,4.7,12.4c4,0.9,8.4,0.8,12.5,0.1c4.5-0.7,7.5-3.9,7.9-8.7c0.7-7.7,1.3-15.4,1.8-23.1c0.4-6.5-2.3-11.5-8-14.7
		c-6.8-3.9-9.6-10-9.8-17.5c-0.3-8.9-0.8-17.7-0.8-26.6c0-13.1-3.4-24.4-15.1-32.1c-2.4-1.6-4.4-4.5-5.7-7.2
		c-3.1-6.4-1.8-8.9,4.8-10.8c6.7-1.8,8.4-5.3,6.1-12.1c-0.6-1.7-0.2-3.7-0.2-5.5c0-2.6,0.8-5.5,0.1-7.9
		c-6.1-19.9-12.4-39.7-18.7-59.6c-0.4-1.2-1.3-2.2-2-3.3c-0.4,0.1-0.9,0.1-1.3,0.2c-0.3,2-1,3.9-1,5.9c0,19.7,5.1,38.1,13.8,55.6
		c2,4,5.7,8.1,5.5,12c-0.2,4-4,7.9-6.6,11.5c-0.9,1.3-3.1,2.6-4.6,2.5c-5.5-0.4-11.1-0.6-16.2-2.4C291.1,335,269.6,327,248.6,319.4"
		/>
	
		<path style="clip-path:url(#SVGID_00000070082574059130867480000008486855519819912615_);fill:none;stroke:#000000;stroke-width:0.75;stroke-miterlimit:10;" d="
		M248.6,319.4c8.3-5.1,17.6-10,25.9-16.2c6.6-5,12.8-11.2,17.7-17.9c8.1-11.1,7.5-23.3-1.2-33.9c-4.6-5.6-10.1-10.6-15.9-15.1
		c-8.9-6.9-18.4-13-27.6-19.5c-9.6-6.9-19.1-14-26.1-23.8c-8.2-11.5-9.4-23.5-3.1-36.2c4.7-9.5,11.6-17.3,19.2-24.5
		c19.7-18.4,42.5-32.4,66-45.4C342,65.5,382,47.5,422.7,30.7c1.6-0.7,3.1-1.5,4.7-2.2c-1.1-0.6-2.1-0.5-2.9-0.2
		c-40.9,17.1-81.5,35-120.4,56.5c-20.5,11.3-40.5,23.5-58.6,38.4c-11,9.1-21.3,19-28,31.9c-7.1,13.5-6.4,26.8,3,38.9
		c4.5,5.8,10,11.2,15.7,15.9c7.5,6.1,15.9,11.2,23.6,17.1c9.1,6.9,18.5,13.4,26.7,21.4c13.1,12.8,13,27,1.3,41
		c-9.3,11-21.3,18.2-33.7,25.1c-6.2,3.5-12,4.9-19.1,2.6c-7.2-2.3-14-0.4-19.3,5.3c-1.5,1.6-2,4-3,6c2.1,0.2,4.5,1.1,6.4,0.5
		c7.4-2.1,14.7-4.8,22.1-7c1.9-0.6,4.2-1,6-0.4c10.4,3.1,20.7,6.4,31,9.8c14.5,4.8,28.2,12.2,43.6,14.4c3,0.4,6,0.6,9.1,0.8
		c-1.6,6.1,0.4,10.9,4,15.2c1.8,2.1,4.1,3.9,6.3,5.7c6.1,4.9,10.1,10.8,10.4,19c0.4,11.3,1.1,22.5,1.4,33.8
		c0.3,9.1,3.2,16.4,11.4,21.2c4.3,2.5,6.8,6.5,6.5,11.6c-0.5,8.4-0.9,16.9-2,25.2c-0.3,2.2-2.5,4.8-4.5,5.9
		c-5.1,2.8-10.6,2.3-15.9,0c-3.3-1.5-4.4-4.3-2.7-7.3c1.5-2.6,3.7-4.9,6.1-6.7c3.5-2.6,4.3-4.3,2.1-8c-1.1-1.9-2.4-3.9-4-5.4
		c-6.8-6.5-13.5-13.1-20.8-19.1c-6.8-5.5-12.8-11.5-16.5-19.5c-3.5-7.3-9.2-11.7-17.1-13.1c-17.9-3-35.8-6.2-53.8-8.7
		c-12.6-1.8-19.5,3.6-22.5,16.1c-0.3,1.1-0.4,2.2-0.8,3.3c-3.3,9.7-10.4,15.5-19.6,19.7c-0.3-1.1-0.4-1.5-0.4-1.9
		c0-19.2-5.4-36.8-14.2-53.8c-4.2-8.1-7.8-16.6-11-25.1c-1.7-4.4-2.8-9.3-2.7-13.9c0.2-6.3,2.3-12.6-1-18.8c1.3,0.4,2,0.8,2.7,1.2
		c9.3,5.1,19.5,2.5,24.9-6.5c2.9-4.8,5.7-9.7,8.3-14.7c2.6-5,3.9-10.4,2-15.9c-4-12-10.1-23-19.3-31.8c-6.5-6.2-14.4-9.7-23.5-5.9
		c-7.1,3-14.1,6.4-20.9,10c-4.6,2.4-7.6,6.2-8.7,11.4c-0.9,4.2-3.7,6.9-7.6,8.5c-2.2,0.9-4.5,1.5-6.8,2.3c-3.5,1.2-5.6,3.6-7.6,6.8
		c-5.3,8.8,3.7,25.4,16.3,26.1c6.7,0.4,13.2,0.1,19.5-2.6c3.7-1.6,7.4-1.4,10.9,0.9c6.7,4.4,11.1,15.7,10,23.7
		c-0.6,4.6-1,9.9,0.5,14.1c4,11.4,8.7,22.6,13.9,33.4c7,14.5,11.6,29.6,12.8,45.6c0.6,8.2-1.5,9.8-9.5,8c-0.7-0.2-1.3-0.4-2-0.6
		c-7.6-2.3-14.8,0.9-18.3,8.1c-2.1,4.4-1,7.2,3.5,9c11.2,4.4,23.2-1.4,26.7-12.8c0.4-1.3,1.3-2.9,2.5-3.5
		c11.3-5.3,18.5-13.3,21.4-25.9c2.2-9.5,8.2-14.6,18.7-13c18.9,2.9,37.8,5.8,56.7,9c6.5,1.1,11.3,5.1,14.1,11
		c4.3,8.9,10.9,15.5,18.4,21.7c7.9,6.5,15.1,13.9,22.1,21.4c3.9,4.1,3.4,6.5-1.5,8.8c-1.7,0.8-3.1,2.5-4.1,4.1
		c-3.9,6-2.3,10.9,4.7,12.4c4,0.9,8.4,0.8,12.5,0.1c4.5-0.7,7.5-3.9,7.9-8.7c0.7-7.7,1.3-15.4,1.8-23.1c0.4-6.5-2.3-11.5-8-14.7
		c-6.8-3.9-9.6-10-9.8-17.5c-0.3-8.9-0.8-17.7-0.8-26.6c0-13.1-3.4-24.4-15.1-32.1c-2.4-1.6-4.4-4.5-5.7-7.2
		c-3.1-6.4-1.8-8.9,4.8-10.8c6.7-1.8,8.4-5.3,6.1-12.1c-0.6-1.7-0.2-3.7-0.2-5.5c0-2.6,0.8-5.5,0.1-7.9
		c-6.1-19.9-12.4-39.7-18.7-59.6c-0.4-1.2-1.3-2.2-2-3.3c-0.4,0.1-0.9,0.1-1.3,0.2c-0.3,2-1,3.9-1,5.9c0,19.7,5.1,38.1,13.8,55.6
		c2,4,5.7,8.1,5.5,12c-0.2,4-4,7.9-6.6,11.5c-0.9,1.3-3.1,2.6-4.6,2.5c-5.5-0.4-11.1-0.6-16.2-2.4C291.1,335,269.6,327,248.6,319.4z
		"/>
	<path style="clip-path:url(#SVGID_00000070082574059130867480000008486855519819912615_);" d="M333.5,343.6c0.3,0.4,0.7,0.9,1,1.3
		c2.6-1.6,6-2.6,7.5-4.8c1.2-1.7,0-5-0.1-7.6c-0.5,0-1-0.1-1.5-0.1C338.1,336.1,335.8,339.9,333.5,343.6 M114.6,297.6
		c0.8,0.1,1.6,0.2,2.4,0.4c1.6-2.4,3.4-4.6,4.8-7.1c1.1-2.1,0-3.8-2.3-3.7c-1.9,0.1-5.2,0.9-5.4,1.9
		C113.5,291.8,114.3,294.8,114.6,297.6 M213.1,327.6c9.7-0.4,18.1-4,27.1-7.6C228.2,314.8,217.5,317.8,213.1,327.6 M195.1,438.4
		c-4.2-0.7-8.1-1.1-11.8-2c-6.4-1.6-14.1,2.4-16.1,8.9c-0.8,2.5-0.1,4.3,2.3,5.6C179.7,456.2,193.5,449.4,195.1,438.4 M340.9,328.1
		c2.3-5.9-13.9-62.7-19.3-68.5C321,284.6,328,306.9,340.9,328.1 M114.7,284.5c0.2,0.4,0.5,0.9,0.7,1.3c1.5,0,3.4-0.5,4.5,0.1
		c1.4,0.8,3.3,2.6,3.3,4c0.1,4.7-4.9,9.2-9.9,9.2c2.9,6.1,6.7,11.4,13.7,12c5.6,0.5,11.7,0.6,17-1.1c7.1-2.2,13.4-3.4,19.6,3.6
		c-0.3-2.4-0.5-3.4-0.6-4.5c-0.9-7.6,0-14.9,4.7-21.3c4.2-5.7,5.4-12.3,5.7-19.1c0.1-1.3,0-2.7,0-4c1.8,8.4,0.8,16.5-4.3,23.5
		c-4.8,6.6-5.7,14-4.5,21.7c1.2,7.6,6,12.4,13,13.8c7.5,1.4,13.4-1.2,17.5-8c2.9-5,5.7-10,8.4-15.1c2.7-5.1,3.8-10.9,1.2-15.9
		c-5-9.7-10.3-19.4-16.9-28c-5-6.5-12.8-11.1-21.7-7.7c-8.4,3.2-16.4,7.3-24.3,11.6c-2.4,1.3-4.8,4.2-5.3,6.7
		c-1.9,8.4-7.5,12-15.1,14C119.1,281.7,117,283.3,114.7,284.5 M247.8,319.1c20.9,7.6,42.4,15.5,64.1,23c5.1,1.8,10.8,2,16.2,2.4
		c1.5,0.1,3.7-1.2,4.6-2.5c2.6-3.7,6.4-7.6,6.6-11.5c0.2-3.9-3.5-8-5.5-12c-8.7-17.5-13.8-35.9-13.8-55.6c0-2,0.6-3.9,1-5.9
		c0.4-0.1,0.9-0.1,1.3-0.2c0.7,1.1,1.6,2.1,2,3.3c6.3,19.8,12.6,39.7,18.7,59.6c0.7,2.4,0,5.2-0.1,7.9c0,1.9-0.4,3.9,0.2,5.5
		c2.3,6.7,0.7,10.2-6.1,12.1c-6.7,1.8-8,4.3-4.8,10.8c1.3,2.7,3.2,5.6,5.7,7.2c11.6,7.7,15.1,18.9,15.1,32.1
		c0,8.9,0.5,17.7,0.8,26.6c0.3,7.5,3,13.6,9.8,17.5c5.6,3.3,8.4,8.2,8,14.7c-0.5,7.7-1.1,15.4-1.8,23.1c-0.4,4.8-3.4,8-7.9,8.7
		c-4.1,0.6-8.5,0.8-12.5-0.1c-6.9-1.5-8.6-6.5-4.7-12.4c1-1.6,2.5-3.3,4.1-4.1c4.9-2.3,5.4-4.7,1.5-8.8c-7-7.5-14.2-14.9-22.1-21.4
		c-7.5-6.2-14.2-12.8-18.4-21.7c-2.9-6-7.7-9.9-14.1-11c-18.9-3.2-37.8-6.2-56.7-9c-10.4-1.6-16.5,3.5-18.7,13
		c-2.9,12.6-10.1,20.6-21.4,25.9c-1.1,0.5-2.1,2.2-2.5,3.5c-3.4,11.4-15.5,17.3-26.7,12.8c-4.5-1.8-5.7-4.7-3.5-9
		c3.5-7.2,10.7-10.4,18.3-8.1c0.7,0.2,1.3,0.5,2,0.6c8,1.8,10.1,0.2,9.5-8c-1.2-16.1-5.8-31.1-12.8-45.6
		c-5.2-10.9-9.9-22.1-13.9-33.4c-1.5-4.3-1.1-9.5-0.5-14.1c1.1-8-3.3-19.3-10-23.7c-3.5-2.3-7.1-2.5-10.9-0.9
		c-6.3,2.7-12.8,3-19.5,2.6c-12.5-0.7-21.6-17.3-16.3-26.1c2-3.2,4.1-5.6,7.6-6.8c2.2-0.8,4.6-1.4,6.8-2.3c3.9-1.6,6.7-4.2,7.6-8.5
		c1.1-5.2,4.1-9,8.7-11.4c6.9-3.6,13.8-7,20.9-10c9.1-3.8,17-0.3,23.5,5.9c9.2,8.8,15.3,19.8,19.3,31.8c1.9,5.5,0.6,10.9-2,15.9
		c-2.6,5-5.4,9.9-8.3,14.7c-5.4,9-15.6,11.6-24.9,6.5c-0.7-0.4-1.4-0.9-2.7-1.2c3.3,6.3,1.2,12.5,1,18.8c-0.2,4.6,1,9.6,2.7,13.9
		c3.2,8.5,6.8,17,11,25.1c8.8,16.9,14.2,34.6,14.2,53.8c0,0.4,0.2,0.8,0.4,1.9c9.3-4.2,16.3-10,19.6-19.7c0.4-1.1,0.5-2.2,0.8-3.3
		c3-12.5,9.9-17.9,22.5-16.1c18,2.5,35.9,5.6,53.8,8.7c7.9,1.3,13.6,5.8,17.1,13.1c3.8,7.9,9.8,13.9,16.5,19.5
		c7.3,6,14,12.6,20.8,19.1c1.6,1.5,2.9,3.5,4,5.4c2.2,3.8,1.4,5.4-2.1,8c-2.4,1.8-4.6,4.1-6.1,6.7c-1.7,3-0.6,5.8,2.7,7.3
		c5.3,2.3,10.8,2.8,15.9,0c2-1.1,4.3-3.8,4.5-5.9c1.1-8.4,1.5-16.8,2-25.2c0.3-5.1-2.1-9.1-6.5-11.6c-8.2-4.7-11.2-12.1-11.4-21.2
		c-0.3-11.3-1-22.5-1.4-33.8c-0.3-8.1-4.3-14.1-10.4-19c-2.2-1.8-4.4-3.6-6.3-5.7c-3.7-4.2-5.6-9-4-15.2c-3.1-0.3-6.1-0.4-9.1-0.8
		c-15.4-2.2-29.1-9.6-43.6-14.4c-10.3-3.4-20.6-6.7-31-9.8c-1.8-0.5-4.1-0.1-6,0.4c-7.4,2.2-14.7,4.9-22.1,7
		c-1.9,0.5-4.3-0.3-6.4-0.5c1-2,1.6-4.5,3-6c5.3-5.7,12.1-7.6,19.3-5.3c7.1,2.3,12.9,0.9,19.1-2.6c12.3-6.9,24.4-14.2,33.7-25.1
		c11.8-13.9,11.8-28.2-1.3-41c-8.1-7.9-17.6-14.5-26.7-21.4c-7.7-5.9-16.1-11-23.6-17.1c-5.7-4.7-11.1-10-15.7-15.9
		c-9.4-12.1-10.1-25.3-3-38.9c6.7-12.9,17-22.8,28-31.9c18.1-14.9,38.1-27.1,58.6-38.4C342.2,63,382.7,45.1,423.7,28
		c0.8-0.3,1.7-0.4,2.9,0.2c-1.6,0.7-3.1,1.5-4.7,2.2c-40.6,16.8-80.7,34.8-119.2,56.1c-23.5,13-46.3,27-66,45.4
		c-7.7,7.2-14.5,15-19.2,24.5c-6.3,12.7-5.1,24.8,3.1,36.2c7,9.8,16.5,16.9,26.1,23.8c9.2,6.6,18.7,12.6,27.6,19.5
		c5.8,4.4,11.3,9.5,15.9,15.1c8.7,10.6,9.4,22.9,1.2,33.9c-4.9,6.7-11.1,12.8-17.7,17.9C265.4,309.1,256.1,314,247.8,319.1"/>
	
		<path style="clip-path:url(#SVGID_00000070082574059130867480000008486855519819912615_);fill:none;stroke:#000000;stroke-width:0.75;stroke-miterlimit:10;" d="
		M333.5,343.6c0.3,0.4,0.7,0.9,1,1.3c2.6-1.6,6-2.6,7.5-4.8c1.2-1.7,0-5-0.1-7.6c-0.5,0-1-0.1-1.5-0.1
		C338.1,336.1,335.8,339.9,333.5,343.6z M114.6,297.6c0.8,0.1,1.6,0.2,2.4,0.4c1.6-2.4,3.4-4.6,4.8-7.1c1.1-2.1,0-3.8-2.3-3.7
		c-1.9,0.1-5.2,0.9-5.4,1.9C113.5,291.8,114.3,294.8,114.6,297.6z M213.1,327.6c9.7-0.4,18.1-4,27.1-7.6
		C228.2,314.8,217.5,317.8,213.1,327.6z M195.1,438.4c-4.2-0.7-8.1-1.1-11.8-2c-6.4-1.6-14.1,2.4-16.1,8.9c-0.8,2.5-0.1,4.3,2.3,5.6
		C179.7,456.2,193.5,449.4,195.1,438.4z M340.9,328.1c2.3-5.9-13.9-62.7-19.3-68.5C321,284.6,328,306.9,340.9,328.1z M114.7,284.5
		c0.2,0.4,0.5,0.9,0.7,1.3c1.5,0,3.4-0.5,4.5,0.1c1.4,0.8,3.3,2.6,3.3,4c0.1,4.7-4.9,9.2-9.9,9.2c2.9,6.1,6.7,11.4,13.7,12
		c5.6,0.5,11.7,0.6,17-1.1c7.1-2.2,13.4-3.4,19.6,3.6c-0.3-2.4-0.5-3.4-0.6-4.5c-0.9-7.6,0-14.9,4.7-21.3c4.2-5.7,5.4-12.3,5.7-19.1
		c0.1-1.3,0-2.7,0-4c1.8,8.4,0.8,16.5-4.3,23.5c-4.8,6.6-5.7,14-4.5,21.7c1.2,7.6,6,12.4,13,13.8c7.5,1.4,13.4-1.2,17.5-8
		c2.9-5,5.7-10,8.4-15.1c2.7-5.1,3.8-10.9,1.2-15.9c-5-9.7-10.3-19.4-16.9-28c-5-6.5-12.8-11.1-21.7-7.7
		c-8.4,3.2-16.4,7.3-24.3,11.6c-2.4,1.3-4.8,4.2-5.3,6.7c-1.9,8.4-7.5,12-15.1,14C119.1,281.7,117,283.3,114.7,284.5z M247.8,319.1
		c20.9,7.6,42.4,15.5,64.1,23c5.1,1.8,10.8,2,16.2,2.4c1.5,0.1,3.7-1.2,4.6-2.5c2.6-3.7,6.4-7.6,6.6-11.5c0.2-3.9-3.5-8-5.5-12
		c-8.7-17.5-13.8-35.9-13.8-55.6c0-2,0.6-3.9,1-5.9c0.4-0.1,0.9-0.1,1.3-0.2c0.7,1.1,1.6,2.1,2,3.3c6.3,19.8,12.6,39.7,18.7,59.6
		c0.7,2.4,0,5.2-0.1,7.9c0,1.9-0.4,3.9,0.2,5.5c2.3,6.7,0.7,10.2-6.1,12.1c-6.7,1.8-8,4.3-4.8,10.8c1.3,2.7,3.2,5.6,5.7,7.2
		c11.6,7.7,15.1,18.9,15.1,32.1c0,8.9,0.5,17.7,0.8,26.6c0.3,7.5,3,13.6,9.8,17.5c5.6,3.3,8.4,8.2,8,14.7
		c-0.5,7.7-1.1,15.4-1.8,23.1c-0.4,4.8-3.4,8-7.9,8.7c-4.1,0.6-8.5,0.8-12.5-0.1c-6.9-1.5-8.6-6.5-4.7-12.4c1-1.6,2.5-3.3,4.1-4.1
		c4.9-2.3,5.4-4.7,1.5-8.8c-7-7.5-14.2-14.9-22.1-21.4c-7.5-6.2-14.2-12.8-18.4-21.7c-2.9-6-7.7-9.9-14.1-11
		c-18.9-3.2-37.8-6.2-56.7-9c-10.4-1.6-16.5,3.5-18.7,13c-2.9,12.6-10.1,20.6-21.4,25.9c-1.1,0.5-2.1,2.2-2.5,3.5
		c-3.4,11.4-15.5,17.3-26.7,12.8c-4.5-1.8-5.7-4.7-3.5-9c3.5-7.2,10.7-10.4,18.3-8.1c0.7,0.2,1.3,0.5,2,0.6c8,1.8,10.1,0.2,9.5-8
		c-1.2-16.1-5.8-31.1-12.8-45.6c-5.2-10.9-9.9-22.1-13.9-33.4c-1.5-4.3-1.1-9.5-0.5-14.1c1.1-8-3.3-19.3-10-23.7
		c-3.5-2.3-7.1-2.5-10.9-0.9c-6.3,2.7-12.8,3-19.5,2.6c-12.5-0.7-21.6-17.3-16.3-26.1c2-3.2,4.1-5.6,7.6-6.8
		c2.2-0.8,4.6-1.4,6.8-2.3c3.9-1.6,6.7-4.2,7.6-8.5c1.1-5.2,4.1-9,8.7-11.4c6.9-3.6,13.8-7,20.9-10c9.1-3.8,17-0.3,23.5,5.9
		c9.2,8.8,15.3,19.8,19.3,31.8c1.9,5.5,0.6,10.9-2,15.9c-2.6,5-5.4,9.9-8.3,14.7c-5.4,9-15.6,11.6-24.9,6.5
		c-0.7-0.4-1.4-0.9-2.7-1.2c3.3,6.3,1.2,12.5,1,18.8c-0.2,4.6,1,9.6,2.7,13.9c3.2,8.5,6.8,17,11,25.1c8.8,16.9,14.2,34.6,14.2,53.8
		c0,0.4,0.2,0.8,0.4,1.9c9.3-4.2,16.3-10,19.6-19.7c0.4-1.1,0.5-2.2,0.8-3.3c3-12.5,9.9-17.9,22.5-16.1c18,2.5,35.9,5.6,53.8,8.7
		c7.9,1.3,13.6,5.8,17.1,13.1c3.8,7.9,9.8,13.9,16.5,19.5c7.3,6,14,12.6,20.8,19.1c1.6,1.5,2.9,3.5,4,5.4c2.2,3.8,1.4,5.4-2.1,8
		c-2.4,1.8-4.6,4.1-6.1,6.7c-1.7,3-0.6,5.8,2.7,7.3c5.3,2.3,10.8,2.8,15.9,0c2-1.1,4.3-3.8,4.5-5.9c1.1-8.4,1.5-16.8,2-25.2
		c0.3-5.1-2.1-9.1-6.5-11.6c-8.2-4.7-11.2-12.1-11.4-21.2c-0.3-11.3-1-22.5-1.4-33.8c-0.3-8.1-4.3-14.1-10.4-19
		c-2.2-1.8-4.4-3.6-6.3-5.7c-3.7-4.2-5.6-9-4-15.2c-3.1-0.3-6.1-0.4-9.1-0.8c-15.4-2.2-29.1-9.6-43.6-14.4
		c-10.3-3.4-20.6-6.7-31-9.8c-1.8-0.5-4.1-0.1-6,0.4c-7.4,2.2-14.7,4.9-22.1,7c-1.9,0.5-4.3-0.3-6.4-0.5c1-2,1.6-4.5,3-6
		c5.3-5.7,12.1-7.6,19.3-5.3c7.1,2.3,12.9,0.9,19.1-2.6c12.3-6.9,24.4-14.2,33.7-25.1c11.8-13.9,11.8-28.2-1.3-41
		c-8.1-7.9-17.6-14.5-26.7-21.4c-7.7-5.9-16.1-11-23.6-17.1c-5.7-4.7-11.1-10-15.7-15.9c-9.4-12.1-10.1-25.3-3-38.9
		c6.7-12.9,17-22.8,28-31.9c18.1-14.9,38.1-27.1,58.6-38.4C342.2,63,382.7,45.1,423.7,28c0.8-0.3,1.7-0.4,2.9,0.2
		c-1.6,0.7-3.1,1.5-4.7,2.2c-40.6,16.8-80.7,34.8-119.2,56.1c-23.5,13-46.3,27-66,45.4c-7.7,7.2-14.5,15-19.2,24.5
		c-6.3,12.7-5.1,24.8,3.1,36.2c7,9.8,16.5,16.9,26.1,23.8c9.2,6.6,18.7,12.6,27.6,19.5c5.8,4.4,11.3,9.5,15.9,15.1
		c8.7,10.6,9.4,22.9,1.2,33.9c-4.9,6.7-11.1,12.8-17.7,17.9C265.4,309.1,256.1,314,247.8,319.1z"/>
	<path style="clip-path:url(#SVGID_00000070082574059130867480000008486855519819912615_);fill:#FFFFFF;" d="M115.5,284.8
		c2.2-1.2,4.4-2.8,6.7-3.4c7.6-2,13.3-5.6,15.2-14.1c0.6-2.6,3-5.5,5.4-6.7c7.9-4.3,16-8.5,24.4-11.7c8.9-3.4,16.7,1.2,21.7,7.8
		c6.6,8.6,11.9,18.4,16.9,28.1c2.6,5,1.5,10.8-1.2,15.9c-2.7,5.1-5.5,10.2-8.4,15.2c-4.1,6.9-10,9.5-17.6,8.1
		c-7.1-1.4-11.9-6.2-13-13.8c-1.2-7.8-0.3-15.1,4.5-21.8c5.1-7.1,6.1-15.1,4.3-23.6c0,1.4,0.1,2.7,0,4.1c-0.3,6.9-1.6,13.5-5.8,19.2
		c-4.7,6.4-5.6,13.7-4.7,21.4c0.1,1.1,0.3,2.1,0.6,4.5c-6.3-7-12.5-5.8-19.7-3.6c-5.3,1.6-11.4,1.6-17.1,1.1
		c-7-0.7-10.9-5.9-13.7-12.1c5,0,10.1-4.5,10-9.2c0-1.4-1.9-3.2-3.3-4c-1.2-0.7-3-0.1-4.6-0.1C115.9,285.7,115.7,285.3,115.5,284.8"
		/>
	
		<path style="clip-path:url(#SVGID_00000070082574059130867480000008486855519819912615_);fill:none;stroke:#000000;stroke-width:0.75;stroke-miterlimit:10;" d="
		M115.5,284.8c2.2-1.2,4.4-2.8,6.7-3.4c7.6-2,13.3-5.6,15.2-14.1c0.6-2.6,3-5.5,5.4-6.7c7.9-4.3,16-8.5,24.4-11.7
		c8.9-3.4,16.7,1.2,21.7,7.8c6.6,8.6,11.9,18.4,16.9,28.1c2.6,5,1.5,10.8-1.2,15.9c-2.7,5.1-5.5,10.2-8.4,15.2
		c-4.1,6.9-10,9.5-17.6,8.1c-7.1-1.4-11.9-6.2-13-13.8c-1.2-7.8-0.3-15.1,4.5-21.8c5.1-7.1,6.1-15.1,4.3-23.6c0,1.4,0.1,2.7,0,4.1
		c-0.3,6.9-1.6,13.5-5.8,19.2c-4.7,6.4-5.6,13.7-4.7,21.4c0.1,1.1,0.3,2.1,0.6,4.5c-6.3-7-12.5-5.8-19.7-3.6
		c-5.3,1.6-11.4,1.6-17.1,1.1c-7-0.7-10.9-5.9-13.7-12.1c5,0,10.1-4.5,10-9.2c0-1.4-1.9-3.2-3.3-4c-1.2-0.7-3-0.1-4.6-0.1
		C115.9,285.7,115.7,285.3,115.5,284.8z"/>
	<path style="clip-path:url(#SVGID_00000070082574059130867480000008486855519819912615_);fill:#FFFFFF;" d="M341.7,328.8
		c-13.1-21.4-20.2-44.1-19.7-69.3C327.6,265.4,344,322.8,341.7,328.8"/>
	
		<path style="clip-path:url(#SVGID_00000070082574059130867480000008486855519819912615_);fill:none;stroke:#000000;stroke-width:0.75;stroke-miterlimit:10;" d="
		M341.7,328.8c-13.1-21.4-20.2-44.1-19.7-69.3C327.6,265.4,344,322.8,341.7,328.8z"/>
	<path style="clip-path:url(#SVGID_00000070082574059130867480000008486855519819912615_);fill:#FFFFFF;" d="M196.2,438.5
		c-1.7,11.2-15.6,18.2-25.9,12.7c-2.4-1.3-3.1-3.1-2.3-5.7c2.1-6.6,9.8-10.7,16.3-9C188,437.4,192,437.8,196.2,438.5"/>
	
		<path style="clip-path:url(#SVGID_00000070082574059130867480000008486855519819912615_);fill:none;stroke:#000000;stroke-width:0.75;stroke-miterlimit:10;" d="
		M196.2,438.5c-1.7,11.2-15.6,18.2-25.9,12.7c-2.4-1.3-3.1-3.1-2.3-5.7c2.1-6.6,9.8-10.7,16.3-9C188,437.4,192,437.8,196.2,438.5z"
		/>
	<path style="clip-path:url(#SVGID_00000070082574059130867480000008486855519819912615_);fill:#FFFFFF;" d="M213.7,328.1
		c4.5-10.2,15.5-13.3,27.8-7.8C232.2,324,223.6,327.7,213.7,328.1"/>
	
		<path style="clip-path:url(#SVGID_00000070082574059130867480000008486855519819912615_);fill:none;stroke:#000000;stroke-width:0.75;stroke-miterlimit:10;" d="
		M213.7,328.1c4.5-10.2,15.5-13.3,27.8-7.8C232.2,324,223.6,327.7,213.7,328.1z"/>
	<path style="clip-path:url(#SVGID_00000070082574059130867480000008486855519819912615_);fill:#FFFFFF;" d="M115.4,298.1
		c-0.3-3-1.1-6-0.7-8.8c0.2-1,3.6-1.8,5.6-1.9c2.4-0.1,3.6,1.7,2.4,3.8c-1.4,2.6-3.3,4.9-5,7.3C117.1,298.4,116.3,298.3,115.4,298.1
		"/>
	
		<path style="clip-path:url(#SVGID_00000070082574059130867480000008486855519819912615_);fill:none;stroke:#000000;stroke-width:0.75;stroke-miterlimit:10;" d="
		M115.4,298.1c-0.3-3-1.1-6-0.7-8.8c0.2-1,3.6-1.8,5.6-1.9c2.4-0.1,3.6,1.7,2.4,3.8c-1.4,2.6-3.3,4.9-5,7.3
		C117.1,298.4,116.3,298.3,115.4,298.1z"/>
	<path style="clip-path:url(#SVGID_00000070082574059130867480000008486855519819912615_);fill:#FFFFFF;" d="M333.9,344.1
		c2.4-3.9,4.8-7.8,7.2-11.7c0.5,0,1,0.1,1.5,0.1c0.1,2.7,1.3,6.1,0.1,7.9c-1.6,2.3-5.1,3.4-7.8,5C334.6,345,334.3,344.5,333.9,344.1
		"/>
	
		<path style="clip-path:url(#SVGID_00000070082574059130867480000008486855519819912615_);fill:none;stroke:#000000;stroke-width:0.75;stroke-miterlimit:10;" d="
		M333.9,344.1c2.4-3.9,4.8-7.8,7.2-11.7c0.5,0,1,0.1,1.5,0.1c0.1,2.7,1.3,6.1,0.1,7.9c-1.6,2.3-5.1,3.4-7.8,5
		C334.6,345,334.3,344.5,333.9,344.1z"/>
</g>
</svg>
